<?xml version="1.0" encoding="UTF-8"?>
<svg id="Calque_1" data-name="Calque 1" xmlns="http://www.w3.org/2000/svg" viewBox="0 0 271.02 198.79">
  <defs>
    <style>
      .cls-1 {
        font-size: 15px;
      }

      .cls-1, .cls-2, .cls-3, .cls-4, .cls-5 {
        fill: #efde89;
      }

      .cls-1, .cls-3, .cls-4, .cls-5 {
        font-family: BrushScriptMT, 'Brush Script MT';
      }

      .cls-6 {
        fill: #edc48a;
      }

      .cls-7 {
        fill: #c9c3bd;
      }

      .cls-8 {
        fill: #e8e7e7;
      }

      .cls-3 {
        font-size: 17px;
      }

      .cls-9 {
        fill: #d4d3eb;
      }

      .cls-10 {
        fill: none;
      }

      .cls-11 {
        fill: #353447;
      }

      .cls-12 {
        fill: #ececec;
      }

      .cls-4 {
        font-size: 12px;
      }

      .cls-13 {
        fill: #f2f2f2;
      }

      .cls-5 {
        font-size: 12px;
      }
    </style>
  </defs>
  <polyline class="cls-9" points=".33 10.47 269.63 10.47 269.63 194.72 .33 194.72"/>
  <rect class="cls-9" x="15.25" y="24.64" width="240.94" height="155.91"/>
  <g>
    <path class="cls-10" d="M38.89,93.64h.11V59.03s-.07,.03-.11,.05v34.56Z"/>
    <g>
      <path class="cls-11" d="M38.89,51.12v7.96s.07-.03,.11-.05v-7.96s-.07,.03-.11,.05Z"/>
      <path class="cls-11" d="M32.4,51.12v7.96c0,2.29,1.24,4.45,3.21,5.6,1.01,.59,2.1,.88,3.28,.89,1.17,0,2.26-.3,3.28-.89l.11-.05c.98-.58,1.75-1.35,2.33-2.33,.59-1.01,.88-2.1,.89-3.28v-7.96c0-2.29-1.24-4.45-3.21-5.6-1.01-.59-2.1-.88-3.28-.89-1.17,0-2.26,.3-3.28,.89l-.11,.05c-.76,.41-1.36,.96-1.82,1.67-.57,.63-.96,1.36-1.16,2.21-.27,.86-.31,1.73-.12,2.59,.04,.86,.3,1.67,.77,2.41,.89,1.39,2.22,2.61,3.88,2.98l1.73,.23c1.17,0,2.26-.3,3.28-.89l.11-.05-9.76-5.6v7.96l3.21-5.6-.11,.05,9.76,5.6v-7.96c0-1.66-.72-3.41-1.9-4.59-.59-.63-1.28-1.08-2.09-1.34-.77-.41-1.61-.59-2.5-.56-1.68,.08-3.42,.63-4.59,1.9s-1.9,2.83-1.9,4.59Z"/>
    </g>
    <g>
      <path class="cls-11" d="M38.89,51.12l-.37,.16,.04,7.94c.11-.05,.22-.1,.33-.15v-7.96Z"/>
      <path class="cls-11" d="M35.62,45.52l-.37,.16c-.98,.58-1.75,1.35-2.33,2.33-.59,1.01-.88,2.1-.89,3.28,.01,2.32,.03,4.63,.04,6.95,0,.33,0,.66,0,.99,.01,2.29,1.23,4.44,3.21,5.6,1.01,.59,2.1,.88,3.28,.89,1.17,0,2.26-.3,3.28-.89,.11-.05,.22-.1,.33-.15,.98-.58,1.75-1.35,2.33-2.33,.59-1.01,.88-2.1,.89-3.28v-7.96c0-1.66-.72-3.41-1.9-4.59-.59-.63-1.28-1.08-2.09-1.34-.77-.41-1.61-.59-2.5-.56-1.68,.08-3.42,.63-4.59,1.9s-1.9,2.83-1.9,4.59v7.96l3.21-5.6c-.11,.05-.22,.1-.33,.15l9.76,5.6c-.01-2.32-.03-4.63-.04-6.95,0-.33,0-.66,0-.99l-3.21,5.6,.37-.16c.76-.41,1.36-.96,1.82-1.67,.57-.63,.96-1.36,1.16-2.21,.27-.86,.31-1.73,.12-2.59-.04-.86-.3-1.67-.77-2.41-.89-1.39-2.22-2.61-3.88-2.98l-1.73-.23c-1.17,0-2.26,.3-3.28,.89Z"/>
    </g>
    <g>
      <path class="cls-11" d="M34.39,53.1c-2.93,1.31-5.96,2.63-9.16,2.91-2.21,.14-4.37-.19-6.54-.53-3-.46-6-.94-9.01-1.43-1.02-.17-2.05-.33-3.07-.5l.05,9.79c3.01,.49,6.01,.97,9.01,1.43,2.16,.33,4.33,.67,6.54,.53,3.2-.28,6.22-1.59,9.16-2.9,2.4-1.06,4.79-2.11,7.19-3.17l-.04-7.94c-1.38,.61-2.75,1.21-4.13,1.82Z"/>
      <path class="cls-11" d="M31.12,47.5c-.55,.25-1.11,.55-1.69,.74,1.67-.57-.02,0-.38,.13-1.07,.41-2.17,.77-3.29,1.02-.22,.05-.45,.1-.67,.14-.5,.09-.3,.07,.6-.06-.37,.24-1.43,.08-1.87,.08-.47,0-.94-.04-1.4-.07-.42-.03-2.48-.03-.6-.04-1.05,0-2.25-.34-3.28-.5-1.11-.17-2.21-.35-3.32-.52-2.29-.37-4.58-.74-6.86-1.11-2.13-.34-3.91-.19-5.66,1.16-1.6,1.23-2.57,3.04-2.56,5.1,.02,3.26,.04,6.52,.05,9.79,.01,2.59,1.99,5.81,4.76,6.26s5.69,.92,8.53,1.36c3.54,.55,6.94,1.09,10.51,.61s6.48-1.73,9.61-3.1c2.75-1.21,5.49-2.42,8.24-3.63,2.01-.89,3.23-3.52,3.21-5.6-.01-2.65-.03-5.29-.04-7.94-.01-2.29-1.23-4.44-3.21-5.6-2.18-1.27-4.36-.97-6.55,0-1.38,.61-2.75,1.21-4.13,1.82s-2.6,2.48-2.98,3.88c-.43,1.55-.23,3.62,.65,5s2.22,2.61,3.88,2.98c1.81,.41,3.32,.09,5-.65,1.38-.61,2.75-1.21,4.13-1.82l-9.76-5.6c.01,2.65,.03,5.29,.04,7.94l3.21-5.6c-2.47,1.09-4.93,2.17-7.4,3.26-.28,.12-.56,.25-.84,.37-.21,.09-.42,.19-.63,.28l.7-.3c-.52,.03-1.22,.49-1.72,.66-.58,.2-1.16,.39-1.75,.56-.29,.08-.59,.16-.89,.22-.24,.05-1.53,.2-.49,.13,.99-.07-.09,0-.28,0-.31,.02-.63,.02-.94,.02-.63,0-1.25-.04-1.87-.1-.31-.03-.62-.07-.93-.1-.92-.09,1.24,.2,.33,.04-.7-.12-1.4-.21-2.11-.32-2.69-.42-5.37-.85-8.06-1.28l4.76,6.26c-.02-3.26-.04-6.52-.05-9.79l-8.21,6.26c5.36,.87,10.73,1.84,16.12,2.49,2.92,.35,5.78,.21,8.64-.51s5.4-1.93,8-3.09c1.39-.62,2.6-2.47,2.98-3.88,.43-1.55,.23-3.62-.65-5s-2.22-2.61-3.88-2.98c-1.8-.41-3.32-.1-5,.65Z"/>
    </g>
    <g>
      <path class="cls-11" d="M66.89,37.79c-4.05,2.79-8.58,4.76-13.11,6.78-4.93,2.17-9.85,4.34-14.77,6.51v7.96c3.92-1.73,7.83-3.45,11.76-5.18,4.53-2.01,9.06-3.99,13.11-6.78,4.22-2.83,7.84-6.45,11.45-10.06,6.83-6.8,13.77-13.82,19.95-21.31l-5.24,.03c-3.83,4.1-7.77,8.09-11.69,11.99-3.61,3.61-7.23,7.22-11.45,10.06Z"/>
      <path class="cls-11" d="M63.61,32.18c-4.15,2.83-8.76,4.85-13.34,6.88-4.85,2.14-9.7,4.27-14.55,6.41-2.02,.89-3.21,3.52-3.21,5.6v7.96c0,2.29,1.24,4.45,3.21,5.6,2.18,1.27,4.36,.97,6.55,0,4.48-1.98,8.98-3.94,13.45-5.94s8.5-3.93,12.34-6.66,7.57-6.17,11.05-9.64,6.74-6.73,10.04-10.16c3.7-3.86,7.3-7.82,10.71-11.94,1.71-2.07,2.43-4.5,1.34-7.09-.99-2.35-3.33-4-5.93-3.99-1.59,0-3.17,0-4.76,.03-.16,0-.32,0-.48,0-2.65,.11-4.23,1.53-5.91,3.3-1.37,1.45-2.76,2.89-4.16,4.32-2.79,2.86-5.6,5.69-8.45,8.49-1.39,1.36-2.8,2.71-4.26,3.99-.67,.59-1.36,1.16-2.06,1.72-1.1,.89,.96-.67-.11,.07-.49,.34-.97,.7-1.47,1.03-2.8,1.9-4.32,5.8-2.33,8.88,1.8,2.79,5.88,4.37,8.88,2.33,4.69-3.19,8.76-7.08,12.77-11.07,3.95-3.94,7.88-7.91,11.69-11.99l-4.59,1.9c1.75,0,3.5-.02,5.24-.03-1.53-3.69-3.06-7.39-4.59-11.08-5.96,7.2-12.51,13.89-19.12,20.48-1.6,1.6-3.2,3.21-4.84,4.77-.76,.72-1.53,1.43-2.32,2.12-.39,.35-.79,.69-1.19,1.02-.23,.19-.46,.38-.69,.57-.16,.13-1.17,.96-.4,.32,.67-.56,.08-.07-.06,.03-.24,.17-.48,.35-.73,.52-.43,.3-.87,.6-1.31,.89-.96,.64-1.94,1.23-2.95,1.79-2.01,1.13-4.1,2.13-6.2,3.08-5.02,2.29-10.1,4.47-15.15,6.7l9.76,5.6v-7.96l-3.21,5.6c4.85-2.14,9.7-4.27,14.55-6.41,4.58-2.02,9.18-4.05,13.34-6.88,2.8-1.91,4.32-5.79,2.33-8.88-1.8-2.79-5.88-4.37-8.88-2.33Z"/>
    </g>
    <g>
      <path class="cls-2" d="M9.69,54.05l-.2-37.88-3.07,.02,.2,37.36c1.02,.17,2.05,.33,3.07,.5Z"/>
      <path class="cls-2" d="M16.12,54.05c-.06-11.07-.12-22.14-.18-33.21,0-1.56-.02-3.11-.03-4.67-.02-3.46-2.93-6.44-6.42-6.42l-3.07,.02C2.97,9.79-.02,12.7,0,16.19c.06,10.91,.12,21.82,.18,32.73,0,1.54,.02,3.09,.03,4.63,.01,2.57,1.97,5.75,4.72,6.19,1.02,.17,2.05,.33,3.07,.5,1.76,.28,3.36,.29,4.95-.65,1.33-.78,2.6-2.31,2.95-3.84,.7-3.09-.94-7.33-4.49-7.9-1.02-.17-2.05-.33-3.07-.5l4.72,6.19c-.06-10.91-.12-21.82-.18-32.73,0-1.54-.02-3.09-.03-4.63l-6.42,6.42,3.07-.02-6.42-6.42c.06,11.07,.12,22.14,.18,33.21,0,1.56,.02,3.11,.03,4.67,.02,3.36,2.94,6.58,6.42,6.42s6.44-2.82,6.42-6.42Z"/>
    </g>
    <g>
      <path class="cls-2" d="M38.89,10.89v5.13h.11v-5.13h55.44c1.3-1.48,2.6-2.96,3.85-4.47l-60.01,.32,.02,4.14h.59Z"/>
      <path class="cls-2" d="M32.47,10.89v5.13c0,3.46,2.94,6.44,6.42,6.42h.11c3.47-.02,6.42-2.93,6.42-6.42v-5.13l-6.42,6.42h20.19c10.09,0,20.19,0,30.28,0h4.19c.25,0,.51,0,.76,0,3.89-.12,6.16-3.62,8.42-6.35,1.69-2.04,2.41-4.46,1.33-7.02C103.18,1.63,100.86-.01,98.29,0c-6.77,.04-13.54,.07-20.31,.11-10.78,.06-21.56,.12-32.33,.17-2.45,.01-4.91,.03-7.36,.04-3.46,.02-6.44,2.93-6.42,6.42,0,1.38,.01,2.76,.02,4.14,.02,3.47,2.93,6.42,6.42,6.42h.59c3.36,0,6.58-2.95,6.42-6.42s-2.82-6.42-6.42-6.42h-.59l6.42,6.42c0-1.38-.01-2.76-.02-4.14l-6.42,6.42c6.77-.04,13.54-.07,20.31-.11,10.78-.06,21.56-.12,32.33-.17,2.45-.01,4.91-.03,7.36-.04l-4.54-10.97c-1.25,1.51-2.55,2.99-3.85,4.47l4.54-1.88H39c-3.47,0-6.42,2.94-6.42,6.42v5.13l6.42-6.42h-.11c2.14,2.14,4.28,4.28,6.42,6.42v-5.13c0-3.36-2.95-6.58-6.42-6.42s-6.42,2.82-6.42,6.42Z"/>
    </g>
    <g>
      <polygon class="cls-2" points="38.3 10.89 38.28 6.75 9.44 6.9 9.46 10.89 38.3 10.89"/>
      <path class="cls-2" d="M44.73,10.89c0-1.38-.01-2.76-.02-4.14-.02-3.46-2.93-6.44-6.42-6.42-8.41,.05-16.82,.09-25.23,.14-1.2,0-2.41,.01-3.61,.02-3.46,.02-6.44,2.93-6.42,6.42,0,1.33,.01,2.66,.02,3.99,.02,3.47,2.93,6.42,6.42,6.42,8.41,0,16.82,0,25.23,0h3.61c3.36,0,6.58-2.95,6.42-6.42s-2.82-6.42-6.42-6.42c-8.41,0-16.82,0-25.23,0h-3.61l6.42,6.42c0-1.33-.01-2.66-.02-3.99l-6.42,6.42c8.41-.05,16.82-.09,25.23-.14,1.2,0,2.41-.01,3.61-.02l-6.42-6.42c0,1.38,.01,2.76,.02,4.14,.02,3.36,2.94,6.58,6.42,6.42s6.44-2.82,6.42-6.42Z"/>
    </g>
    <g>
      <polygon class="cls-2" points="38.3 10.89 9.46 10.89 9.49 16.18 38.33 16.02 38.3 10.89"/>
      <path class="cls-2" d="M38.3,4.47c-8.41,0-16.82,0-25.23,0h-3.61c-3.46,0-6.44,2.94-6.42,6.42l.03,5.29c.02,3.46,2.93,6.44,6.42,6.42,8.41-.05,16.82-.09,25.23-.14,1.2,0,2.41-.01,3.61-.02,3.46-.02,6.44-2.93,6.42-6.42,0-1.71-.02-3.42-.03-5.13-.02-3.36-2.94-6.58-6.42-6.42s-6.44,2.82-6.42,6.42c0,1.71,.02,3.42,.03,5.13l6.42-6.42c-8.41,.05-16.82,.09-25.23,.14-1.2,0-2.41,.01-3.61,.02l6.42,6.42-.03-5.29-6.42,6.42c8.41,0,16.82,0,25.23,0h3.61c3.36,0,6.58-2.95,6.42-6.42s-2.82-6.42-6.42-6.42Z"/>
    </g>
    <g>
      <polygon class="cls-2" points="38.89 16.02 38.89 10.89 38.3 10.89 38.33 16.02 38.89 16.02"/>
      <path class="cls-2" d="M45.32,16.02v-5.13c.03-.88-.15-1.71-.55-2.48-.26-.8-.7-1.49-1.33-2.07l-1.3-1c-1-.58-2.08-.87-3.24-.88h-.59c-.88-.03-1.71,.15-2.48,.55-.8,.26-1.49,.7-2.07,1.33l-1,1.3c-.58,1-.87,2.08-.88,3.24,0,1.49,.02,2.99,.02,4.48,0,.22,0,.43,0,.65-.03,.88,.15,1.71,.55,2.48,.26,.8,.7,1.49,1.33,2.07l1.3,1c1,.58,2.08,.87,3.24,.88h.56c.88,.03,1.71-.15,2.48-.56,.8-.26,1.49-.7,2.07-1.33,.63-.58,1.07-1.27,1.33-2.07,.4-.77,.59-1.59,.55-2.48l-.23-1.71c-.31-1.09-.86-2.03-1.65-2.83l-1.3-1c-1-.58-2.08-.87-3.24-.88h-.56c2.14,2.14,4.28,4.29,6.42,6.43,0-1.49-.02-2.99-.02-4.48,0-.22,0-.43,0-.65l-6.42,6.42h.59l-6.42-6.42v5.13c-.03,.88,.15,1.71,.55,2.48,.26,.8,.7,1.49,1.33,2.07,.58,.63,1.27,1.07,2.07,1.33,.77,.4,1.59,.59,2.48,.55l1.71-.23c1.09-.31,2.03-.86,2.83-1.65l1-1.3c.58-1,.87-2.08,.88-3.24Z"/>
    </g>
    <g>
      <path class="cls-2" d="M39,16.02l51.03-.28c1.49-1.6,2.97-3.21,4.41-4.85H39v5.13Z"/>
      <path class="cls-2" d="M39,22.44c6.28-.03,12.57-.07,18.85-.1,9.33-.05,18.66-.1,28-.15l3.62-.02c.19,0,.37,0,.56,0,3.97-.15,6.53-3.99,8.96-6.73,1.74-1.97,2.38-4.53,1.33-7.02-.98-2.33-3.29-3.95-5.87-3.95H39c-3.47,0-6.42,2.94-6.42,6.42v5.13c0,3.36,2.95,6.58,6.42,6.42s6.42-2.82,6.42-6.42v-5.13l-6.42,6.42h18.75c9.96,0,19.91,0,29.87,0h6.83l-4.54-10.97c-1.45,1.64-2.92,3.25-4.41,4.85l4.54-1.88c-5.77,.03-11.53,.06-17.3,.09-9.14,.05-18.28,.1-27.42,.15-2.11,.01-4.21,.02-6.32,.03-3.36,.02-6.58,2.94-6.42,6.42s2.82,6.44,6.42,6.42Z"/>
    </g>
    <g>
      <path class="cls-2" d="M39,51.07V16.02h-.11V51.12s.07-.03,.11-.05Z"/>
      <path class="cls-2" d="M45.42,51.07V16.02c0-3.46-2.94-6.44-6.42-6.42h-.11c-3.47,.02-6.42,2.93-6.42,6.42V51.12c0,2.26,1.23,4.4,3.18,5.55,2.16,1.26,4.32,.96,6.48,0l.11-.05c1.38-.61,2.57-2.46,2.95-3.84,.42-1.54,.23-3.59-.65-4.95s-2.2-2.58-3.84-2.95c-1.79-.41-3.28-.09-4.95,.65l-.11,.05,9.67,5.55c0-10.25,0-20.49,0-30.74v-4.36l-6.42,6.42h.11c-2.14-2.14-4.28-4.28-6.42-6.42,0,10.23,0,20.46,0,30.7v4.36c0,3.36,2.95,6.58,6.42,6.42s6.42-2.82,6.42-6.42Z"/>
    </g>
    <g>
      <path class="cls-2" d="M18.7,55.48c2.16,.33,4.33,.67,6.54,.53,3.2-.28,6.22-1.59,9.16-2.91,1.38-.61,2.75-1.21,4.13-1.82l-.19-35.26-28.84,.16,.2,37.88c3.01,.49,6.01,.97,9.01,1.43Z"/>
      <path class="cls-2" d="M16.99,61.68c4.63,.71,8.95,1.17,13.54-.18,3.87-1.15,7.55-3.04,11.24-4.66,1.99-.88,3.19-3.49,3.18-5.55-.06-10.28-.11-20.55-.17-30.83,0-1.48-.02-2.95-.02-4.43-.02-3.46-2.93-6.44-6.42-6.42-8.41,.05-16.82,.09-25.23,.14-1.2,0-2.41,.01-3.61,.02-3.46,.02-6.44,2.93-6.42,6.42,.06,11.07,.12,22.14,.18,33.21,0,1.56,.02,3.11,.03,4.67,.01,2.56,1.97,5.75,4.72,6.19,3,.48,6,.97,9.01,1.43,1.77,.27,3.34,.29,4.95-.65,1.33-.78,2.6-2.31,2.95-3.84,.7-3.07-.94-7.36-4.49-7.9-3-.46-6.01-.94-9.01-1.43l4.72,6.19c-.06-11.07-.12-22.14-.18-33.21,0-1.56-.02-3.11-.03-4.67l-6.42,6.42c8.41-.05,16.82-.09,25.23-.14,1.2,0,2.41-.01,3.61-.02l-6.42-6.42c.06,10.28,.11,20.55,.17,30.83,0,1.48,.02,2.95,.02,4.43l3.18-5.55c-1.45,.64-2.89,1.27-4.34,1.91-.35,.16-.7,.31-1.05,.47-1.4,.62,.88-.33,.05-.02-.79,.3-1.57,.61-2.38,.87-.73,.23-1.48,.38-2.21,.58-1.17,.32,.92-.01,.13,.01-.39,.01-.78,.05-1.17,.06-.86,0-1.72-.05-2.57-.14-.42-.04-1.49,.03,.08,.02-.45,0-.95-.14-1.39-.21-1.77-.27-3.34-.29-4.95,.65-1.33,.78-2.6,2.31-2.95,3.84-.7,3.07,.94,7.36,4.49,7.9Z"/>
    </g>
    <g>
      <path class="cls-2" d="M38.52,51.28l.37-.16V16.02h-.56s.19,35.26,.19,35.26Z"/>
      <path class="cls-2" d="M41.76,56.83l.37-.16c2-.88,3.18-3.49,3.18-5.55,0-10.25,0-20.49,0-30.74v-4.36c0-3.46-2.94-6.44-6.42-6.42h-.56c-3.46,.02-6.44,2.93-6.42,6.43,.06,10.28,.11,20.55,.17,30.83,0,1.48,.02,2.95,.02,4.43,.02,3.36,2.94,6.58,6.42,6.42s6.44-2.82,6.42-6.42c-.06-10.28-.11-20.55-.17-30.83,0-1.48-.02-2.95-.02-4.43l-6.42,6.42h.56c-2.14-2.14-4.28-4.29-6.42-6.43V51.12l3.18-5.55-.37,.16c-1.38,.61-2.57,2.46-2.95,3.84-.42,1.54-.23,3.59,.65,4.95s2.2,2.58,3.84,2.95c1.79,.41,3.28,.09,4.95-.65Z"/>
    </g>
    <g>
      <path class="cls-2" d="M53.77,44.56c4.53-2.01,9.06-3.99,13.11-6.78,4.22-2.83,7.84-6.45,11.45-10.06,3.92-3.9,7.86-7.89,11.69-11.99l-51.03,.28V51.07c4.92-2.17,9.84-4.34,14.77-6.51Z"/>
      <path class="cls-2" d="M57.01,50.11c3.59-1.6,7.2-3.17,10.59-5.17,3.64-2.15,7-4.8,10.11-7.65,5.87-5.38,11.42-11.19,16.86-17,1.79-1.91,2.35-4.59,1.33-7.02s-3.3-3.96-5.87-3.95c-5.77,.03-11.53,.06-17.3,.09-9.14,.05-18.28,.1-27.42,.15-2.11,.01-4.21,.02-6.32,.03-3.47,.02-6.42,2.93-6.42,6.42,0,10.23,0,20.46,0,30.7v4.36c0,2.26,1.23,4.4,3.18,5.55,2.16,1.26,4.32,.96,6.48,0,4.92-2.17,9.85-4.34,14.77-6.51,1.38-.61,2.57-2.46,2.95-3.84,.42-1.54,.23-3.59-.65-4.95s-2.2-2.58-3.84-2.95c-1.79-.41-3.28-.09-4.95,.65-4.93,2.17-9.85,4.34-14.77,6.51l9.67,5.55V16.02l-6.42,6.42c5.77-.03,11.53-.06,17.3-.09,9.14-.05,18.28-.1,27.42-.15,2.11-.01,4.21-.02,6.32-.03l-4.54-10.97c-5.34,5.7-10.79,11.39-16.53,16.7-1.3,1.2-2.62,2.51-4.08,3.5,1.44-.98,0-.02-.31,.2-.37,.26-.74,.52-1.11,.77-.83,.56-1.67,1.09-2.53,1.59-3.33,1.94-6.87,3.49-10.39,5.05-1.38,.61-2.57,2.45-2.95,3.84-.42,1.54-.23,3.59,.65,4.95s2.2,2.58,3.84,2.95c1.79,.41,3.29,.09,4.95-.65Z"/>
    </g>
  </g>
  <g>
    <path class="cls-2" d="M264.94,113.57c-10.13,.8-20.05,6.37-25.89,15.63-2.43,3.9-4.27,8.41-7.61,11.39-3.11,2.76-7.1,3.89-10.93,4.91-15.19,4.15-30.54,8.27-46.17,8.31-6.96,0-14.7-.56-20.09,4.35-3.56,3.23-5.34,8.34-5.92,13.38-.67,6.11,.4,12.35,2.8,17.9l114.22-.62-.41-75.26Z"/>
    <path class="cls-2" d="M264.94,108.48c-10.44,.89-20.55,5.71-27.21,13.94-1.8,2.22-3.33,4.55-4.72,7.04-.6,1.07-1.19,2.16-1.82,3.21-.31,.52-.63,1.04-.97,1.55-.18,.28-.38,.55-.57,.83-.58,.88,.59-.62-.18,.23-.35,.39-.69,.79-1.06,1.17-.23,.23-.5,.44-.73,.68-.53,.56,.96-.61-.1,.09-.45,.3-.9,.6-1.37,.87-.29,.17-.59,.32-.89,.47-.13,.07-1.33,.62-.67,.33,.73-.32-.49,.18-.51,.19-.25,.09-.5,.18-.76,.27-.63,.22-1.27,.42-1.92,.6-1.31,.38-2.62,.72-3.94,1.08-5.82,1.58-11.64,3.14-17.53,4.45-2.97,.66-5.95,1.26-8.95,1.76-.79,.13-1.57,.26-2.36,.38-.32,.05-2,.29-1.02,.15-1.58,.21-3.16,.39-4.75,.53-5.4,.49-10.79,.19-16.2,.47-5.79,.3-11.3,1.67-15.78,5.53-4.94,4.26-7.02,10.96-7.7,17.23-.77,7.04,.75,14.01,3.49,20.46,.67,1.58,2.78,2.53,4.39,2.52,3.79-.02,7.58-.04,11.37-.06l27.3-.15c11.01-.06,22.01-.12,33.02-.18,9.48-.05,18.96-.1,28.44-.15,4.62-.03,9.26,.07,13.89-.08,.06,0,.13,0,.2,0,2.74-.01,5.1-2.32,5.09-5.09-.05-8.53-.09-17.06-.14-25.58-.07-13.47-.15-26.95-.22-40.42-.02-3.08-.03-6.17-.05-9.25-.01-2.66-2.33-5.21-5.09-5.09s-5.1,2.24-5.09,5.09c.05,8.53,.09,17.06,.14,25.58,.07,13.47,.15,26.95,.22,40.42,.02,3.08,.03,6.17,.05,9.25l5.09-5.09c-3.79,.02-7.58,.04-11.37,.06l-27.3,.15c-11.01,.06-22.01,.12-33.02,.18-9.48,.05-18.96,.1-28.44,.15-4.61,.02-9.28-.15-13.89,.08-.06,0-.13,0-.2,0l4.39,2.52c.43,1.02-.3-.84-.38-1.05-.22-.63-.43-1.26-.62-1.9-.38-1.28-.69-2.59-.93-3.91-.07-.37-.12-.74-.18-1.1-.14-.86,.09,1.23-.01-.2-.04-.6-.11-1.19-.14-1.79-.07-1.42-.06-2.84,.05-4.26,.03-.35,0-.78,.1-1.12-.04,.15-.18,1.13-.02,.16,.09-.53,.18-1.06,.29-1.58,.26-1.24,.6-2.47,1.04-3.66,.1-.28,.36-1.16,0-.07,.08-.24,.22-.5,.33-.71,.23-.47,.47-.93,.73-1.37,.16-.28,.34-.55,.51-.82,.16-.25,.61-1.03,0-.05,.32-.51,.85-.99,1.28-1.4,.18-.18,.38-.34,.57-.52,.81-.74-.13,.1-.13,.08-.01-.18,1.3-.84,1.42-.91,.21-.12,.43-.24,.65-.35,.33-.17,.9-.65-.04-.02,.46-.31,1.2-.44,1.74-.59,.47-.14,.95-.25,1.44-.36,.3-.06,.61-.12,.92-.17,.18-.03,1-.17,.25-.05-.86,.14,.37-.04,.45-.04,.25-.03,.5-.05,.76-.07,.63-.05,1.27-.08,1.9-.11,5.16-.19,10.28,.03,15.43-.44,11.97-1.08,23.64-3.94,35.21-7.07,5.06-1.37,10.61-2.48,14.91-5.66,4.57-3.37,6.96-8.18,9.76-12.95,.34-.58,.69-1.15,1.06-1.71,.18-.27,.37-.54,.56-.81,.08-.12,.86-1.16,.42-.58-.41,.54,.1-.12,.21-.25,.25-.3,.5-.6,.75-.89,.42-.48,.86-.95,1.31-1.41,.88-.89,1.89-2.05,2.98-2.68-.13,.07-.88,.65-.13,.1,.31-.22,.61-.45,.92-.66,.52-.36,1.04-.7,1.58-1.03,1.06-.65,2.17-1.25,3.3-1.79,.23-.11,.45-.21,.68-.31,1.04-.49-.83,.31,.16-.07,.58-.22,1.16-.44,1.75-.64,1.17-.39,2.36-.72,3.57-.98,.66-.14,1.33-.25,2-.37,.71-.13-.98,.1-.26,.03,.43-.04,.85-.09,1.28-.13,2.64-.22,5.22-2.18,5.09-5.09-.11-2.56-2.25-5.33-5.09-5.09Z"/>
  </g>
  <g>
    <path class="cls-11" d="M266.31,126.38c-9.12,.72-18.05,5.73-23.3,14.07-2.19,3.51-3.85,7.57-6.85,10.25-2.8,2.49-6.39,3.5-9.84,4.42-13.67,3.74-27.49,7.44-41.55,7.48-6.27,0-13.23-.51-18.08,3.92-3.2,2.91-4.8,7.51-5.33,12.04-.6,5.5,.36,11.12,2.52,16.11l102.8-.56-.37-67.73Z"/>
    <path class="cls-11" d="M266.31,122.26c-9.23,.79-18.12,5.04-24.05,12.27-1.57,1.92-2.92,3.94-4.13,6.1-.53,.94-1.05,1.89-1.59,2.83-.3,.52-.62,1.04-.94,1.54-.14,.22-.29,.44-.44,.66-.05,.07-.65,.88-.38,.54s-.23,.27-.3,.34c-.17,.2-.35,.39-.53,.57-.23,.23-.47,.45-.7,.68-.06,.06-.6,.5-.13,.13-.9,.69-1.94,1.24-2.98,1.71-.62,.28,.51-.19-.13,.05-.31,.12-.63,.24-.95,.34-.51,.17-1.02,.34-1.53,.49-1.15,.34-2.32,.64-3.47,.96-5.36,1.46-10.73,2.9-16.16,4.11-5.32,1.18-10.37,2.09-15.48,2.55s-9.7,.16-14.56,.42-9.88,1.45-13.79,4.81c-4.37,3.75-6.23,9.67-6.83,15.21-.68,6.25,.65,12.45,3.08,18.19,.54,1.28,2.25,2.05,3.56,2.04,3.41-.02,6.82-.04,10.23-.06,8.19-.04,16.38-.09,24.57-.13,9.86-.05,19.73-.11,29.59-.16,8.57-.05,17.14-.09,25.71-.14,4.17-.02,8.35,.07,12.52-.07,.06,0,.12,0,.18,0,2.22-.01,4.13-1.88,4.12-4.12-.04-7.64-.08-15.29-.12-22.93l-.2-36.5c-.01-2.77-.03-5.53-.04-8.3-.01-2.15-1.89-4.22-4.12-4.12s-4.13,1.81-4.12,4.12c.04,7.64,.08,15.29,.12,22.93l.2,36.5c.01,2.77,.03,5.53,.04,8.3l4.12-4.12c-3.41,.02-6.82,.04-10.23,.06-8.19,.04-16.38,.09-24.57,.13-9.86,.05-19.73,.11-29.59,.16-8.57,.05-17.14,.09-25.71,.14-4.15,.02-8.37-.17-12.52,.07-.06,0-.12,0-.18,0l3.56,2.04c.2,.48-.07-.2-.09-.24-.1-.28-.21-.55-.31-.83-.2-.56-.38-1.12-.55-1.69-.36-1.21-.65-2.44-.86-3.68-.01-.08-.16-.98-.1-.55s-.06-.48-.06-.56c-.05-.52-.1-1.04-.12-1.56-.07-1.34-.06-2.69,.05-4.02,.02-.22,.05-.45,.06-.67,.04-.74-.11,.55,.01-.13,.09-.53,.18-1.06,.29-1.59,.24-1.12,.58-2.2,.94-3.29,.04-.11,.29-.73,.03-.12,.1-.24,.22-.48,.33-.72,.23-.47,.48-.93,.75-1.37,.14-.22,.28-.43,.42-.65,.07-.11,.47-.61,.05-.09,.32-.4,.67-.77,1.03-1.13,.13-.12,1.26-1.01,.65-.59,.41-.28,.83-.56,1.28-.8,.17-.09,1.46-.65,.7-.36,.52-.2,1.05-.37,1.59-.52,.48-.13,.97-.24,1.46-.34,.25-.05,.5-.08,.74-.13,.64-.13-.63,.05,.03,0,1.08-.1,2.16-.19,3.25-.22,4.72-.14,9.4,.01,14.11-.44,10.62-1.03,20.98-3.59,31.25-6.37,4.54-1.23,9.39-2.26,13.22-5.13s6-7.25,8.44-11.4c.3-.51,.62-1.02,.95-1.52,.15-.22,.29-.43,.44-.65,.02-.03,.76-1.03,.29-.41,.71-.91,1.48-1.77,2.3-2.59s1.66-1.56,2.55-2.29c-.13,.11-.58,.43,.06-.05,.25-.19,.51-.37,.77-.55,.46-.32,.93-.63,1.41-.93,.95-.59,1.94-1.13,2.95-1.61,.22-.11,.45-.21,.68-.31,1.1-.5-.75,.27,.39-.16,.46-.17,.92-.35,1.39-.5,1.11-.37,2.24-.68,3.38-.92,.54-.11,1.08-.21,1.63-.3,.17-.03,.8-.07,0,0,.36-.03,.73-.08,1.09-.11,2.14-.18,4.23-1.76,4.12-4.12-.09-2.07-1.82-4.32-4.12-4.12Z"/>
  </g>
  <text class="cls-4" transform="translate(248.29 179.41) rotate(179.69) scale(1 -1)"><tspan x="0" y="0">Lorem ipsum</tspan></text>
  <text class="cls-5" transform="translate(250.67 179.4) rotate(-90.31) scale(1 -1)"><tspan x="0" y="0">Lorem ipsum</tspan></text>
  <g>
    <path class="cls-2" d="M256.43,6.15c-1.17,1.71-2.43,3.24-3.6,4.91-7.95,11.26-12.18,29-22.23,35.49-4.53,2.93-9.63,3.06-14.55,3.11-13.56,.23-27.21,.41-40.62-2.7-10.11-2.3-20.22-6.49-30.45-5.31-9.75,1.13-20.28,6.94-28.83-.27-2.1-1.76-4.05-4.64-4.17-8.29-.09-2.16,.51-4.28,1.23-6.22,1.89-5.18,4.5-9.77,7.62-13.42,17.28,.95,34.59,2.57,51.84,1.17,14.16-1.17,28.2-4.28,42.33-6.12,13.77-1.76,27.6-2.3,41.43-2.34Z"/>
    <path class="cls-2" d="M251.71,3.39c-1.81,2.61-3.82,5.06-5.47,7.77-1.43,2.35-2.69,4.79-3.91,7.25-2.41,4.88-4.59,9.88-7.29,14.6-.62,1.08-1.27,2.15-1.96,3.19-.3,.46-.62,.91-.94,1.35-.24,.33-.97,1.02,.08-.07-.25,.26-.46,.58-.7,.86-.69,.82-1.43,1.61-2.22,2.34-.22,.2-.44,.4-.67,.59-.39,.33-1.08,.57,.18-.12-.59,.32-1.13,.79-1.72,1.13-.38,.22-.77,.4-1.16,.6-1.21,.63,.72-.2-.07,.03-.74,.21-1.45,.49-2.21,.67-.63,.15-1.39,.41-2.04,.39,1.42,.03,.14-.03-.2,0-.55,.05-1.1,.09-1.65,.12-3.33,.17-6.68,.15-10.01,.18-7.36,.07-14.73-.02-22.05-.78-.89-.09-1.77-.2-2.65-.31,1.3,.16-.31-.04-.48-.07-.32-.05-.64-.1-.96-.15-1.93-.3-3.86-.66-5.77-1.08-3.52-.78-6.99-1.76-10.47-2.71-6.94-1.9-14.23-3.72-21.48-3.11-3.41,.29-6.75,1.01-10.07,1.8-1.29,.31-2.58,.61-3.88,.89-.77,.16-1.54,.31-2.32,.44l-.38,.06c-.61,.09-.51,.08,.3-.03-.31,.13-.82,.09-1.14,.12-.82,.07-1.63,.1-2.45,.09-.31,0-.62-.02-.93-.04-.25-.02-.49-.04-.74-.06,.84,.12,.95,.14,.35,.04-.73-.16-1.46-.31-2.17-.54l-.36-.12c-.56-.21-.47-.18,.24,.12-.34,0-.93-.46-1.22-.63s-.57-.37-.86-.54c-.49-.35-.46-.31,.09,.11-.2-.16-.39-.32-.58-.48-.08-.07-1.41-1.44-1.39-1.45l.43,.55c-.14-.19-.27-.39-.4-.59-.23-.36-.41-.75-.62-1.12-.38-.65,.37,1.27,.04,.08-.07-.27-.54-1.26-.4-1.51l.08,.65c-.03-.28-.05-.55-.06-.83-.01-.38-.13-1.05,.03-1.38l-.08,.54c.05-.3,.1-.6,.17-.9,.11-.52,.25-1.03,.41-1.54,.29-.92,.63-1.83,.98-2.73,.08-.21,.54-1.59,.12-.32,.13-.41,.36-.8,.54-1.19,.78-1.66,1.65-3.28,2.62-4.83,.43-.69,.89-1.37,1.36-2.03,.15-.21,.94-1.34,.1-.17,.3-.42,.66-.82,.99-1.22l-3.86,1.6c17.65,.97,35.39,2.66,53.06,1.07,9.14-.83,18.19-2.36,27.24-3.86,4.37-.73,8.74-1.44,13.13-2.05,.24-.03,.49-.07,.73-.1-.08,.01-.88,.11-.23,.03,.57-.07,1.15-.15,1.72-.22,1.15-.14,2.3-.27,3.44-.39,2.13-.23,4.27-.43,6.4-.61,10.01-.83,20.06-1.12,30.11-1.16,2.85-.01,5.59-2.5,5.46-5.46s-2.4-5.47-5.46-5.46c-12.35,.05-24.72,.48-37,1.82s-24.97,3.88-37.49,5.64c-1.57,.22,.71-.09-.25,.03-.41,.05-.81,.11-1.22,.16-.65,.08-1.3,.16-1.95,.24-1.62,.19-3.25,.36-4.88,.5-3.11,.28-6.24,.45-9.36,.54-6.09,.18-12.18,.06-18.27-.19s-12.52-.68-18.77-1.06c-1.48-.09-2.96-.18-4.44-.26-.65-.04-1.32-.13-1.97-.11-1.89,.05-3.34,.94-4.48,2.35-1.79,2.22-3.43,4.54-4.81,7.04-3.09,5.63-5.95,12.25-4.64,18.78,1.22,6.07,6.04,10.55,11.58,12.81,5.2,2.12,11.02,1.45,16.37,.33,2.47-.52,4.9-1.16,7.37-1.68,.51-.11,1.03-.21,1.54-.31,.35-.06,2.46-.56,.85-.17,1.33-.33,2.91-.26,4.27-.25s2.74,.1,4.11,.25c.31,.03,1.35,.09,.14,0,.3,.02,.62,.09,.91,.14,.76,.12,1.52,.26,2.27,.42,2.9,.58,5.77,1.35,8.62,2.13,5.77,1.58,11.53,3.09,17.47,3.91,12.13,1.69,24.53,1.79,36.75,1.29,2.88-.12,5.85-.41,8.62-1.26,3.04-.93,5.66-2.43,8.13-4.41,3.37-2.7,5.97-6.41,8.15-10.1,4.57-7.75,7.56-16.35,12.46-23.92,1.44-2.23,3.13-4.28,4.64-6.46,1.63-2.35,.51-6.16-1.96-7.47-2.78-1.47-5.73-.55-7.47,1.96Z"/>
  </g>
  <g>
    <path class="cls-11" d="M248.93,4.72c-1.05,1.54-2.19,2.92-3.24,4.42-7.15,10.13-10.96,26.1-20.01,31.94-4.08,2.63-8.67,2.76-13.09,2.8-12.2,.2-24.49,.36-36.56-2.43-9.1-2.07-18.2-5.84-27.4-4.78-8.78,1.01-18.25,6.24-25.95-.24-1.89-1.58-3.64-4.18-3.75-7.46-.08-1.95,.46-3.85,1.11-5.59,1.7-4.66,4.05-8.8,6.86-12.08,15.55,.85,31.13,2.31,46.66,1.05,12.74-1.05,25.38-3.85,38.1-5.51,12.39-1.58,24.84-2.07,37.29-2.11Z"/>
    <path class="cls-11" d="M245.07,2.47c-1.59,2.3-3.37,4.45-4.83,6.84-1.27,2.08-2.4,4.24-3.49,6.43-2.14,4.33-4.08,8.76-6.45,12.97-.56,.99-1.14,1.97-1.76,2.92-.3,.46-.61,.92-.93,1.36-.16,.22-.33,.43-.48,.65-.2,.26-.13,.17,.21-.27-.13,.17-.26,.33-.4,.49-.62,.75-1.28,1.47-2,2.13-.16,.15-.79,.9-1.01,.88l.44-.34c-.16,.12-.31,.23-.47,.34-.28,.2-.57,.39-.87,.56-.25,.15-.51,.3-.78,.44-.05,.02-1.35,.59-.52,.27-.66,.25-1.34,.47-2.03,.64-.61,.15-1.23,.26-1.86,.37-.78,.14,1.05-.07-.27,.03-.42,.03-.84,.07-1.25,.1-3.09,.19-6.21,.16-9.3,.19-6.51,.07-13.04,0-19.52-.65-.8-.08-1.6-.17-2.4-.27-.94-.11-.46-.06-.25-.03-.48-.06-.96-.14-1.44-.21-1.6-.25-3.2-.54-4.78-.87-3.16-.67-6.28-1.54-9.39-2.4-6.23-1.71-12.73-3.4-19.25-2.98-2.96,.19-5.87,.79-8.75,1.47-1.3,.31-2.59,.62-3.9,.9-.64,.14-1.29,.27-1.94,.38-.32,.06-.65,.1-.97,.16-.33,.05-.26,.04,.23-.03-.26,.03-.51,.06-.77,.08-1.38,.13-2.77,.15-4.15-.02,1,.12,.15,0-.1-.06-.43-.09-.85-.2-1.27-.33-.24-.08-.48-.17-.72-.25,.91,.33-.15-.09-.34-.19-.36-.19-.7-.39-1.04-.62-.06-.04-1.03-.82-.45-.31-.51-.45-.98-.92-1.42-1.44,.12,.14,.48,.73,.06,.04-.22-.37-.42-.77-.65-1.12-.36-.55,.26,.94-.07-.17-.12-.38-.22-.76-.32-1.15-.28-1.13-.09,.43-.03-.25,.05-.51-.02-1.04,.03-1.55-.02,.21-.16,.75,.04-.13,.11-.5,.23-1,.38-1.5,.23-.77,.51-1.53,.81-2.28-.04,.11,.51-1.25,.28-.7-.11,.26-.07,.17,.12-.28,.12-.27,.24-.53,.36-.8,.67-1.42,1.41-2.8,2.23-4.13,.43-.7,.89-1.39,1.37-2.06,.16-.22,.32-.44,.48-.65-.56,.74,.44-.52,.55-.65l-3.16,1.31c16.01,.88,32.09,2.41,48.11,.93,8.16-.76,16.25-2.14,24.33-3.48,3.85-.64,7.7-1.26,11.57-1.81,1.58-.22-.84,.1,.74-.1,.49-.06,.98-.12,1.47-.18,.98-.12,1.96-.23,2.94-.33,1.96-.21,3.92-.39,5.88-.56,8.98-.74,17.99-1,27-1.03,2.34,0,4.57-2.05,4.47-4.47s-1.96-4.48-4.47-4.47c-11.14,.04-22.29,.43-33.37,1.64-11.17,1.22-22.18,3.47-33.3,5.01-.08,.01-1.07,.14-.61,.08s-.53,.07-.61,.08c-.72,.09-1.45,.18-2.17,.27-1.37,.16-2.74,.3-4.11,.43-2.79,.25-5.59,.42-8.4,.51-5.54,.18-11.09,.08-16.63-.16s-11.26-.6-16.88-.95c-1.32-.08-2.65-.16-3.97-.24-.86-.05-1.72-.15-2.58-.03-1.31,.18-2.26,.84-3.07,1.83-1.63,2-3.11,4.11-4.35,6.38-2.68,4.91-5.14,10.6-4.14,16.28,.95,5.39,5.28,9.5,10.2,11.46,4.54,1.81,9.54,1.29,14.2,.32,2.22-.46,4.41-1.03,6.62-1.51,1.03-.22,2.05-.41,3.09-.57,.7-.11-.79,.05,0,0,.38-.02,.77-.07,1.15-.1,.69-.04,1.38-.06,2.07-.06,1.23,0,2.45,.08,3.67,.22,.1,.01,1.04,.13,.55,.06s.45,.07,.55,.09c.76,.12,1.53,.27,2.29,.42,2.53,.52,5.03,1.19,7.52,1.87,5.24,1.44,10.45,2.79,15.84,3.54,10.88,1.52,22.05,1.6,33.02,1.13,5.46-.24,10.47-1.57,14.75-5.07,2.95-2.42,5.23-5.67,7.16-8.94,4.1-6.96,6.78-14.68,11.18-21.47,1.3-2.01,2.82-3.86,4.19-5.82s.42-5.04-1.6-6.11c-2.28-1.2-4.69-.45-6.11,1.6Z"/>
  </g>
  <text class="cls-1" transform="translate(130.12 31.72) rotate(-.31)"><tspan x="0" y="0">https://HugoBlin.fr</tspan></text>
  <path class="cls-13" d="M98.84,78.84c.27-.64,.43-1.6,.98-1.91l-8.14,.96c2.44,.06,4.8-.1,7.11,.96,0,0,.05-.02,.05-.02Z"/>
  <path class="cls-9" d="M86.85,78.47l-10.39,1.23c.68,0,1.37,.04,2.07,.17,2.88,.55,5.52-.63,8.31-1.4Z"/>
  <path class="cls-13" d="M54.69,83.12c2.39-1.29,4.8-1.71,7.53-1.16,4.06,.81,7.77-1.19,11.68-1.96l-22.18,2.62c.47,.08,.95,.24,1.45,.51,.4,.21,1.11,.21,1.51-.01Z"/>
  <path class="cls-10" d="M253.15,58.84c.81,.03,1.62,.21,2.47,.71,.38,.22,.76,.18,1.14,.06l.05-1.2-3.66,.43Z"/>
  <path class="cls-13" d="M105.69,76.79c1.75,.33,3.79-2.39,5.26,.52,.41,.13,.83,.25,1.24,.38,.25-.57,.43-1.27,1.16-1.34,3.82-.36,7.5-1.96,11.44-1.3,.3-.37,.6-.76,.93-1.17l-25.29,2.99c.11,.02,.21,.04,.34,.1,1.8,.81,3.32-.47,4.92-.17Z"/>
  <path class="cls-13" d="M176.53,67.88l-.9,.11c.2,.25,.39,.54,.58,.94,.1-.39,.21-.73,.32-1.05Z"/>
  <path class="cls-12" d="M154.49,70.48l-8.15,.96c.67,.1,1.34,.17,2.01,.15,2.05-.06,4.43,.42,6.14-1.11Z"/>
  <path class="cls-13" d="M15.3,87.84s.04,0,.06,.01v-.95h-.06v.94Z"/>
  <path class="cls-13" d="M15.3,87.84v-.93h-.08s0,.91,0,.91c.03,0,.05,.01,.08,.02Z"/>
  <line class="cls-13" x1="15.23" y1="87.82" x2="15.22" y2="86.92"/>
  <path class="cls-13" d="M.11,89.99c.43,.11,16.12-1.8,16.55-1.69,.3-.45,.7-.95,1.25-.74,1.84,.72,3.57,1.09,5.19-.52,.2-.2,.96,.17,1.46,.28,0,0,.07-.04,.07-.04,0,0,0,0,0,0,.28-.33,.47-.95,.67-1.56L.11,88.59"/>
  <path class="cls-13" d="M28.83,89.12s0,0,0,0c-1.37-.6-2.75-1.2-4.12-1.8,1.37,.6,2.75,1.2,4.12,1.8Z"/>
  <path class="cls-13" d="M34.38,86.32c3.47-1.23,7.2-.64,10.49-2.18,1.09,.57,2.13,.19,2.99-.39,.54-.37,1.08-.66,1.62-.87l-21.42,2.53c2.27,2.29,5.12,1.34,6.31,.91Z"/>
  <path class="cls-12" d="M138.4,73.52c-.06-.43-.11-.79-.15-1.12l-1.95,.23c.69,.14,1.38,.42,2.08,.89,0,0,.02,0,.02,0Z"/>
  <path class="cls-12" d="M212.6,65c.76-.77,1.58-1.29,2.43-1.67l-5.74,.68c.23,.18,.46,.38,.67,.68,.87,.23,1.68,.94,2.64,.31Z"/>
  <path class="cls-13" d="M193.75,65.97c.04-.05,.08-.08,.12-.13l-1.11,.13c.33,0,.66,0,.99,0h0Z"/>
  <path class="cls-10" d="M234.58,62.53s.14-.05,.14-.05c2.21-1.77,5.04-1.55,7.56-2.33,.08-.03,.33,.47,.51,.72,.69,.23,1.37,.61,2.08,.07,.2-.24,.42-.71,.59-.69,1.96,.2,3.83-.73,5.75-1.19l-22.09,2.61c.31,.1,.62,.25,.91,.5,1.54-.17,3.11-.67,4.56,.36Z"/>
  <path class="cls-13" d="M130.97,73.71c.49-.24,.98-.44,1.46-.62l-4.61,.54c.26,1.66,2,.63,3.15,.08Z"/>
  <path class="cls-9" d="M144.07,117.07l2.99-.35c-.83-.04-1.64-.21-2.45-.66-.15,.38-.31,.74-.54,1.01Z"/>
  <path class="cls-10" d="M246.01,104.53c-.23-.06-.59,.19-.82,.38-.26,.21-.53,.36-.8,.53l5.47-.63c-1.24,.12-2.52,.07-3.85-.28Z"/>
  <path class="cls-11" d="M231.95,85.96c3.49,1.2,7.07,1.59,10.69,.02,1.91-.83,4.14-.57,6.29,.07,2.42,.73,19.53-2.71,21.9-2.83l-.03-2.23-40.1,4.68c.41,.06,.82,.14,1.25,.29Z"/>
  <path class="cls-11" d="M117.17,100.83c7.93-.48,15.73-2.21,23.58-3.35,9.74-1.42,19.67-1.47,29.51-2.2,3.12-.23,5.99-1.67,9.27-1.63,4.08,.06,8.12-.79,12.14-1.98,1.93-.58,4.43,.24,6.76-.24,4.56-.95,9.17-1.71,13.8-2.21,1.44-.16,2.17-.71,2.63-1.64l-111.21,13.44c4.51,2.28,9.03,.07,13.51-.2Z"/>
  <path class="cls-11" d="M52.2,107.93c4.74,2.29,9.52,.79,14.32,.26,2.44-.27,4.76-1.72,7.33-.78,.38,.14,.85,.23,1.23,.14,7.54-1.76,15.33-2.25,22.76-4.45,1.79-.53,4.47,.98,5.3-2.01l-52.69,6.37c.33,.11,.66,.24,1,.43,.25,.01,.5,.03,.74,.04Z"/>
  <path class="cls-11" d="M15.3,115.08s.04,0,.06,0v-3.37s-.06,0-.06,0v3.37Z"/>
  <polygon class="cls-11" points="15.36 112.76 15.36 111.7 15.36 111.7 15.36 112.76"/>
  <path class="cls-11" d="M15.36,115.07s0,0,.01,0v-2.31s-.01,2.31-.01,2.31Z"/>
  <path class="cls-11" d="M.09,114.77l15.29,.3c2.42-.22,4.81-.72,7.18-1.4,.7-.2,1.53-.47,2.17-.28,2.74,.8,5.18,.02,7.62-1.1,5.38-2.49,11.25-2.55,16.99-3.18,1.07-.12,1.84-.06,2.12-1.23h0c-.33-.19-.67-.32-1-.43L.11,113.57"/>
  <path class="cls-9" d="M41.76,91.45c.18-.42,.43-.56,.71-.57-.28,0-.53,.15-.71,.56-.05,.48-.01,.9,.17,1.25-.18-.35-.22-.77-.17-1.25Z"/>
  <path class="cls-9" d="M207.42,65.78s.03-.01,.07-.03c-.03,.01-.07,.03-.07,.03h0Z"/>
  <path class="cls-10" d="M15.3,92.53h0s.04-.02,.06-.03h0s-.04,.02-.06,.03Z"/>
  <path class="cls-9" d="M15.3,92.53h0s-.03,.02-.05,.03h0s.03-.02,.05-.03Z"/>
  <path class="cls-9" d="M15.36,92.5c.44-.23,.89-.45,1.33-.68,.86,.2,1.29,.67,1.55,1.27-.26-.6-.69-1.06-1.55-1.27-.45,.23-.89,.45-1.34,.68h0Z"/>
  <path class="cls-9" d="M193.34,67.19c-.14,.14-.29,.25-.45,.34,.16-.09,.3-.2,.45-.34,2.7,.28,5.37,.33,8,.02-2.64,.31-5.31,.26-8.01-.02Z"/>
  <path class="cls-9" d="M67.02,83.7c-.37,.15-.66,.53-.96,.86,.3-.33,.58-.71,.96-.86Z"/>
  <path class="cls-9" d="M97.33,82.26c-.33-.17-.7-.32-1.12-.43h0c.42,.11,.8,.26,1.12,.43Z"/>
  <path class="cls-9" d="M94.47,83.4c.43-.47,.76-1.14,1.24-1.53,.17-.01,.33-.03,.5-.04-.17,.01-.33,.03-.5,.04-.49,.38-.81,1.06-1.24,1.53Z"/>
  <path class="cls-9" d="M201.66,107.91c.59,.22,1.18,.43,1.77,.65,.08,.17,.16,.3,.25,.42-.09-.11-.18-.25-.25-.42-.59-.22-1.18-.43-1.77-.65Z"/>
  <path class="cls-9" d="M35.39,89.14c.22,.78,.38,1.58,.62,2.39-.24-.81-.4-1.61-.62-2.39h0Z"/>
  <polygon class="cls-6" points="15.33 106.6 15.3 101.77 15.3 106.6 15.33 106.6"/>
  <path class="cls-6" d="M228.01,73.6c-2.03,.27-4.06,.49-6.1,.72v4.55l48.89-4.02v-4.76c-1.75,.21-17.94,.12-19.69,.33-7.72,.92-15.4,2.16-23.11,3.19Z"/>
  <path class="cls-6" d="M15.3,101.77l.03,4.83h.03v-6.14s-.04,0-.06,0v1.32Z"/>
  <polygon class="cls-6" points="15.3 101.77 15.3 100.45 15.3 100.45 15.3 101.77"/>
  <path class="cls-6" d="M.11,108.85l221.8-29.97v-4.55c-3.6,.39-7.19,.78-10.75,1.39-11.19,1.93-22.52,2.7-33.74,4.43-6.13,.94-12.33,1.48-18.45,2.4-6.34,.96-12.73,1.58-19.07,2.64-9.62,1.61-19.37,2.5-29.06,3.72-2.93,.37-5.84,.88-8.78,1.16-.43,.04-.85,.1-1.21,.04l-2.63,.32c-.21,.37-.8,.49-1.35,.47-4.3-.12-8.46,1.59-12.82,1.23l-4.23,.51c.08,.09,.14,.16,.23,.26-1.95,1.25-4.11,.2-6.19,.5-6.64,.97-13.2,2.62-19.99,2.5-.6-.01-1.22,.11-1.76,.07l-5.29,.63c-.38,.28-.81,.51-1.33,.62-2.82,.56-5.76,.53-8.65,.7-.17,.01-.34-.02-.5-.06l-3.95,.47c-.38,.73-1.18,.83-2.06,.62-1.07-.25-2.02,.05-3.04,.44-2.43,.92-4.34,1.01-5.76,.25l-4.91,.59c-.31,.23-.82,.31-1.32,.22,0,0,5.74-.81,2.8-.73-4.36,.12-17.98,1.13-17.99,1.13"/>
  <polygon class="cls-6" points="15.3 111.71 15.36 111.7 15.33 106.6 15.3 106.6 15.3 111.71"/>
  <path class="cls-6" d="M221.91,86.64c1.4-.3,2.79-.65,4.19-.8,1.59-.17,3.04-.42,4.6-.17l40.1-4.68v-6.14l-48.89,4.02v7.77Z"/>
  <polygon class="cls-6" points="15.36 111.7 15.36 111.7 15.36 106.59 15.33 106.6 15.36 111.7"/>
  <path class="cls-6" d="M.11,113.57l50.35-6.11c-1.14-.36-2.26-.28-3.39-.05-.37,.08-.74,.16-1.11,.25,.37-.09,.74-.18,1.11-.25,1.12-.23,2.25-.32,3.39,.05l52.69-6.37s.03-.05,.03-.09h0c-.75-.15-1.49-.2-2.23-.19-.1,0-.2,.01-.3,.01-.64,.02-1.29,.08-1.93,.17-1.04,.14-2.08,.32-3.12,.51,1.04-.19,2.08-.37,3.12-.51,.64-.09,1.28-.15,1.93-.17,.1,0,.2-.01,.3-.01,.74-.01,1.48,.04,2.23,.19l.06-.03c.06-.03,.15-.06,.15-.06,.09,.05,.18,.07,.26,.11l111.21-13.44c.14-.28,.26-.59,.36-.94-2.14-.35-4.26-.82-6.4-.47,2.14-.35,4.26,.12,6.4,.47,0,0,.21-.1,.21-.1,1.27,.5,2.52,.6,3.75,.52,.58-.04,1.16-.11,1.74-.21,.33-.06,.66-.14,.99-.21v-7.77L.09,108.34"/>
  <path class="cls-11" d="M15.3,121.25v5.23s.04,0,.06,0v-5.23s-.04,0-.06,0Z"/>
  <path class="cls-11" d="M250.96,89.87c-.2-.09-.38-.14-.57-.21l-2.69,.36c-.15,.12-.31,.21-.46,.38-.52,.58-1.26,.96-2.01,.62-.85-.39-1.66-.41-2.47-.34l-1.27,.17c-.8,.17-1.61,.36-2.42,.41-2.43,.15-4.78,.77-7.25,.88l-9.92,1.33v5.92c.62-.13,1.24-.27,1.84-.47,3.58-1.16,7.45-1.59,10.97-1.76,6.93-.33,29.25-2.05,36.12-2.71v-6.79c-.46,.15-16.22,1.57-16.65,1.76-1.24,.55-2.17,.94-3.24,.43Z"/>
  <path class="cls-11" d="M130.35,105.77l-106.39,14.28c-1.43,.83-2.88,1.65-4.91,1.37-1.2-.16-2.42-.18-3.64-.16l.03,5.22c5.39-.63,10.8-1.17,15.93-3.32,1.21-.51,2.82-1.09,4.2-.89,4.77,.69,9.41-.13,14.09-.8,2.11-.3,4.34-1.47,6.13-1.22,3.76,.52,7.25-.64,10.85-.83,2.75-.15,5.73,.41,8.22-.39,3.86-1.25,7.89-1.51,11.7-1.84,6.91-.6,13.45-2.81,20.43-3.29,6.47-.44,13.14-.6,19.56-2.13,4.85-1.15,9.87-1.37,14.7-2.71,2.61-.73,5.51-1.68,8.03-1.22,4.05,.74,7.77-.51,11.6-.84,3.88-.33,7.41-3.25,11.61-1.98,4.19,1.27,8.15-2.81,12.38-.47,.18,.1,.64-.13,.85-.33,2.56-2.46,6.53-.26,9.06-2.75,6.96,.78,13.66-1.73,20.64-1.59,2.05,.04,4.33-.04,6.49-.48v-5.92l-88.69,11.9c-.86,.65-1.84,.65-2.88,.39Z"/>
  <path class="cls-11" d="M15.36,121.25v5.23s.05,0,.07,0l-.03-5.22s-.03,0-.05,0Z"/>
  <path class="cls-11" d="M128.93,105.3c-1.23-.46-2.49-.29-3.75-.33-2.68-.09-4.87,1.74-7.72,1.43-3.78-.41-7.94-.56-11.32,1.12-4.34,2.15-8.92,1.17-13.32,2.21-7.25,1.71-14.91,.72-22.24,2.83-3.63,1.04-7.64,.39-11.36,1.82-2.34,.9-4.95-.28-7.45-.31-2.33-.02-3.59,1.59-5.67,1.83-6.53,.76-13.15,.98-19.53,2.87-.93,.28-1.76,.77-2.6,1.25l106.39-14.28c-.47-.12-.95-.28-1.43-.46Z"/>
  <path class="cls-11" d="M231.83,92.15c-.97,.05-1.95,.03-2.96-.15-2.16-.37-4.69-.48-6.95,.23v1.25l9.92-1.33Z"/>
  <path class="cls-11" d="M215.79,93.47c-.82-.19-1.58-.69-2.46-.37-4.4,1.59-8.89,2.19-13.55,1.36-.67-.12-1.55,.1-2.14,.47-1.82,1.11-3.82,1.01-5.8,1.11-1.78,.08-3.65-.25-5.32,.19-6.28,1.65-12.99,1.03-19.07,3.47-3.73,1.5-7.3-.67-11.32,.56-6.55,2.01-13.49,3.42-20.51,3.52-.55,0-1.09-.04-1.4,.48-.3,.51-.63,.87-.98,1.13l88.69-11.9v-1.25c-.56,.17-1.11,.38-1.63,.67-1.58,.86-2.94,.94-4.5,.58Z"/>
  <path class="cls-11" d="M247.7,90.02l2.69-.36c-.97-.35-1.86-.3-2.69,.36Z"/>
  <path class="cls-11" d="M241.5,90.85l-9.67,1.3c2.46-.12,4.82-.73,7.25-.88,.81-.05,1.62-.25,2.42-.41Z"/>
  <path class="cls-11" d="M250.96,89.87c1.07,.52,2.08,.61,3.32,.06,.43-.19,.87-.37,1.33-.52l.02-.45-5.24,.7c.19,.07,.37,.12,.57,.21Z"/>
  <path class="cls-11" d="M245.23,91.02c.74,.34,1.49-.04,2.01-.62,.15-.17,.31-.26,.46-.38l-4.93,.66c.81-.07,1.62-.05,2.47,.34Z"/>
  <path class="cls-11" d="M133.23,105.38l-2.88,.39c1.03,.26,2.02,.26,2.88-.39Z"/>
  <path class="cls-11" d="M15.3,121.2v.05s.04,0,.06,0v-.06h-.06Z"/>
  <path class="cls-11" d="M14.91,121.26c.13,0,.26,0,.4,0v-.05l-.4,.05Z"/>
  <path class="cls-11" d="M15.36,121.25s.03,0,.05,0v-.07s-.05,0-.05,0v.06Z"/>
  <path class="cls-11" d="M19.05,121.41c2.03,.28,3.48-.54,4.91-1.37l-8.55,1.15v.07c1.22-.02,2.44,0,3.64,.16Z"/>
  <path class="cls-11" d="M248.8,85.21c-2.2-.4-4.25-.05-6.16,.77-3.62,1.57-7.2,1.18-10.69-.02-.43-.15-.84-.22-1.25-.29l-8.79,1.06v5.49c2.27-.7,4.8-.6,6.95-.23,1.01,.17,1.99,.19,2.96,.15l9.67-1.3,1.27-.17,4.93-.66c.83-.66,1.72-.71,2.71,.25l20.44-2.58-.02-4.47c.66-.62-19.22,2.49-22.04,1.99Z"/>
  <path class="cls-11" d="M15.3,121.2h.06v-6.13s-.04,0-.06,0v6.13Z"/>
  <path class="cls-11" d="M15.36,121.2h.05s-.03-6.12-.03-6.12c0,0,0,0-.01,0v6.12Z"/>
  <path class="cls-11" d="M.11,120.4l15.3,.78,8.55-1.15c.84-.49,1.67-.97,2.6-1.25,6.38-1.89,13-2.12,19.53-2.87,2.08-.24,3.34-1.85,5.67-1.83,2.51,.02,5.11,1.21,7.45,.31,3.72-1.44,7.73-.78,11.36-1.82,7.33-2.11,14.99-1.11,22.24-2.83,4.4-1.04,8.98-.06,13.32-2.21,3.38-1.68,7.54-1.53,11.32-1.12,2.85,.31,5.04-1.52,7.72-1.43,1.27,.04,2.52-.13,3.75,.33,.48,.18,.96,.34,1.43,.46l2.88-.39c.35-.26,.68-.62,.98-1.13,.31-.53,.85-.48,1.4-.48,7.02-.1,13.96-1.51,20.51-3.52,4.03-1.24,7.59,.93,11.32-.56,6.08-2.44,12.79-1.82,19.07-3.47,1.67-.44,3.54-.1,5.32-.19,1.98-.09,3.98,0,5.8-1.11,.6-.36,1.47-.59,2.14-.47,4.66,.84,9.15,.23,13.55-1.36,.88-.32,1.65,.18,2.46,.37,1.56,.36,2.92,.29,4.5-.58,.52-.28,1.07-.49,1.63-.67v-5.49l-.99,.12c-.58,.1-1.16,.17-1.74,.21l-4.33,.52c-.46,.92-1.19,1.48-2.63,1.64-4.63,.5-9.24,1.26-13.8,2.21-2.33,.48-4.83-.33-6.76,.24-4.02,1.2-8.06,2.04-12.14,1.98-3.29-.04-6.15,1.4-9.27,1.63-9.84,.73-19.78,.78-29.51,2.2-7.85,1.14-15.65,2.87-23.58,3.35-4.48,.27-9,2.47-13.51,.2l-.51,.06c-.83,2.99-3.51,1.48-5.3,2.01-7.44,2.2-15.23,2.69-22.76,4.45-.38,.09-.85,0-1.23-.14-2.58-.93-4.89,.52-7.33,.78-4.79,.52-9.58,2.02-14.32-.26-.25-.01-.5-.03-.74-.04-.28,1.17-1.04,1.11-2.12,1.23-5.73,.63-11.6,.69-16.99,3.18-2.44,1.13-4.88,1.91-7.62,1.1-.65-.19-1.47,.08-2.17,.28-2.38,.68-4.76,1.18-7.18,1.4l-15.29-.3"/>
  <path class="cls-6" d="M230.7,85.67c-1.55-.24-3.01,0-4.6,.17-1.4,.15-2.79,.5-4.19,.8v.09l8.79-1.06Z"/>
  <path class="cls-6" d="M221.91,86.74v-.09c-.33,.07-.66,.15-.99,.21l.99-.12Z"/>
  <path class="cls-11" d="M103.39,100.92s-.09,.03-.15,.06l-.06,.03s-.03,.05-.03,.09l.51-.06c-.09-.04-.18-.06-.26-.11Z"/>
  <path class="cls-6" d="M215.43,86.55l-.21,.1h0c-.1,.35-.22,.66-.36,.94l4.33-.52c-1.24,.08-2.49-.02-3.75-.52Z"/>
  <polygon class="cls-11" points="215.43 86.55 215.23 86.65 215.22 86.65 215.22 86.65 215.43 86.55"/>
  <path class="cls-11" d="M51.45,107.89c.25,.01,.5,.03,.74,.04-.25-.01-.5-.03-.74-.04,0,0,0,0,0,0Z"/>
  <path class="cls-2" d="M102.07,90.08c2.94-.29,5.85-.79,8.78-1.16l-9.99,1.2c.36,.06,.78,0,1.21-.04Z"/>
  <path class="cls-11" d="M239.95,102.2c-2.98,.59-6.26,.47-8.87,1.54-3.09,1.28-6.09,1.55-9.17,1.55v2.76l22.47-2.6c.27-.17,.54-.32,.8-.53,.23-.19,.6-.44,.82-.38,1.33,.34,2.6,.39,3.85,.28l.42-.05c1.63-.2,19-1.38,20.57-1.89v-3.95c2.06-.14-15.08,.85-18.26,1.18-4.17,.42-8.45,1.27-12.64,2.1Z"/>
  <path class="cls-11" d="M219.72,105.26c-1.45,1.7-2.9,2.3-5.47,2.39-2.65,.1-5.83-.58-8.42,1.25-.34,.24-.78,.48-1.22,.5-.22,.01-.44-.03-.64-.17-.1-.07-.2-.15-.29-.26-.09-.11-.18-.25-.25-.42-.59-.22-1.18-.43-1.77-.65-.47,1.53-1.63,2.09-3.11,2.27-1.47,.18-2.91,.57-4.38,.66-.63,.04-1.22,.31-1.79,.64l29.54-3.42v-2.76c-.73,0-1.46-.01-2.19-.03Z"/>
  <path class="cls-6" d="M244.86,60.94c-.71,.55-1.39,.16-2.08-.07-2.37,2.11-5.13,2.33-8.07,1.61,0,0-.14,.05-.14,.05-.37,.36-.76,.59-1.16,.73-.32,.11-.65,.16-.98,.18-.92,.05-1.87-.17-2.8-.25-1.81,.8-3.87,1.19-5.77,1.36-.63,.06-1.25,.09-1.83,.11-.04,0-.08,0-.12,0v2.56c.52-.07,1.03-.14,1.55-.18,3.46-.31,6.91-1.26,10.39-.7,1.29,.21,2.26-.2,3.34-.56,3.98-1.34,8.18-1.11,12.26-1.65,2.32-.31,19.15,.39,21.35-1.61,.1-.09-.11,.07,0,0v-1.72c-3.91,.47-21.96,1.56-25.94,.14Z"/>
  <path class="cls-6" d="M212.6,65c-.97,.63-1.78-.08-2.64-.31-.11,.18-.22,.37-.33,.55-.29,.35-.61,.56-.95,.64-.35,.08-.73,.03-1.14-.15,0,0-.02,0-.04,.02-.03,.01-.07,.03-.07,.03-1.14,.42-2.3,.75-3.46,1-.87,.19-1.74,.33-2.62,.43-2.64,.31-5.31,.26-8-.02-.14,.14-.29,.25-.45,.34-.16,.09-.32,.15-.49,.2-.34,.09-.7,.12-1.1,.12-3.6-.01-7.48,.06-10.66,.96-4.25,1.21-8.58,1.07-12.81,2.08-7.15,1.71-14.63,2.1-21.99,2.9-2.46,.27-5.01,.92-7.45-.27,0,0-.02,0-.02,0-3.6,2.63-7.8,2.13-11.88,2.25-1.18,.29-2.35,.58-3.53,.84-1.3,.29-2.61,.53-3.92,.72-2.26,.34-4.54,.51-6.86,.35,0,0,0,0,0,0-.41-.13-.83-.25-1.24-.38-3.94,1.26-7.84,2.87-12.11,1.53,0,0-.05,.02-.05,.02-.26,1.05-1.93,.76-1.95,2.05,3.09,1.44,6.23,.09,9.28-.11,7.63-.5,15.23-1.6,22.83-2.54,12.73-1.58,25.47-3.12,38.17-4.9,4.55-.64,9.04-1.06,13.65-1.18,6.87-.17,13.76-1.11,20.53-2.53,1.1-.23,2.1,.01,3.14,.02,5.95,.05,11.65-1.71,17.47-2.44v-2.56c-2.55,.08-5.02-.03-7.5,.79-.5,.17-1.21-.29-1.82-.46Z"/>
  <path class="cls-8" d="M251.2,59.07l1.95-.23c-.66-.02-1.31,.08-1.95,.23Z"/>
  <path class="cls-8" d="M255.62,59.54c-.84-.5-1.66-.68-2.47-.71l-1.95,.23c-1.91,.46-3.79,1.39-5.75,1.19-.17-.02-.39,.45-.59,.69,3.98,1.42,22.03,.32,25.94-.14v-2.39c-.38,.12-14.81,1.36-15.18,1.14Z"/>
  <path class="cls-6" d="M15.3,92.53s.04-.02,.06-.03v-2.25s-.04,.02-.06,.02v2.26Z"/>
  <path class="cls-6" d="M15.3,90.28s-.04,0-.06,0v2.27s.05-.02,.06-.03v-2.26Z"/>
  <path class="cls-6" d="M.11,92.04l15.25,.47c.45-.23,.89-.45,1.34-.68,3.18-.88,6.45-1.05,9.72-1.27l.21-.09s0,0,0,0c.73-.45,1.47-.9,2.2-1.35-1.37-.6-2.75-1.2-4.12-1.8-.02,0-.04-.02-.06-.03,0,0-.07,.04-.07,.04-.8,1.63-1.83,2.25-2.98,2.34-.29,.02-.58,.01-.88-.02-.03,0-.06-.01-.09-.02-.88-.12-1.8-.44-2.73-.79,0,0,0,0,0,0-.09,.17-.19,.32-.3,.43-.17,.18-.36,.29-.58,.33-.22,.04-.47,0-.76-.12,0,0-.09,.04-.09,.04-.26,.42-15.78,.85-16.05,.95"/>
  <polygon class="cls-6" points="26.42 90.56 26.62 90.47 26.63 90.47 26.62 90.47 26.42 90.56"/>
  <path class="cls-13" d="M145.85,73.79c7.36-.8,14.84-1.18,21.99-2.9,4.23-1.01,8.56-.87,12.81-2.08,3.18-.91,7.06-.98,10.66-.96,.39,0,.76-.02,1.1-.12,.17-.05,.33-.11,.49-.2,.16-.09,.3-.2,.45-.34,.14-.39,.29-.78,.43-1.17,0,0-.02-.05-.02-.05h0s0,0,0,0c-.33,0-.66,0-.99,0l-16.23,1.92c-.12,.31-.23,.65-.32,1.05-.19-.4-.38-.69-.58-.94l-21.15,2.5c-1.72,1.53-4.09,1.05-6.14,1.11-.67,.02-1.34-.05-2.01-.15l-8.09,.95c.04,.33,.09,.69,.15,1.12,2.44,1.19,4.98,.53,7.45,.27Z"/>
  <path class="cls-12" d="M73.91,79.99l2.56-.3c-.87,.01-1.72,.13-2.56,.3Z"/>
  <path class="cls-12" d="M91.06,77.88c-1.47-.07-2.85,.22-4.21,.59l4.82-.57c-.21,0-.41,0-.62-.02Z"/>
  <path class="cls-12" d="M49.49,82.88l2.24-.26c-.78-.13-1.52-.01-2.24,.26Z"/>
  <path class="cls-12" d="M44.87,84.14c-.14,.4-.27,.79-.41,1.19,3.66,1.64,7.41,.73,10.78-.46,2.47-.87,4.72-1.01,7-.58,.76,.14,1.52,.35,2.29,.62,.45-.05,.9-.09,1.35-.14,.06-.06,.12-.13,.18-.2,.3-.33,.58-.71,.96-.86,5.22-2.14,10.89-1.44,16.31-2.43,3-.55,6.05-1.12,9.04-1.71,.5-.1,.96-.18,1.38-.21,1.26-.1,2.2,.21,2.97,1.59,0,0,.12-.03,.12-.03,.02-1.28,1.69-1,1.95-2.05-2.31-1.06-4.67-.9-7.11-.96l-4.82,.57c-2.79,.77-5.43,1.94-8.31,1.4-.7-.13-1.39-.18-2.07-.17l-2.56,.3c-3.91,.78-7.62,2.78-11.68,1.96-2.74-.55-5.15-.13-7.53,1.16-.4,.22-1.11,.22-1.51,.01-.5-.27-.98-.43-1.45-.51l-2.24,.26c-.54,.21-1.08,.5-1.62,.87-.86,.59-1.9,.97-2.99,.39Z"/>
  <polygon class="cls-12" points="96.72 80.94 96.72 80.94 96.84 80.91 96.72 80.94 96.72 80.94"/>
  <path class="cls-8" d="M24.64,87.29h0s.04,.02,.06,.03c1.37,.6,2.75,1.2,4.12,1.8,.79,.19,1.57,.39,2.36,.58,.82,.79,1.51,.63,2.18,.28,.17-.09,.33-.19,.5-.28,.5-.3,.99-.59,1.53-.55h0s0,0,0,0c.05-.15,.13-.28,.24-.39,.68-1.45,2.31-1.3,3.26-1.22,1.77,.16,3.12-.39,4.36-1.25,.41-.29,.81-.61,1.21-.96,.14-.4,.27-.79,.41-1.19-3.29,1.54-7.02,.95-10.49,2.18-1.19,.42-4.04,1.38-6.31-.91l-2.75,.32c-.2,.61-.39,1.22-.67,1.56,0,0,0,0,0,0Z"/>
  <path class="cls-8" d="M24.64,87.29h0s.04,.02,.06,.03c-.02,0-.04-.02-.06-.03Z"/>
  <path class="cls-8" d="M33.86,89.69c.5-.3,.99-.59,1.53-.55h0c-.54-.04-1.04,.25-1.53,.55Z"/>
  <path class="cls-8" d="M44.87,84.14c-.14,.4-.27,.79-.41,1.19h0c.14-.4,.27-.79,.41-1.19Z"/>
  <path class="cls-13" d="M132.43,73.09l3.87-.46c-1.29-.27-2.57-.03-3.87,.46Z"/>
  <path class="cls-13" d="M126.5,75.77c4.08-.12,8.28,.38,11.88-2.25-.7-.48-1.39-.75-2.08-.89l-3.87,.46c-.48,.18-.97,.39-1.46,.62-1.15,.55-2.88,1.58-3.15-.08l-2.11,.25c-.33,.41-.63,.8-.93,1.17,.57,.24,1.14,.48,1.72,.72Z"/>
  <path class="cls-12" d="M222.03,64.67c.58-.02,1.2-.06,1.83-.11,1.9-.18,3.96-.56,5.77-1.37,.13-.34,.25-.68,.38-1.02-.29-.25-.6-.4-.91-.5l-3.96,.47c-.65,.12-1.31,.19-1.98,.23l-1.26,.15v2.15s.08,0,.12,0Z"/>
  <path class="cls-12" d="M212.6,65c.61,.17,1.32,.63,1.82,.46,2.48-.82,4.95-.71,7.5-.79v-2.15l-6.89,.81c-.85,.37-1.67,.9-2.43,1.67Z"/>
  <path class="cls-12" d="M223.87,64.56c1.9-.18,3.95-.56,5.77-1.36,0,0,0,0,0,0-1.81,.8-3.87,1.19-5.77,1.37Z"/>
  <path class="cls-12" d="M98.84,78.84c4.27,1.34,8.17-.27,12.11-1.53-1.47-2.9-3.51-.19-5.26-.52-1.6-.3-3.12,.98-4.92,.17-.13-.06-.23-.08-.34-.1l-.61,.07c-.55,.31-.71,1.26-.98,1.91Z"/>
  <path class="cls-12" d="M113.34,76.35c-.73,.07-.92,.77-1.16,1.34h0c2.32,.16,4.61-.02,6.86-.35,1.31-.2,2.62-.44,3.92-.72,1.18-.26,2.36-.55,3.53-.84-.57-.24-1.15-.48-1.72-.72-3.94-.66-7.62,.94-11.44,1.3Z"/>
  <path class="cls-12" d="M112.18,77.69h0s0,0,0,0c2.33,.16,4.61-.02,6.86-.35-2.26,.34-4.54,.51-6.86,.35Z"/>
  <path class="cls-13" d="M203.02,65.38c.88,.07,1.79,0,2.68,.05,.46,.03,.92,.11,1.36,.24,.12,.04,.25,.06,.37,.11h0s.04-.01,.07-.03c.02,0,.04-.02,.04-.02h0c.48-1.08,1.28-.82,2.1-.49,.11-.18,.22-.37,.33-.55-.21-.29-.43-.5-.67-.68l-8.02,.95s.02,.01,.03,.02c.55,.24,1.13,.35,1.72,.4Z"/>
  <path class="cls-13" d="M207.49,65.75s.04-.02,.04-.02c0,0,0,0,0,0,0,0-.02,0-.04,.02Z"/>
  <path class="cls-8" d="M242.28,60.15c-2.52,.79-5.35,.56-7.56,2.33,2.94,.72,5.69,.5,8.07-1.61-.17-.25-.42-.75-.51-.72Z"/>
  <path class="cls-8" d="M17.89,88.83c.93,.35,1.85,.67,2.73,.79,.03,0,.06,.01,.09,.02,.3,.04,.6,.05,.88,.02,1.15-.09,2.18-.71,2.98-2.34-.5-.11-1.26-.48-1.46-.28-1.63,1.61-3.35,1.24-5.19,.52-.55-.22-.95,.28-1.25,.74l.03,.04c.4,.16,.8,.33,1.2,.49Z"/>
  <path class="cls-8" d="M17.89,88.83s0,0,0,0c.93,.35,1.85,.67,2.73,.79-.88-.12-1.8-.44-2.73-.79,0,0,0,0,0,0Z"/>
  <path class="cls-13" d="M193.77,66.02c2.14,.22,4.31,.55,6.07-.89l-5.97,.71c-.04,.05-.08,.08-.12,.13l.02,.05Z"/>
  <polygon class="cls-13" points="193.75 65.97 193.77 66.02 193.75 65.97 193.75 65.97"/>
  <path class="cls-8" d="M230.02,62.17c-.13,.34-.26,.68-.38,1.02,.93,.07,1.89,.3,2.8,.25,.33-.02,.66-.07,.98-.18,.4-.14,.79-.37,1.16-.73-1.45-1.03-3.02-.53-4.56-.36Z"/>
  <path class="cls-8" d="M229.64,63.19c.93,.07,1.89,.3,2.8,.25-.92,.05-1.87-.18-2.8-.25,0,0,0,0,0,0Z"/>
  <path class="cls-13" d="M15.36,89.21v-1.35s-.04-.01-.06-.01v1.34s.04,.01,.06,.02Z"/>
  <line class="cls-13" x1="15.24" y1="89.16" x2="15.23" y2="87.82"/>
  <path class="cls-13" d="M15.3,89.19v-1.34s-.05-.01-.08-.02v1.34s.05,.02,.08,.03Z"/>
  <path class="cls-13" d="M.11,90.47c.27,.1,15.78-1.06,16.05-.95l.09-.04c.15-.38,.29-.75,.44-1.13l-.03-.04c-.43-.11-16.12,1.8-16.55,1.69"/>
  <polygon class="cls-13" points="16.16 89.51 16.25 89.48 16.25 89.47 16.16 89.51"/>
  <path class="cls-11" d="M51.45,107.89s0,0,0,0c-.33-.19-.67-.32-1-.43h0c.33,.11,.66,.24,1,.43h0Z"/>
  <path class="cls-11" d="M47.07,107.41c1.12-.23,2.24-.32,3.39,.05h0c-1.14-.36-2.26-.28-3.39-.05Z"/>
  <path class="cls-11" d="M208.82,86.18c2.14-.35,4.26,.12,6.4,.47,0,0,0,0,0,0-2.14-.35-4.26-.82-6.4-.47Z"/>
  <path class="cls-2" d="M73.87,93.4c2.08-.31,4.24,.74,6.19-.5-.08-.1-.15-.17-.23-.26l-27.72,3.33c.55,.04,1.16-.08,1.76-.07,6.79,.12,13.35-1.53,19.99-2.5Z"/>
  <path class="cls-11" d="M103.18,101.01h0c-.75-.15-1.49-.2-2.23-.19,.74-.01,1.48,.04,2.23,.19Z"/>
  <path class="cls-2" d="M27.29,99.39c1.03-.39,1.97-.69,3.04-.44,.88,.21,1.69,.11,2.06-.62l-10.86,1.31c1.42,.76,3.32,.67,5.76-.25Z"/>
  <path class="cls-6" d="M55.24,84.86c-3.37,1.19-7.12,2.1-10.78,.46h0c-.4,.34-.8,.67-1.21,.96-1.24,.86-2.59,1.41-4.36,1.25-.96-.09-2.58-.23-3.26,1.22,.95,.3,1.9,.59,2.85,.89,.26,.04,.51,.07,.77,.11,0,0,0,0,0,0,.75-.37,1.35-1.19,2.36-.8,.4,.02,.8,.04,1.21,.07,0,0,0,0,0,0,1.07-.56,2.19-.96,3.42-.88,.87,.61,1.71,.71,2.53,.59,1.37-.2,2.7-1,4.08-1.03,.38-.03,.75-.06,1.13-.1,.1,.04,.2,.08,.3,.11,2.52-.43,5.03-.86,7.55-1.29,.35-.44,.87-.55,1.39-.69,.39-.1,.77-.22,1.06-.49,.1-.09,.18-.2,.26-.33-.77-.27-1.53-.47-2.29-.62-2.28-.43-4.53-.29-7,.58Z"/>
  <path class="cls-6" d="M39.25,89.76c-.26-.04-.51-.07-.77-.11,.26,.04,.51,.07,.77,.11,0,0,0,0,0,0,0,0,0,0,0,0Z"/>
  <path class="cls-6" d="M48.78,88.73c1.37-.2,2.7-1,4.08-1.03,.38-.03,.75-.06,1.12-.1-.38,.03-.75,.06-1.13,.1-1.38,.03-2.71,.83-4.08,1.03Z"/>
  <path class="cls-6" d="M41.62,88.96c.4,.02,.8,.04,1.21,.07,0,0,0,0,0,0,0,0,0,0,0,0-.4-.02-.8-.04-1.21-.07Z"/>
  <path class="cls-6" d="M44.46,85.33h0c-.4,.34-.8,.67-1.21,.96,.41-.29,.81-.61,1.21-.96h0Z"/>
  <path class="cls-6" d="M61.83,86.42s0,0,0,0c-2.52,.43-5.03,.86-7.55,1.29,2.52-.43,5.03-.86,7.55-1.29Z"/>
  <path class="cls-2" d="M96.88,90.9c.54,.01,1.14-.11,1.35-.47l-14.17,1.7c4.36,.36,8.52-1.35,12.82-1.23Z"/>
  <path class="cls-6" d="M93.75,79.35c-.42,.03-.88,.11-1.38,.21-2.99,.59-6.04,1.16-9.04,1.71-5.42,.99-11.09,.29-16.31,2.43-.37,.15-.66,.53-.96,.86-.06,.07-.12,.14-.18,.2,1.02,.19,2.04,.37,3.05,.56,4.23-2.21,9.01-1.09,13.49-2.2,4.27-1.06,8.85-.89,13.29-1.25,.17-.01,.33-.03,.5-.04h0c.17-.3,.34-.59,.51-.89-.77-1.38-1.71-1.69-2.97-1.59Z"/>
  <path class="cls-6" d="M93.75,79.35c1.26-.1,2.2,.21,2.97,1.59,0,0,0,0,0,0-.77-1.38-1.71-1.69-2.97-1.59Z"/>
  <path class="cls-2" d="M45.5,97.22c.52-.1,.95-.34,1.33-.62l-10.48,1.26c.16,.05,.33,.07,.5,.06,2.89-.18,5.83-.14,8.65-.7Z"/>
  <path class="cls-2" d="M43.93,89.63c-.39-.15-.74-.4-1.1-.61,0,0,0,0,0,0,.37,.2,.72,.46,1.1,.61Z"/>
  <path class="cls-2" d="M15.3,100.45s.04,0,.06,0v-.07h-.06v.07Z"/>
  <path class="cls-2" d="M15.3,100.39l-.36,.04c.12,0,.25,0,.36,.01v-.06Z"/>
  <polygon class="cls-2" points="15.3 100.45 15.3 100.45 15.3 100.39 15.3 100.39 15.3 100.45"/>
  <path class="cls-2" d="M15.4,100.45c.5,.1,.91,0,1.23-.22l-1.26,.15v.07s.02,0,.03,0Z"/>
  <path class="cls-2" d="M35.39,89.14c.22,.78,.38,1.58,.62,2.39,.24,.81,.57,1.63,1.12,2.45,1.57-1.25,.6-3.09,1.35-4.34-.95-.3-1.9-.59-2.85-.89-.11,.11-.19,.24-.24,.39Z"/>
  <path class="cls-2" d="M30.17,92.51c-1.08-1.03-2.3-1.56-3.54-2.04,0,0,0,0,0,0,1.24,.49,2.46,1.01,3.54,2.04Z"/>
  <path class="cls-2" d="M28.83,89.12s0,0,0,0c-.73,.45-1.47,.9-2.2,1.35,.73-.45,1.47-.9,2.2-1.35Z"/>
  <path class="cls-2" d="M43.33,91.12c-.14-.06-.29-.12-.43-.17s-.29-.08-.43-.07c-.28,0-.53,.15-.71,.57-.05,.48-.01,.9,.17,1.25,.17,.33,.45,.59,.92,.75,.65,.22,1.36,.2,1.63-.45,.43-1.02-.34-1.53-1.15-1.87Z"/>
  <path class="cls-2" d="M41.93,92.69c.17,.33,.45,.59,.92,.75-.47-.16-.75-.42-.92-.75Z"/>
  <path class="cls-2" d="M39.25,89.76c.75,.91,1.15,.8,1.46,.43,.08-.1,.15-.21,.22-.33,.21-.35,.4-.76,.68-.9-1.01-.39-1.61,.43-2.36,.8Z"/>
  <path class="cls-2" d="M39.25,89.76s0,0,0,0c.75,.91,1.15,.8,1.46,.43-.31,.38-.71,.48-1.46-.43Z"/>
  <path class="cls-7" d="M151.24,130.89c.49,.29,.97,.33,1.41-.11-.57-1.28-1-.69-1.41,.11Z"/>
  <path class="cls-11" d="M142.73,117.4c.67,.2,1.06,.01,1.35-.33l-1.72,.2c.12,.05,.25,.07,.37,.13Z"/>
  <path class="cls-11" d="M223.75,98.93c-.6,.19-1.21,.34-1.84,.47v5.89c3.08,0,6.08-.27,9.17-1.55,2.6-1.08,5.89-.95,8.87-1.54,4.19-.83,8.48-1.58,12.64-2.1,.88-.11,17.39-1.04,18.26-1.18l-.02-5.08c-6.88,.66-29.17,3-36.1,3.34-3.53,.17-7.39,.59-10.97,1.76Z"/>
  <path class="cls-11" d="M15.3,126.49v5.51h.06v-5.52s-.04,0-.06,0Z"/>
  <path class="cls-11" d="M15.44,126.47s-.05,0-.07,0v5.51h.1s-.03-5.52-.03-5.52Z"/>
  <path class="cls-11" d="M.09,132.91l19.73-1.43c1.28-.6,2.59-1.03,4.12-.59,.12,.03,.24,.04,.36,.07l27.71-3.21c2.27-.65,4.53-1.43,6.98-1.54,2.07-.09,4.22-.98,6.43-.19,.22,.08,.43,.07,.64,.09l2.36-.27c4.25-.93,8.4-2.18,12.91-2.12,1.39,.02,2.92,.17,4.39,.12,.55-.02,1.08-.09,1.6-.19,.94-.18,1.83-.49,2.6-1.08,1.87-1.43,3.69-1.49,5.55-1.31,1.8,.18,3.55,.1,5.33,.12,2.84,.03,5.14-1.62,7.68-1.99,4.41-.65,8.94-.42,13.42-.58,3.47-.13,6.88-.91,10.3-1.23,3.34-.31,6.77-1.61,10.17-.3l1.72-.2c.23-.27,.39-.63,.54-1.01,.37-1.27,1.11-1.59,2.4-1.17,3.37,1.09,6.8-.07,9.93-.72,4.03-.84,8.07-1.74,12.14-2.3,2.85-.39,6,.93,8.21-2.15,.56-.77,1.77-.23,2.69,.08,.79,.27,1.68,.75,2.41,.59,4.6-1,9.23-2.02,13.92-1.33,2.09,.31,3.38-1.76,5.35-1.15,.59,.22,1.18,.43,1.77,.65,4.96-3.39,10.75-2.73,16.29-3.3,.74,.02,1.47,.03,2.19,.03v-5.89c-2.17,.44-4.45,.52-6.49,.48-6.97-.15-13.68,2.37-20.64,1.59-2.54,2.49-6.51,.29-9.06,2.75-.21,.2-.68,.43-.85,.33-4.23-2.33-8.19,1.74-12.38,.47-4.2-1.27-7.72,1.65-11.61,1.98-3.83,.33-7.55,1.58-11.6,.84-2.53-.46-5.42,.49-8.03,1.22-4.83,1.34-9.85,1.55-14.7,2.71-6.42,1.53-13.09,1.69-19.56,2.13-6.98,.47-13.53,2.69-20.43,3.29-3.81,.33-7.84,.59-11.7,1.84-2.48,.81-5.46,.25-8.22,.39-3.6,.19-7.1,1.34-10.85,.83-1.79-.25-4.02,.92-6.13,1.22-4.68,.67-9.31,1.49-14.09,.8-1.38-.2-2.99,.38-4.2,.89-5.13,2.15-10.68,2.41-16.07,3.05L.09,125.66"/>
  <path class="cls-11" d="M67.58,126.03c.28-.06,.55-.13,.82-.19l-2.36,.27c.5,.05,1,.02,1.53-.09Z"/>
  <path class="cls-11" d="M19.82,131.48l4.48-.52c-.12-.03-.24-.04-.36-.07-1.53-.44-2.84-.02-4.12,.59Z"/>
  <path class="cls-11" d="M196.31,109.06c-4.7-.69-9.32,.33-13.92,1.33-.73,.16-1.62-.32-2.41-.59-.92-.32-2.14-.86-2.69-.08-2.22,3.08-5.36,1.76-8.21,2.15-4.07,.56-8.11,1.46-12.14,2.3-3.12,.65-6.56,1.81-9.93,.72-1.29-.42-2.03-.1-2.4,1.17,.8,.45,1.62,.62,2.45,.66l45.32-5.25c.56-.33,1.15-.6,1.79-.64,1.47-.09,2.91-.48,4.38-.66,1.48-.18,2.64-.74,3.11-2.27-1.97-.61-3.25,1.46-5.35,1.15Z"/>
  <path class="cls-11" d="M152.89,116.49c5.39,.82,10.46-2.85,15.96-1.38,.91,.05,1.78-.06,2.64-.25,2.59-.57,5.04-1.87,7.77-1.61,3.29,.3,6.46-1.31,9.93-.24,.87,.27,1.94-.79,3.18-1.52l-45.32,5.25c1.92,.1,3.89-.54,5.83-.24Z"/>
  <path class="cls-11" d="M203.68,108.97c.09,.11,.19,.2,.29,.26,.2,.13,.42,.18,.64,.17,.44-.02,.88-.27,1.22-.5,2.59-1.83,5.77-1.15,8.42-1.25,2.57-.1,4.02-.7,5.47-2.39-5.54,.57-11.33-.09-16.29,3.3,.08,.17,.16,.3,.25,.42Z"/>
  <path class="cls-12" d="M193.77,66.02h0c-.14,.39-.29,.78-.43,1.17,2.7,.28,5.37,.33,8.01,.02,.88-.1,1.75-.25,2.62-.43,1.16-.25,2.31-.58,3.46-1h0c-.12-.05-.24-.07-.37-.11-.44-.13-.9-.22-1.36-.24-.89-.05-1.79,.02-2.68-.05-.59-.05-1.17-.15-1.72-.4-.01,0-.02-.01-.03-.02l-1.43,.17c-1.76,1.44-3.93,1.11-6.07,.89Z"/>
  <path class="cls-12" d="M193.77,66.02c-.14,.39-.29,.78-.43,1.17,.14-.39,.29-.78,.43-1.17h0Z"/>
  <path class="cls-12" d="M207.06,65.67c.12,.04,.25,.06,.37,.11h0c-.12-.05-.24-.07-.37-.11Z"/>
  <path class="cls-12" d="M207.53,65.74c.41,.18,.79,.23,1.14,.15,.35-.08,.67-.29,.95-.64-.82-.33-1.61-.59-2.1,.49Z"/>
  <path class="cls-12" d="M207.53,65.74h0s0,0,0,0c.41,.18,.79,.23,1.14,.15-.35,.08-.73,.03-1.14-.15Z"/>
  <path class="cls-12" d="M15.3,89.19v1.09s.04-.02,.06-.02v-1.04s-.04-.01-.06-.02Z"/>
  <line class="cls-12" x1="15.24" y1="90.29" x2="15.24" y2="89.16"/>
  <path class="cls-12" d="M15.3,89.19s-.05-.02-.07-.03v1.13s.05,0,.07,0v-1.09Z"/>
  <path class="cls-12" d="M.11,90.47l15.25-.21c.27-.1,.53-.32,.8-.74-.27-.1-15.78,1.06-16.05,.95"/>
  <path class="cls-12" d="M16.25,89.47h0c.28,.12,.54,.16,.76,.12,.22-.04,.41-.15,.58-.33,.11-.12,.21-.26,.3-.43-.4-.16-.8-.33-1.2-.49-.15,.38-.29,.75-.44,1.13Z"/>
  <path class="cls-12" d="M16.25,89.47h0c.28,.12,.54,.16,.76,.12-.22,.04-.47,0-.76-.12h0Z"/>
  <path class="cls-12" d="M16.69,88.34c.4,.16,.8,.33,1.2,.49,0,0,0,0,0,0-.4-.16-.8-.33-1.2-.49Z"/>
  <path class="cls-2" d="M65.88,84.76s0,0,0,0c-.45,.05-.9,.09-1.35,.14,.45-.05,.9-.09,1.35-.14Z"/>
  <path class="cls-2" d="M63.55,90.51h0s0,0,0,0c-.99-1.19-.5-3-1.72-4.09,0,0,0,0,0,0,0,0,0,0,0,0,1.23,1.09,.73,2.9,1.72,4.09Z"/>
  <path class="cls-2" d="M64.53,84.9h0c-.07,.13-.16,.24-.26,.33,.1-.09,.18-.2,.26-.33Z"/>
  <path class="cls-2" d="M249.45,64.13c-4.09,.54-8.29,.31-12.26,1.65-1.08,.36-2.04,.77-3.34,.56-3.48-.56-6.93,.39-10.39,.7-.52,.05-1.04,.12-1.55,.18v7.09c2.03-.22,4.07-.45,6.1-.72,7.71-1.03,15.39-2.27,23.11-3.19,1.75-.21,17.94-.12,19.69-.33v-7.56c-.11,.07-14.38,.2-14.48,.29-2.2,2-4.55,1.01-6.87,1.32Z"/>
  <path class="cls-2" d="M15.3,100.39h.06v-7.88s-.04,.02-.06,.03v7.85Z"/>
  <path class="cls-2" d="M15.3,100.39h0v-7.86s-.03,.02-.05,.03l.04,7.83Z"/>
  <path class="cls-2" d="M.11,100.85l16.51-.62,4.91-.59,10.86-1.31,3.95-.47,10.48-1.26,5.29-.63,27.72-3.33,4.23-.51,14.17-1.7,2.63-.32,9.99-1.2c9.69-1.22,19.43-2.12,29.06-3.72,6.34-1.06,12.73-1.69,19.07-2.64,6.12-.92,12.32-1.46,18.45-2.4,11.21-1.73,22.54-2.5,33.74-4.43,3.56-.61,7.15-1,10.75-1.39v-7.09c-5.83,.74-11.52,2.5-17.47,2.44-1.04,0-2.05-.25-3.14-.02-6.77,1.41-13.65,2.35-20.53,2.53-4.61,.12-9.1,.54-13.65,1.18-12.7,1.78-25.44,3.32-38.17,4.9-7.6,.94-15.2,2.04-22.83,2.54-3.04,.2-6.18,1.54-9.28,.11l-.12,.03s0,0,0,0c-.17,.29-.34,.59-.51,.89,.42,.11,.8,.26,1.12,.43-.33-.17-.7-.32-1.12-.43-.17,.01-.33,.03-.5,.04-.49,.38-.81,1.06-1.24,1.53,.43-.47,.76-1.14,1.24-1.53-4.44,.37-9.02,.19-13.29,1.25-4.48,1.11-9.25,0-13.49,2.2-1.02-.19-2.04-.37-3.05-.56,0,0,0,0,0,0-.45,.05-.9,.09-1.35,.14h0c-.07,.13-.16,.24-.26,.33-.29,.28-.67,.39-1.06,.49-.52,.14-1.04,.25-1.39,.69,0,0,0,0,0,0,1.23,1.09,.73,2.9,1.72,4.09,0,0,0,0,0,0,.6,.85,1.3,1.3,2.05,1.53,.29,.08,.58,.14,.88,.17-.3-.02-.59-.08-.88-.17-.75-.22-1.46-.68-2.05-1.53-.99-1.19-.5-3-1.72-4.09-2.52,.43-5.03,.86-7.55,1.29-.1-.03-.2-.06-.3-.11-.37,.03-.75,.06-1.12,.1-1.38,.03-2.71,.83-4.08,1.03-.82,.12-1.66,.02-2.53-.59-1.24-.07-2.35,.32-3.42,.88,.37,.21,.71,.46,1.1,.61-.39-.15-.74-.4-1.1-.61-.4-.02-.8-.05-1.21-.07-.28,.14-.47,.55-.68,.9-.07,.12-.15,.23-.22,.33-.31,.38-.71,.48-1.46-.43-.26-.04-.51-.08-.77-.11-.75,1.25,.22,3.09-1.35,4.34-.55-.82-.87-1.64-1.12-2.45-.24-.81-.4-1.61-.62-2.39-.54-.04-1.04,.25-1.53,.55-.17,.1-.33,.2-.5,.28-.67,.35-1.36,.51-2.18-.28-.79-.19-1.57-.39-2.36-.58,0,0,0,0,0,0,0,0,0,0,0,0-.73,.45-1.47,.9-2.2,1.35,1.24,.49,2.46,1.01,3.54,2.04-1.08-1.03-2.3-1.56-3.54-2.04,0,0-.21,.09-.21,.09-3.27,.22-6.54,.39-9.72,1.27,.86,.2,1.29,.67,1.55,1.27-.26-.6-.69-1.06-1.55-1.27-.45,.23-16.14-.01-16.59,.21"/>
  <path class="cls-2" d="M44.48,92.99c-.27,.66-.98,.68-1.63,.45-.47-.16-.75-.42-.92-.75-.18-.35-.22-.77-.17-1.25,.18-.42,.44-.56,.71-.56,.14,0,.28,.03,.43,.07s.29,.11,.43,.17c.81,.34,1.57,.85,1.15,1.87Z"/>
  <path class="cls-2" d="M40.93,89.86c-.07,.12-.15,.23-.22,.33,.08-.1,.15-.21,.22-.33Z"/>
  <path class="cls-6" d="M65.61,92.04c-.75-.22-1.46-.68-2.05-1.53h0c.6,.85,1.3,1.3,2.05,1.53Z"/>
  <path class="cls-6" d="M65.61,92.04c.29,.08,.58,.14,.88,.17-.3-.02-.59-.08-.88-.17Z"/>
  <path class="cls-11" d="M68.4,125.84l17.3-2.01c-1.48,.06-3.01-.1-4.39-.12-4.51-.06-8.66,1.2-12.91,2.12Z"/>
  <path class="cls-11" d="M132.19,117.57c-3.42,.32-6.83,1.1-10.3,1.23-4.48,.17-9.02-.07-13.42,.58-2.54,.38-4.85,2.03-7.68,1.99-1.78-.02-3.53,.06-5.33-.12-1.86-.19-3.67-.12-5.55,1.31-.77,.59-1.66,.9-2.6,1.08l55.05-6.38c-3.4-1.31-6.83-.01-10.17,.3Z"/>
  <path class="cls-11" d="M58.98,126.21c-2.45,.11-4.71,.89-6.98,1.54l14.05-1.63c-.21-.02-.42-.02-.64-.09-2.22-.79-4.37,.1-6.43,.19Z"/>
  <path class="cls-6" d="M15.3,106.6v-6.15c-.13-.01-.25-.02-.37-.01"/>
  <path class="cls-11" d="M.09,125.66l15.22,.54,.02-5.44c-.13,0-15.09-.35-15.22-.35"/>
  <polyline class="cls-11" points="14.91 121.26 15.3 121.2 15.3 115.08"/>
  <line class="cls-6" x1="15.25" y1="92.56" x2="15.24" y2="90.29"/>
  <path class="cls-2" d="M14.93,100.43l.36-.04-.04-7.83"/>
  <text class="cls-3" transform="translate(125.41 97.68) rotate(-7.12)"><tspan x="0" y="0">h</tspan></text>
  <text class="cls-3" transform="translate(131.58 96.91) rotate(-7.12)"><tspan x="0" y="0">u</tspan></text>
  <text class="cls-3" transform="translate(138.07 96.1) rotate(-7.12)"><tspan x="0" y="0">g</tspan></text>
  <text class="cls-3" transform="translate(144.56 95.29) rotate(-7.12)"><tspan x="0" y="0">o</tspan></text>
  <text class="cls-3" transform="translate(149.85 94.63) rotate(-7.12)"><tspan x="0" y="0">.</tspan></text>
  <text class="cls-3" transform="translate(155.47 93.93) rotate(-7.12)"><tspan x="0" y="0">b</tspan></text>
  <text class="cls-3" transform="translate(160.9 93.25) rotate(-7.12)"><tspan x="0" y="0">l</tspan></text>
  <text class="cls-3" transform="translate(164.78 92.76) rotate(-7.12)"><tspan x="0" y="0">i</tspan></text>
  <text class="cls-3" transform="translate(168.66 92.28) rotate(-7.12)"><tspan x="0" y="0">n</tspan></text>
  <text class="cls-3" transform="translate(174.82 91.51) rotate(-7.12)"><tspan x="0" y="0">8</tspan></text>
  <text class="cls-3" transform="translate(182.38 90.57) rotate(-7.12)"><tspan x="0" y="0">9</tspan></text>
  <text class="cls-3" transform="translate(190.12 89.6) rotate(-7.12)"><tspan x="0" y="0">@</tspan></text>
  <text class="cls-3" transform="translate(207.14 87.47) rotate(-7.12)"><tspan x="0" y="0">g</tspan></text>
  <text class="cls-3" transform="translate(213.63 86.66) rotate(-7.12)"><tspan x="0" y="0">m</tspan></text>
  <text class="cls-3" transform="translate(222.94 85.5) rotate(-7.12)"><tspan x="0" y="0">a</tspan></text>
  <text class="cls-3" transform="translate(229.8 84.64) rotate(-7.12)"><tspan x="0" y="0">i</tspan></text>
  <text class="cls-3" transform="translate(233.65 84.16) rotate(-7.12)"><tspan x="0" y="0">l</tspan></text>
  <text class="cls-3" transform="translate(237.53 83.67) rotate(-7.12)"><tspan x="0" y="0">.</tspan></text>
  <text class="cls-3" transform="translate(243.15 82.97) rotate(-7.12)"><tspan x="0" y="0">c</tspan></text>
  <text class="cls-3" transform="translate(248.07 82.36) rotate(-7.12)"><tspan x="0" y="0">o</tspan></text>
</svg>