<?xml version="1.0" encoding="UTF-8"?>
<svg id="Calque_1" data-name="Calque 1" xmlns="http://www.w3.org/2000/svg" viewBox="0 0 377.92 196.25">
  <defs>
    <style>
      .cls-1 {
        font-size: 9px;
      }

      .cls-1, .cls-2, .cls-3, .cls-4 {
        fill: #efde89;
      }

      .cls-1, .cls-3, .cls-4, .cls-5 {
        font-family: BrushScriptMT, 'Brush Script MT';
      }

      .cls-6 {
        letter-spacing: .01em;
      }

      .cls-7 {
        fill: #fff;
      }

      .cls-8 {
        fill: #bbaba2;
      }

      .cls-9 {
        fill: #edc48a;
      }

      .cls-10 {
        fill: #c9c3bd;
      }

      .cls-11 {
        fill: #af8b88;
      }

      .cls-3 {
        font-size: 19.94px;
      }

      .cls-12 {
        fill: #aad9d9;
      }

      .cls-13 {
        fill: #9f8760;
      }

      .cls-14 {
        fill: #d4d3eb;
      }

      .cls-15, .cls-5 {
        fill: #353447;
      }

      .cls-4 {
        font-size: 9px;
      }

      .cls-16 {
        fill: #ab3a59;
      }

      .cls-17 {
        fill: #ded7d5;
      }

      .cls-5 {
        font-size: 15px;
      }

      .cls-18 {
        fill: #ececec;
      }

      .cls-19 {
        fill: #f2f2f2;
      }
    </style>
  </defs>
  <rect class="cls-14" x=".51" y="6.63" width="269.29" height="184.25"/>
  <rect class="cls-14" x="14.69" y="20.81" width="240.94" height="155.91"/>
  <g>
    <path class="cls-2" d="M110.52,152.26c-3.83-4.13-8.79-6.57-13.84-8.11-13.04-3.93-26.73-2.17-40.2-1.65-13.44,.48-27.69-.6-38.89-9.25-4.73-3.67-8.64-8.48-12.38-13.45l.36,65.86,118.02-.64c-.87-3.16-1.73-6.31-2.6-9.48-2.34-8.4-4.84-17.25-10.46-23.27Z"/>
    <path class="cls-2" d="M114.21,148.57c-11.61-12.28-30.5-12.65-46.18-11.88-7.61,.37-15.21,.97-22.83,.5-.81-.05-1.61-.11-2.42-.19-.4-.04-.8-.08-1.21-.12-.2-.02-.4-.04-.6-.07-.2-.02-.4-.05-.6-.07l.59,.08c-.6,.16-1.77-.27-2.39-.38-.92-.16-1.84-.35-2.76-.56-1.69-.39-3.37-.85-5.02-1.41-.76-.26-1.51-.54-2.26-.84-.39-.15-.69-.05,.13,.06-.17-.02-.4-.17-.55-.24-.43-.19-.86-.39-1.28-.6-1.77-.87-3.48-1.88-5.1-3.01-.17-.12-.34-.24-.51-.36-.11-.08-1.04-.78-.48-.35,.49,.38-.07-.06-.14-.12-.22-.18-.44-.36-.66-.55-.77-.65-1.51-1.32-2.23-2.02-1.57-1.51-3.03-3.13-4.44-4.8-.66-.79-1.31-1.59-1.95-2.39-.18-.23-.37-.46-.55-.7-.3-.39-.29-.39,0,0-.36-.47-.72-.94-1.07-1.42-1.36-1.8-3.52-3.16-5.89-2.4C1.64,115.47-.01,117.43,0,119.79c.04,7.46,.08,14.91,.12,22.37l.19,35.35c.01,2.71,.03,5.43,.04,8.14s2.38,5.23,5.21,5.21c3.92-.02,7.83-.04,11.75-.06,9.41-.05,18.81-.1,28.22-.15,11.33-.06,22.67-.12,34-.18l29.51-.16c4.77-.03,9.57,.07,14.34-.08,.07,0,.13,0,.2,0,3.39-.02,5.93-3.32,5.03-6.6-1.69-6.18-3.23-12.44-5.3-18.5-2.06-6.03-4.75-11.82-9.1-16.55-1.85-2.01-5.52-2.01-7.37,0-1.98,2.15-1.97,5.22,0,7.37,.42,.46,.97,.95,1.28,1.49-.58-.99-.15-.19,.02,.04,.19,.27,.38,.54,.56,.81,.74,1.11,1.41,2.26,2.02,3.45,.31,.6,.6,1.21,.88,1.83,.08,.17,.69,1.42,.13,.26,.12,.25,.21,.51,.31,.76,.54,1.35,1.03,2.72,1.49,4.11,1.93,5.82,3.42,11.8,5.04,17.71l5.03-6.6c-3.92,.02-7.83,.04-11.75,.06-9.41,.05-18.81,.1-28.22,.15-11.33,.06-22.67,.12-34,.18l-29.51,.16c-4.76,.03-9.58-.15-14.34,.08-.07,0-.13,0-.2,0l5.21,5.21c-.04-7.46-.08-14.91-.12-22.37l-.19-35.35c-.01-2.71-.03-5.43-.04-8.14l-9.71,2.63c4.94,6.55,10.14,12.9,17.14,17.35,6.47,4.11,13.89,6.24,21.43,7.25,15.66,2.1,31.38-1.39,47.05,.29,.33,.04,1.71,.21,.7,.07,.62,.09,1.23,.18,1.85,.29,1.16,.2,2.31,.43,3.45,.7,2.03,.48,4.03,1.08,5.98,1.84,.19,.07,.37,.15,.56,.22,.7,.27-.81-.38-.14-.05,.48,.24,.97,.45,1.45,.69,.9,.46,1.78,.95,2.64,1.49,.4,.25,.79,.52,1.18,.8,.14,.1,.4,.22,.5,.36-.22-.3-.56-.46-.09-.06,.85,.72,1.66,1.47,2.43,2.28,1.88,1.99,5.5,2.03,7.37,0s2-5.25,0-7.37Z"/>
  </g>
  <g>
    <path class="cls-15" d="M100.9,161.15c-3.49-3.75-7.99-5.97-12.58-7.38-11.86-3.57-24.3-1.98-36.55-1.5-12.22,.44-25.17-.54-35.35-8.41-4.3-3.33-7.85-7.71-11.26-12.23l.32,59.87,107.29-.58c-.79-2.87-1.57-5.74-2.36-8.62-2.13-7.64-4.4-15.68-9.51-21.16Z"/>
    <path class="cls-15" d="M104.25,157.8c-10.59-11.19-27.79-11.5-42.09-10.79-6.85,.34-13.7,.87-20.55,.46-1.49-.09-2.98-.23-4.47-.41,1.17,.14-.18-.03-.35-.06-.4-.06-.8-.13-1.2-.2-.8-.14-1.59-.3-2.39-.47-1.51-.34-3.01-.75-4.48-1.23-.71-.23-1.4-.5-2.09-.76-1.26-.46,.85,.41-.37-.15-.49-.23-.99-.45-1.47-.69-1.6-.79-3.15-1.7-4.61-2.72-.34-.24-.69-.49-1.02-.74,.78,.59-.58-.49-.71-.6-.66-.56-1.29-1.14-1.92-1.75-1.36-1.32-2.64-2.72-3.87-4.17-.67-.79-1.32-1.59-1.96-2.4-.04-.05-.94-1.2-.35-.45-.36-.47-.72-.95-1.08-1.42-1.24-1.64-3.2-2.87-5.35-2.18-1.98,.64-3.49,2.42-3.48,4.57,.04,6.75,.07,13.49,.11,20.24,.06,10.75,.12,21.5,.17,32.25,.01,2.46,.03,4.92,.04,7.38s2.16,4.75,4.74,4.74c3.57-.02,7.14-.04,10.71-.06,8.53-.05,17.06-.09,25.59-.14,10.32-.06,20.63-.11,30.95-.17l26.86-.15c4.33-.02,8.67,.07,12.99-.07,.06,0,.12,0,.18,0,3.08-.02,5.39-3.02,4.57-6-2.98-10.89-5.21-23.27-13.1-31.87-1.68-1.83-5.02-1.83-6.7,0-1.8,1.96-1.79,4.75,0,6.7,.39,.43,.77,.87,1.14,1.32s-.42-.61,.08,.13c.15,.22,.3,.43,.44,.64,.7,1.04,1.32,2.12,1.89,3.24,.27,.54,.53,1.08,.78,1.62,.05,.11,.49,1.13,.25,.55-.22-.51,.11,.28,.15,.37,.48,1.21,.92,2.43,1.33,3.67,1.76,5.31,3.12,10.76,4.6,16.15l4.57-6c-3.57,.02-7.14,.04-10.71,.06-8.53,.05-17.06,.09-25.59,.14-10.32,.06-20.63,.11-30.95,.17l-26.86,.15c-4.31,.02-8.68-.15-12.99,.07-.06,0-.12,0-.18,0l4.74,4.74c-.04-6.75-.07-13.49-.11-20.24-.06-10.75-.12-21.5-.17-32.25-.01-2.46-.03-4.92-.04-7.38l-8.83,2.39c4.52,5.99,9.28,11.8,15.7,15.85,5.64,3.55,12.14,5.53,18.7,6.43,7,.96,13.97,.86,21.01,.48s14.78-.92,22.14-.16c.47,.05,.93,.1,1.4,.16-.92-.12,.89,.14,1.06,.17,1.08,.18,2.16,.4,3.23,.65,1.84,.43,3.65,.97,5.41,1.65,.14,.05,1.36,.6,.36,.14,.49,.23,.99,.45,1.47,.7,.73,.37,1.44,.77,2.13,1.2,.35,.22,.69,.44,1.03,.68,.23,.16,.45,.32,.67,.48-.41-.32-.4-.31,.02,.03,.74,.65,1.46,1.3,2.14,2.02,1.71,1.8,5,1.85,6.7,0s1.82-4.78,0-6.7Z"/>
  </g>
  <text class="cls-1" transform="translate(19.91 175.65) rotate(-.31)"><tspan x="0" y="0">Lorem ipsum</tspan></text>
  <text class="cls-4" transform="translate(18.79 174.05) rotate(-90.31)"><tspan x="0" y="0">Lorem ipsum</tspan></text>
  <g>
    <g>
      <g>
        <path class="cls-15" d="M33.79,121.75c-.2,0-.4-.02-.6-.05-1.54-.27-2.7-1.76-2.71-3.46l-.33-61.39c0-.88,.34-1.72,.97-2.35,.63-.63,1.46-.98,2.34-.98,.2,0,.4,.02,.6,.05,1.54,.27,2.7,1.76,2.71,3.46l.13,24.85c0,.31,.25,.56,.56,.56l6.18-.03c1.71,0,3.21,1.15,3.49,2.67,.18,.98-.07,1.97-.7,2.73-.63,.76-1.55,1.2-2.53,1.21l-6.4,.03c-.15,0-.29,.06-.39,.17-.11,.11-.16,.25-.16,.4l.16,28.81c0,.88-.34,1.72-.97,2.35-.63,.63-1.46,.98-2.34,.98h0Z"/>
        <path class="cls-7" d="M33.46,53.94c.17,0,.35,.02,.52,.05,1.34,.24,2.35,1.55,2.36,3.05l.13,24.85c0,.54,.44,.98,.99,.98l6.19-.03c1.49,0,2.81,1,3.06,2.33,.16,.87-.05,1.71-.61,2.38-.55,.67-1.35,1.05-2.21,1.06l-6.4,.03c-.26,0-.51,.11-.69,.29-.18,.19-.29,.43-.28,.7l.16,28.81c0,.77-.3,1.5-.84,2.05-.55,.55-1.27,.85-2.04,.85-.17,0-.35-.02-.52-.05-1.34-.24-2.35-1.55-2.36-3.05l-.33-61.39c0-.77,.3-1.5,.84-2.05,.55-.55,1.27-.85,2.04-.85h0m0-.85c-2.06,0-3.75,1.69-3.73,3.75l.33,61.39c0,1.84,1.25,3.56,3.06,3.88,.23,.04,.45,.06,.67,.06,2.06,0,3.75-1.69,3.73-3.75l-.16-28.81c0-.07,.06-.13,.13-.13l6.4-.03c2.28-.01,4.09-2.09,3.65-4.45-.34-1.8-2.06-3.02-3.89-3.02,0,0-.01,0-.02,0l-6.18,.03h0c-.07,0-.13-.06-.13-.13l-.13-24.85c0-1.84-1.25-3.56-3.06-3.88-.23-.04-.45-.06-.67-.06h0Z"/>
      </g>
      <g>
        <path class="cls-15" d="M53.35,113.24c-1.82,0-3.3-1.48-3.31-3.29l-.32-59.75c-.01-1.82,1.47-3.32,3.29-3.33,1.83,0,3.32,1.48,3.33,3.29l.32,59.75c0,1.82-1.47,3.32-3.29,3.33h-.02Z"/>
        <path class="cls-7" d="M53.03,46.45v.85c1.58,0,2.88,1.29,2.88,2.87l.32,59.75c0,1.59-1.28,2.89-2.88,2.9-1.58,0-2.88-1.29-2.88-2.87l-.32-59.75c0-.77,.29-1.49,.84-2.04s1.27-.85,2.03-.86l.02-.85m0,0s-.01,0-.02,0c-2.05,.01-3.73,1.7-3.71,3.75l.32,59.75c.01,2.05,1.69,3.71,3.73,3.71,0,0,.01,0,.02,0,2.05-.01,3.73-1.7,3.71-3.75l-.32-59.75c-.01-2.05-1.69-3.71-3.73-3.71h0Z"/>
      </g>
      <g>
        <path class="cls-15" d="M53.39,121.44c-1.81,0-3.3-1.48-3.31-3.29,0-1.82,1.47-3.32,3.29-3.33,1.83,0,3.32,1.48,3.33,3.29,0,.88-.34,1.71-.96,2.34s-1.45,.98-2.33,.98h-.02Z"/>
        <path class="cls-7" d="M53.39,114.4h0v.85c1.58,0,2.88,1.29,2.88,2.87,0,.77-.29,1.49-.84,2.04s-1.27,.85-2.05,.86c-1.58,0-2.88-1.29-2.88-2.87,0-.77,.29-1.49,.84-2.04,.54-.55,1.27-.85,2.03-.86l.02-.85m0,0s-.01,0-.02,0h0c-2.05,.01-3.73,1.7-3.71,3.75,.01,2.05,1.69,3.71,3.73,3.71,0,0,.01,0,.02,0h0c2.05-.01,3.73-1.7,3.71-3.75-.01-2.05-1.69-3.71-3.73-3.71h0Z"/>
      </g>
      <g>
        <g>
          <path class="cls-15" d="M71.4,106.13c-1.81,0-3.3-1.48-3.31-3.29l-.32-59.75c-.01-1.82,1.47-3.32,3.29-3.33,1.83,0,3.32,1.48,3.33,3.29l.32,59.75c.01,1.82-1.47,3.32-3.29,3.33h-.02Z"/>
          <path class="cls-7" d="M71.07,39.34v.85c1.58,0,2.87,1.29,2.88,2.87l.32,59.75c0,.77-.29,1.49-.84,2.04s-1.27,.85-2.05,.86c-1.58,0-2.88-1.29-2.88-2.87l-.32-59.75c0-.77,.29-1.49,.84-2.04s1.27-.85,2.03-.86l.02-.85m0,0s-.01,0-.02,0c-2.05,.01-3.73,1.7-3.71,3.75l.32,59.75c.01,2.05,1.69,3.71,3.73,3.71,0,0,.01,0,.02,0,2.05-.01,3.73-1.7,3.71-3.75l-.32-59.75c-.01-2.05-1.69-3.71-3.73-3.71h0Z"/>
        </g>
        <g>
          <path class="cls-15" d="M62.88,60.35c-.07,0-.1,0-.1,0-3.12-.67-3.36-2.28-3.57-3.69l-.04-.26c-.35-2.24,.18-4.19,1.66-6.14,1.01-1.33,3.3-2.66,5.51-3.95,.47-.27,.94-.55,1.39-.82l.09,5.81c0,.47,0,.89,0,1.32,0,.4-.01,.8,0,1.25-.06,.05-.13,.1-.2,.15-.27,.2-.62,.44-.51,.83,.15,.54,.5,.94,1.03,1.16,.44,.18,.87,.3,1.28,.34,.38,.04,.99,.08,1.84,.14,.14,0,.3,.07,.49,.19,.12,.08,.21,.16,.26,.27-.78,.88-7.48,3.4-9.1,3.4h0Z"/>
          <path class="cls-7" d="M67.32,46.23l.08,5.07c0,.48,0,.9,0,1.32,0,.33,0,.67,0,1.04,0,0-.02,.01-.02,.02-.3,.22-.86,.62-.68,1.29,.18,.68,.62,1.17,1.27,1.44,.48,.2,.95,.33,1.41,.37,.38,.04,.99,.08,1.86,.14,0,0,.03,0,.08,.02-1.62,1-7.02,2.97-8.42,2.99h-.05c-2.78-.61-2.97-1.93-3.18-3.33l-.04-.27c-.33-2.11,.17-3.96,1.58-5.81,.96-1.26,3.21-2.57,5.39-3.84,.26-.15,.51-.3,.77-.45m.7-1.39s-.05,0-.07,.02c-2.67,1.63-6.1,3.34-7.46,5.13-1.71,2.25-2.07,4.36-1.74,6.46,.24,1.51,.33,3.53,3.88,4.29,.06,.02,.14,.03,.24,.03,1.76,0,9.78-2.98,9.55-3.83-.07-.26-.23-.46-.48-.62-.25-.16-.48-.24-.69-.26-.84-.05-1.45-.1-1.82-.13-.37-.04-.76-.14-1.17-.31-.41-.17-.67-.46-.78-.88-.05-.18,.48-.42,.7-.67,.02-.03,.03-.06,.03-.09,0-.99,.02-1.73,.02-2.69l-.09-6.32c0-.08-.06-.13-.13-.13h0Z"/>
        </g>
        <g>
          <path class="cls-15" d="M71.52,106.12c-1.22,0-2.34-.13-3.33-.38-2.6-.67-4.11-1.92-4.62-3.84-.3-1.11-.25-2.42,.15-3.88,.4-1.5,1-2.86,1.78-4.07,.74-1.15,1.44-1.82,2.07-1.99,.11-.03,.18-.03,.22-.03,.08,.07,.12,.31-.06,1.21-.26,.49-.33,.97-.21,1.45,.26,.97,1.29,1.53,3.15,1.69,.33,.03,.66,.04,1.02,.04,1.47,0,3.19-.26,5.12-.78,3.23-.86,6.32-2.08,9.17-3.62,2.84-1.54,5.35-3.24,7.45-5.07,2.11-1.84,3.72-3.64,4.78-5.36,1.11-1.79,1.5-3.3,1.18-4.51-.65-2.42-2.63-3.66-5.89-3.71h-.27c-3.07,0-7.47,.76-13.08,2.25-1.98,.53-3.87,1.22-5.61,2.05-1.36,.65-2.07,.98-2.42,1.2h0s-.01-.01-.02-.01c-.23,0-.39-.27-.51-.71-.32-1.2-.4-2.87-.24-4.96,.16-2.04,.6-3.48,1.3-4.26,.3-.34,1.61-1.19,6.17-3.29,3.75-1.73,6.97-3.28,9.59-4.61,2.66-1.35,5.79-3.28,9.31-5.73,2.24-1.62,3.84-3.25,4.76-4.87,.96-1.68,1.28-3.04,.98-4.17-.32-1.21-2.14-1.8-5.54-1.8s-8.55,.69-12.42,1.73c-3.02,.81-5.96,1.79-8.73,2.93-.28,.12-.82,.29-1.35,.46-.34,.11-.69,.22-.98,.32l-.08-8.09c2.2-.85,5.58-1.94,8.13-2.62,3.96-1.06,11.27-2.19,15.85-2.19,1.59,0,2.78,.14,3.45,.4,2.97,1.15,4.95,3.52,5.89,7.07,.56,2.1,.59,4.12,.08,5.99-.51,1.87-1.69,3.82-3.51,5.77-2.01,2.12-9.61,6.5-22.57,13.02-.23,.12-.35,.37-.29,.63,.06,.25,.28,.43,.54,.43,4.13-.68,7.69-1.02,10.68-1.02,3.16,0,5.85,.6,8.02,1.79,2.12,1.16,3.58,3.16,4.32,5.92,.81,3.04,.28,6.48-1.58,10.21-1.88,3.78-5.02,7.36-9.33,10.62-4.32,3.27-9.52,5.74-15.46,7.32-2.63,.7-5,1.06-7.02,1.06Z"/>
          <path class="cls-7" d="M98.32,37.33c1.94,0,2.86,.2,3.29,.37,2.87,1.11,4.71,3.33,5.64,6.78,.54,2.03,.57,3.97,.08,5.77-.49,1.81-1.64,3.69-3.4,5.59-1.98,2.09-9.54,6.44-22.46,12.94-.41,.21-.62,.66-.52,1.1,.11,.45,.5,.76,.95,.76h.09s.07-.01,.07-.01c4.01-.66,7.55-1,10.54-1.01,3.07,0,5.69,.58,7.79,1.73,2.05,1.12,3.39,2.97,4.11,5.66,.78,2.94,.26,6.27-1.55,9.92-1.85,3.72-4.95,7.25-9.21,10.47-4.27,3.24-9.42,5.68-15.31,7.25-2.6,.69-4.92,1.05-6.91,1.05-1.18,0-2.27-.12-3.23-.37-2.44-.62-3.85-1.78-4.32-3.53-.28-1.04-.23-2.27,.14-3.66,.39-1.45,.97-2.78,1.72-3.95,.68-1.05,1.21-1.5,1.55-1.69-.02,.13-.05,.3-.09,.51-.29,.56-.36,1.15-.21,1.7,.46,1.73,2.76,1.94,3.52,2.01,.34,.03,.69,.05,1.05,.05,1.51,0,3.27-.27,5.23-.79,3.26-.87,6.38-2.1,9.26-3.66,2.87-1.55,5.4-3.28,7.53-5.13,2.14-1.86,3.78-3.7,4.86-5.46,1.19-1.92,1.59-3.5,1.23-4.85-.48-1.8-1.96-3.96-6.29-4.03h-.27c-3.11,0-7.55,.76-13.19,2.27-2.01,.54-3.92,1.23-5.68,2.07-.84,.4-1.46,.7-1.88,.9-.13,.06-.25,.12-.36,.18-.03-.07-.07-.18-.11-.33-.31-1.15-.38-2.78-.23-4.82,.15-1.95,.56-3.3,1.2-4.02,.14-.16,.99-.86,6.03-3.18,3.74-1.73,6.97-3.28,9.61-4.61,2.67-1.36,5.82-3.29,9.37-5.77,2.28-1.65,3.92-3.33,4.87-5,1.02-1.78,1.35-3.25,1.02-4.49-.39-1.44-2.28-2.12-5.95-2.12s-8.62,.7-12.53,1.74c-3.04,.81-5.99,1.8-8.79,2.95-.26,.11-.8,.28-1.33,.45-.14,.05-.28,.09-.42,.14l-.07-7.21c2.19-.83,5.38-1.85,7.82-2.5,3.93-1.05,11.19-2.17,15.74-2.17m0-.85c-4.72,0-12.06,1.16-15.96,2.2-2.56,.68-6.11,1.83-8.37,2.71-.05,.02-.08,.07-.08,.12l.08,8.71c0,.08,.06,.13,.13,.13,.02,0,.03,0,.05,0,.68-.26,2.17-.7,2.73-.93,2.76-1.13,5.66-2.11,8.68-2.91,3.57-.95,8.57-1.72,12.31-1.72,2.77,0,4.84,.42,5.13,1.49,.27,1-.05,2.28-.94,3.85-.89,1.57-2.44,3.14-4.63,4.73-3.52,2.45-6.6,4.36-9.26,5.7-2.66,1.35-5.85,2.88-9.58,4.6-3.73,1.72-5.83,2.85-6.31,3.39-.77,.86-1.24,2.37-1.41,4.51-.17,2.15-.08,3.85,.25,5.1,.19,.69,.47,1.04,.85,1.04,.06,0,.13,0,.19-.03,0,0,0,0,0,0-.03,0,.81-.4,2.5-1.21,1.73-.82,3.57-1.5,5.54-2.02,5.6-1.49,9.92-2.24,12.97-2.24,.09,0,.18,0,.26,0,3.06,.04,4.89,1.18,5.48,3.4,.29,1.1-.08,2.49-1.13,4.18-1.05,1.7-2.61,3.45-4.7,5.26-2.08,1.81-4.54,3.49-7.37,5.02-2.83,1.53-5.86,2.73-9.07,3.59-1.9,.51-3.57,.76-5.01,.76-.34,0-.67-.01-.98-.04-1.64-.15-2.57-.61-2.77-1.38-.1-.39-.04-.78,.2-1.19,.15-.73,.2-1.21,.14-1.43-.06-.23-.22-.35-.48-.35-.1,0-.2,.02-.33,.05-.74,.2-1.51,.92-2.32,2.17-.8,1.25-1.41,2.64-1.83,4.19-.41,1.54-.46,2.91-.15,4.1,.55,2.06,2.19,3.44,4.93,4.14,1.03,.26,2.18,.4,3.44,.4,2.07,0,4.45-.36,7.13-1.07,6.02-1.61,11.22-4.07,15.6-7.4,4.39-3.32,7.54-6.92,9.46-10.77,1.92-3.85,2.46-7.36,1.61-10.51-.77-2.9-2.28-4.96-4.52-6.19-2.24-1.23-4.97-1.84-8.2-1.84h-.02c-3.03,0-6.58,.34-10.66,1.02,0,0-.02,0-.02,0-.13,0-.19-.19-.06-.25,13.07-6.57,20.64-10.94,22.7-13.11,1.87-2.02,3.08-4,3.61-5.95,.53-1.95,.5-4.02-.08-6.21-.99-3.7-3.04-6.15-6.15-7.35-.77-.3-2.04-.42-3.6-.42h0Z"/>
        </g>
      </g>
    </g>
    <g>
      <path class="cls-15" d="M71.03,38.03c-1.81,0-3.3-1.48-3.31-3.29,0-.88,.34-1.71,.96-2.34s1.45-.98,2.33-.98c1.83,0,3.32,1.48,3.33,3.29,.01,1.82-1.47,3.32-3.29,3.33h-.02Z"/>
      <path class="cls-7" d="M71.03,30.99h0v.85c1.58,0,2.88,1.29,2.88,2.87,0,.77-.29,1.49-.84,2.04-.54,.55-1.27,.85-2.05,.86-1.58,0-2.88-1.29-2.88-2.87,0-.77,.29-1.49,.84-2.04,.54-.55,1.27-.85,2.03-.86l.02-.85m0,0s-.01,0-.02,0h0c-2.05,.01-3.73,1.7-3.71,3.75,.01,2.05,1.69,3.71,3.73,3.71,0,0,.01,0,.02,0,2.05-.01,3.73-1.7,3.71-3.75-.01-2.05-1.69-3.71-3.73-3.71h0Z"/>
    </g>
  </g>
  <g>
    <g>
      <g>
        <path class="cls-15" d="M200.71,41.25c-13.42,3.48-26.56,10.76-40.21,9.04-8.49-1.07-16.31-5.53-23.72-10.34-9.16-5.91-18.67-13.42-21.49-24.94-.28-1.12-.46-2.26-.59-3.39l-2.38,.03c-.42,3.93-.35,7.87,.59,11.71,2.83,11.53,12.33,19.03,21.49,24.94,7.41,4.81,15.23,9.26,23.72,10.34,13.65,1.72,26.79-5.56,40.21-9.04,21.64-5.59,44-1.23,66.02,2.7l-.04-8.77c-21.23-3.81-42.75-7.65-63.59-2.27Z"/>
        <path class="cls-15" d="M199.3,36.13c-7.01,1.84-13.73,4.59-20.66,6.66-1.57,.47-3.15,.9-4.74,1.28-.86,.2-1.72,.39-2.59,.55-.43,.08-.87,.16-1.3,.23-.29,.05-1.61,.29-.32,.06-1.7,.31-3.51,.34-5.23,.32-.73,0-1.46-.03-2.19-.08-.44-.03-.88-.08-1.32-.12-.62-.08-.59-.07,.11,.02-.29-.04-.57-.09-.86-.14-1.57-.28-3.11-.68-4.63-1.16-.83-.26-1.66-.56-2.47-.87-.41-.16-.82-.32-1.22-.49,1.2,.5-.54-.26-.75-.35-3.11-1.44-6.09-3.16-9-4.97-2.66-1.66-5.3-3.38-7.84-5.23-.3-.22-.6-.44-.9-.67-.33-.25-.92-1.02-.11-.08-.38-.45-1.01-.8-1.46-1.18-1.25-1.04-2.46-2.12-3.61-3.27-.53-.53-1.05-1.07-1.55-1.62-.54-.59-1.32-1.28-1.69-1.99,.6,1.16,.14,.18-.07-.11s-.43-.61-.65-.92c-.49-.72-.95-1.46-1.39-2.22s-.81-1.56-1.2-2.35c-.56-1.12,.29,.8,0,.05-.16-.42-.33-.83-.47-1.26-.3-.86-.56-1.73-.78-2.62-.1-.42-.19-.84-.27-1.27-.05-.26-.31-2.14-.13-.71-.35-2.83-2.15-5.35-5.32-5.32l-2.38,.03c-3.09,.03-5.02,2.42-5.32,5.32-.68,6.6,.23,13.08,2.94,19.14,2.19,4.9,5.67,9.24,9.58,12.87s8.29,6.71,12.76,9.59c5.26,3.39,10.72,6.48,16.63,8.59s12.05,2.8,18.17,2.06,12.4-2.55,18.45-4.62,11.51-4.07,17.49-5.34c1.4-.3,2.81-.56,4.23-.78,.47-.07,.94-.14,1.41-.21-.21,.03-1.05,.13,0,0,.94-.11,1.89-.22,2.83-.3,3.15-.29,6.31-.41,9.48-.41,3.5,0,6.99,.17,10.47,.46,1.83,.15,3.66,.33,5.49,.54,.88,.1,1.75,.2,2.63,.32,.4,.05,.8,.1,1.19,.15,.39,.05,.32,.04-.22-.03,.32,.04,.64,.09,.96,.13,7.18,1.01,14.32,2.33,21.46,3.6,3.33,.6,6.75-1.42,6.73-5.13-.01-2.92-.03-5.85-.04-8.77-.01-2.16-1.63-4.72-3.9-5.13-16.89-3.03-34.16-6.24-51.39-4.75-5.06,.44-10.11,1.23-15.03,2.48-2.7,.69-4.59,3.84-3.71,6.54s3.65,4.45,6.54,3.71c2.01-.51,4.04-.96,6.09-1.31,.94-.16,1.88-.31,2.82-.44-.94,.14,.1-.01,.47-.05,.55-.06,1.1-.12,1.65-.18,4.09-.41,8.21-.53,12.31-.45s8.11,.37,12.14,.79c.95,.1,1.91,.21,2.86,.32,.56,.07,1.11,.14,1.67,.21,.33,.04,1.75,.24,.73,.09,1.99,.28,3.98,.57,5.96,.88,4.7,.74,9.38,1.58,14.05,2.42l-3.9-5.13c.01,2.92,.03,5.85,.04,8.77l6.73-5.13c-12.71-2.27-25.46-4.68-38.38-5.37-12.71-.68-25.27,.74-37.38,4.73-5.58,1.84-11.08,3.96-16.77,5.44-1.29,.34-2.58,.64-3.89,.9-.72,.14-1.44,.26-2.17,.38-.24,.04-1.03,.2,.11,0-.43,.08-.87,.1-1.3,.14-1.45,.14-2.91,.2-4.36,.17-.59-.01-1.17-.04-1.75-.08-.44-.03-.88-.08-1.32-.12-1.17-.11,.92,.2-.32-.05-2.72-.55-5.35-1.24-7.94-2.26-.18-.07-1.52-.66-.35-.14-.27-.12-.54-.24-.81-.36-.67-.31-1.34-.63-2-.96-1.33-.67-2.64-1.38-3.93-2.12-2.45-1.41-4.84-2.92-7.19-4.47-.98-.64-1.94-1.3-2.9-1.97-.46-.32-.91-.65-1.36-.98-.25-.18-.5-.37-.75-.56-.32-.24-.92-1.02-.11-.08-.85-.99-2.18-1.77-3.16-2.65s-2.01-1.87-2.95-2.87c-.43-.45-.84-.92-1.25-1.39-.24-.28-.48-.58-.72-.86-.7-.82,.6,.85-.08-.1-.8-1.12-1.57-2.24-2.25-3.44-.31-.55-.6-1.1-.88-1.66-.14-.28-.26-.57-.4-.86-.16-.36-.11-.23,.16,.4-.1-.24-.19-.47-.28-.71-.53-1.39-.95-2.81-1.25-4.26-.06-.31-.12-.62-.18-.93-.29-1.51,.08,1.08-.07-.45-.08-.86-.15-1.71-.17-2.58-.05-1.81,.05-3.62,.23-5.42l-5.32,5.32,2.38-.03-5.32-5.32c.51,4.09,1.49,7.78,3.26,11.52,1.48,3.12,3.52,5.94,5.76,8.55,4.26,4.96,9.65,8.91,15.09,12.46,6.44,4.21,13.24,8.21,20.71,10.28s15.83,1.59,23.6-.37c8.26-2.08,16.09-5.52,24.33-7.68,2.69-.71,4.59-3.83,3.71-6.54s-3.66-4.47-6.54-3.71Z"/>
      </g>
      <g>
        <path class="cls-2" d="M255.76,14.54l-133.19,.72c-.08,.68-.14,1.36-.17,2.04H255.77l-.02-2.77Z"/>
        <path class="cls-2" d="M255.76,10.09c-4.41,.02-8.81,.05-13.22,.07-10.62,.06-21.25,.11-31.87,.17l-38.44,.21c-11.11,.06-22.22,.12-33.32,.18-5.36,.03-10.75-.08-16.11,.09-.07,0-.15,0-.22,0-2.61,.01-4.18,2.04-4.45,4.45-.08,.68-.13,1.36-.17,2.04-.14,2.41,2.15,4.45,4.45,4.45h45.18c12.82,0,25.63,0,38.45,0,11.11,0,22.23,0,33.34,0,5.39,0,10.8,.14,16.18,0,.07,0,.15,0,.22,0,2.4,0,4.47-2.04,4.45-4.45l-.02-2.77c-.01-2.33-2.04-4.56-4.45-4.45s-4.47,1.96-4.45,4.45l.02,2.77,4.45-4.45h-45.18c-12.82,0-25.63,0-38.45,0-11.11,0-22.23,0-33.34,0-5.37,0-10.81-.24-16.18,0-.07,0-.15,0-.22,0l4.45,4.45c.04-.68,.09-1.36,.17-2.04l-4.45,4.45c4.41-.02,8.81-.05,13.22-.07,10.62-.06,21.25-.11,31.87-.17,12.81-.07,25.63-.14,38.44-.21,11.11-.06,22.22-.12,33.32-.18,5.36-.03,10.75,.08,16.11-.09,.07,0,.15,0,.22,0,2.33-.01,4.56-2.04,4.45-4.45s-1.96-4.47-4.45-4.45Z"/>
      </g>
      <g>
        <path class="cls-2" d="M114.7,11.62l149.45-1.59,2.42-.03-.02-4.74-152.04,.69c-.09,1.9-.03,3.79,.2,5.67Z"/>
        <path class="cls-2" d="M114.7,16.88c5.11-.05,10.21-.11,15.32-.16,12.21-.13,24.41-.26,36.62-.39,14.63-.16,29.27-.31,43.9-.47,12.39-.13,24.78-.26,37.17-.4,5.47-.06,10.95-.12,16.42-.18,.82,0,1.63-.02,2.45-.03,2.83-.03,5.28-2.39,5.26-5.26,0-1.58-.02-3.16-.02-4.74-.01-2.84-2.4-5.28-5.26-5.26-5.05,.02-10.11,.05-15.16,.07-12.13,.05-24.27,.11-36.4,.16-14.63,.07-29.25,.13-43.88,.2-12.64,.06-25.28,.11-37.91,.17-6.14,.03-12.29-.07-18.43,.08-.09,0-.17,0-.26,0-2.93,.01-5.15,2.4-5.26,5.26-.08,1.9-.02,3.78,.2,5.67,.31,2.73,2.2,5.4,5.26,5.26,2.59-.12,5.59-2.33,5.26-5.26-.21-1.89-.27-3.77-.2-5.67l-5.26,5.26c5.05-.02,10.11-.05,15.16-.07,12.13-.05,24.27-.11,36.4-.16,14.63-.07,29.25-.13,43.88-.2,12.64-.06,25.28-.11,37.91-.17,6.13-.03,12.3,.15,18.43-.08,.09,0,.17,0,.26,0l-5.26-5.26c0,1.58,.02,3.16,.02,4.74l5.26-5.26c-5.14,.05-10.29,.11-15.43,.16-11.79,.13-23.57,.25-35.36,.38-14.61,.16-29.22,.31-43.83,.47-12.76,.14-25.52,.27-38.27,.41-6.23,.07-12.48,.01-18.71,.2-.09,0-.18,0-.27,0-2.75,.03-5.39,2.4-5.26,5.26s2.31,5.29,5.26,5.26Z"/>
      </g>
      <g>
        <path class="cls-2" d="M136.79,39.96c7.41,4.81,15.23,9.26,23.72,10.34,13.65,1.72,26.79-5.56,40.21-9.04,20.85-5.38,42.36-1.54,63.59,2.27l-.16-33.5-149.45,1.59c.14,1.14,.32,2.27,.59,3.39,2.83,11.53,12.33,19.03,21.49,24.94Z"/>
        <path class="cls-2" d="M134.13,44.5c7.11,4.6,14.81,9.08,23.26,10.6,8.9,1.61,17.7-.06,26.21-2.78s16.12-5.82,24.6-7.31c.47-.08,.94-.16,1.41-.23,.31-.05,.63-.1,.94-.14,.07-.01,.86-.12,.24-.04-.67,.09,.32-.04,.48-.06,.24-.03,.47-.06,.71-.08,.63-.07,1.26-.14,1.89-.19,2.2-.2,4.41-.32,6.62-.38,4.44-.11,8.89,.07,13.31,.43,2.47,.2,4.93,.46,7.39,.76,.64,.08,1.27,.16,1.91,.24s-.12-.02-.21-.03c.4,.06,.8,.11,1.19,.17,1.19,.17,2.39,.35,3.58,.53,5.1,.79,10.17,1.7,15.25,2.61,3.3,.59,6.68-1.41,6.66-5.08-.05-9.79-.09-19.59-.14-29.38l-.02-4.11c-.01-2.82-2.4-5.29-5.26-5.26-4.95,.05-9.9,.11-14.85,.16-11.89,.13-23.77,.25-35.66,.38-14.43,.15-28.85,.31-43.28,.46-12.43,.13-24.86,.27-37.3,.4-6.04,.06-12.09,0-18.12,.19-.08,0-.17,0-.25,0-2.58,.03-5.62,2.4-5.26,5.26,.52,4.14,1.51,7.89,3.33,11.66,1.52,3.15,3.61,6.03,5.91,8.65,4.38,5,9.89,8.97,15.45,12.57,2.32,1.5,5.91,.55,7.2-1.89,1.38-2.62,.58-5.6-1.89-7.2-1.23-.8-2.46-1.61-3.67-2.46-.61-.43-1.22-.86-1.82-1.3-.25-.18-.5-.37-.75-.56-.15-.11-.3-.23-.45-.34,.52,.4,.63,.49,.33,.25-2.28-1.86-4.49-3.77-6.47-5.96-.5-.55-.98-1.13-1.46-1.7-.63-.75,.4,.56,.02,.04-.22-.3-.44-.6-.66-.9-.83-1.17-1.58-2.4-2.24-3.67-.17-.33-.34-.67-.5-1.01-.08-.17-.16-.34-.24-.52-.16-.36-.11-.23,.15,.38-.03-.66-.58-1.52-.79-2.17-.24-.76-.46-1.53-.63-2.31-.08-.35-.15-.7-.21-1.06-.05-.28-.26-1.86-.09-.51l-5.26,5.26c4.95-.05,9.9-.11,14.85-.16,11.89-.13,23.77-.25,35.66-.38,14.43-.15,28.85-.31,43.28-.46,12.43-.13,24.86-.27,37.3-.4,6.03-.06,12.1,.09,18.12-.19,.08,0,.17,0,.25,0l-5.26-5.26c.05,9.79,.09,19.59,.14,29.38l.02,4.11,6.66-5.08c-17.65-3.16-35.75-6.54-53.73-4.52-4.71,.53-9.39,1.33-13.96,2.59-4.08,1.13-8.06,2.55-12.06,3.92s-7.82,2.66-11.83,3.62c-.93,.22-1.87,.43-2.81,.6-.5,.1-1.01,.18-1.52,.26-.2,.03-.44,.1-.65,.1,1.14,0,.18-.03-.12,0-2.03,.22-4.07,.31-6.11,.2-.51-.03-1.03-.06-1.54-.11-.29-.03-.59-.05-.88-.1,.44,.07,.7,.11,.11,0-1.14-.22-2.27-.44-3.39-.74-1.05-.28-2.09-.61-3.12-.98-.55-.2-1.1-.4-1.64-.62-.2-.08-.41-.16-.61-.25,1.03,.43,.05,.01-.16-.08-4.29-1.93-8.32-4.39-12.26-6.94-2.32-1.5-5.91-.55-7.2,1.89-1.38,2.62-.58,5.6,1.89,7.2Z"/>
      </g>
    </g>
    <text class="cls-5" transform="translate(126.07 30.29) rotate(-.31)"><tspan x="0" y="0">Design et Dévlopement </tspan><tspan class="cls-6" x="113.6" y="0">W</tspan><tspan x="124.26" y="0">eb</tspan></text>
  </g>
  <g>
    <path class="cls-15" d="M269.8,106.42l-68.45,8.12-40.3,3.51c.04-.08,.09-.19,.14-.28-.49,.3-1.05,.47-1.72,.37-.24-.04-.46-.03-.73-.14-.42-.13-.84-.26-1.26-.39-.15,1.24,.12,2.41,.69,3.36,.19,.32,.41,.61,.66,.88,.99,1.06,2.43,1.64,4.04,1.38,4.45-.71,9.07-1.06,13.29-2.12,3.86-.97,7.74-1.93,11.64-2.26,3.68-.31,7.08-.88,10.18-2.88,.63-.41,1.21-.02,1.82,.01,2.63,.16,5.46,.87,7.98,.69,.1-.31,.34-.56,.68-.57h.3c.24,0,.44,.12,.58,.3,.16-.04,.33-.07,.49-.13,1.16-.41,2.32-.59,3.48-.71,.83-.12,1.68-.19,2.3-.17,1.56-.09,3.1-.19,4.63-.64,2.76-.82,5.81-.61,8.64-1.25,4.34-.99,8.93,.35,13.15-1.65,2.37-1.12,4.99-1.07,7.49-.61,12.99,2.38,24.9,1.15,20.3-.27"/>
    <path class="cls-15" d="M207.14,129.6c.2-.31,.39-.49,.57-.54,.02,0,.02,.02,.04,.01l-.03-5.18-13.24,1.78c-1.37,.49-2.72,.92-4.14,.85-3.16-.17-5.98,.75-8.94,1.31-3.5,.67-7.28,.71-10.48,1.7-2.74,.86-5.18,.92-7.4,.29l-9.1,1.22-1.86-13.87-3.95,.49c.28,.67,.56,1.34,.36,1.81-1.17,2.81,.14,5.62-.26,8.39-.12,.83-.41,1.61,.59,2.22,4.02,2.45,7.73,5.39,12.05,7.35,2.28,1.03,4.51,1.89,6.91,.28,.98-.66,2.04-.3,3.05,.11,.17,.07,.34,.1,.51,.15l4.14-.48c5.37-1.5,10.73-3.3,16.2-3.79,4.92-.44,9.65-2.14,14.51-2.76,.01-.11-.02-.2,.01-.32,.1-.38,.25-.73,.45-1.04Z"/>
    <path class="cls-15" d="M157.22,125.57c-.95-1.17-1.66-2.49-2.05-3.95-.39-1.46-.46-3.04-.13-4.75l-2.48,.31,1.86,13.87,9.1-1.22c-1.45-.41-2.81-1.11-4.09-2.1-.83-.65-1.58-1.36-2.22-2.15Z"/>
    <path class="cls-15" d="M207.72,123v-1.88c-.55,.19-1.08,.34-1.2,.3-.88-.19-.9-.69-.96-1.06-.08-.52,0-1.04,.43-1.6,.31-.41,1.06-.81,1.7-1.19v-.68c0-.08,.06-.14,.08-.21-2.52,.18-5.35-.52-7.98-.69-.61-.04-1.19-.42-1.82-.01-3.1,2-6.5,2.56-10.18,2.88-3.89,.33-7.78,1.29-11.64,2.26-4.23,1.06-8.85,1.41-13.29,2.12-1.6,.26-3.05-.32-4.04-1.38-.25-.26-.47-.56-.66-.88-.56-.95-.83-2.13-.69-3.36h0c-.75-.25-1.51-.51-2.26-.76l-.18,.02c-.33,1.7-.26,3.29,.13,4.75,.39,1.46,1.1,2.78,2.05,3.95,.64,.79,1.39,1.51,2.22,2.15,1.28,.99,2.64,1.69,4.09,2.1l30.95-4.15c1.43-.51,2.89-1.07,4.51-1.2,2.94-.23,5.83-.84,8.73-1.48Z"/>
    <rect class="cls-15" x="161.86" y="127.16" width="34.35" height="2.76" transform="translate(-15.42 24.8) rotate(-7.6)"/>
    <path class="cls-15" d="M155.18,121.62c-.39-1.46-.46-3.04-.13-4.75h0c-.33,1.7-.26,3.29,.13,4.75Z"/>
    <path class="cls-15" d="M157.48,117.61h0c-.15,1.24,.12,2.41,.69,3.36-.56-.95-.83-2.13-.69-3.36Z"/>
    <path class="cls-15" d="M168.27,137.72c-2.4,1.62-4.63,.76-6.91-.28-4.32-1.96-8.04-4.9-12.05-7.35-.99-.61-.71-1.39-.59-2.22,.4-2.77-.91-5.57,.26-8.39,.2-.47-.08-1.14-.36-1.81l-1.36,.17c-.5,1.26,.14,3.03-1.15,3.87-1.95,1.26-1.43,2.92-1.27,4.75,.43,4.73,3.21,6.83,7.22,9.25,2.88,1.74,5.84,2.81,8.85,3.54l10.92-1.27c-.17-.05-.34-.08-.51-.15-1.01-.42-2.07-.77-3.05-.11Z"/>
    <path class="cls-15" d="M144.84,126.46c-.16-1.82-.68-3.49,1.27-4.75,1.29-.84,.65-2.61,1.15-3.87l-6.57,.82c-.72,1.12-1.28,2.41-1.55,3.97-.26,1.49-.74,2.8,.05,4.26,.28,.52,.53,1.59,.3,1.76-1.94,1.46-1.23,2.59-.45,4.57,.83,2.11,2.15,2.62,3.76,3.31,.73,.31,1.35,.89,1.4,1.62,.08,1.41,.67,2.29,1.5,2.87l15.23-1.77c-3-.73-5.97-1.8-8.85-3.54-4.01-2.42-6.8-4.52-7.22-9.25Z"/>
    <path class="cls-19" d="M269.8,81.77l-34.55,3.82c1.02,.01,2.05,.16,3.08,.58,.22,.09,.67-.36,.87-.27,1.78,.81,3.72-1.77,5.42,.27,0,0,0,0,0,0,.6,.2,1.19,.41,1.79,.61,1.5-2.25,4.34-2.97,7.52-1.9h0c.42-.73,15.36-.93,15.87-.84"/>
    <path class="cls-14" d="M255.37,88.85c-.31,.16-.62,.31-.93,.47,.31-.16,.62-.31,.93-.47"/>
    <path class="cls-14" d="M253.35,90.09c-.36-.07-.71-.4-1.05-.82-.61-.25-1.22-.5-1.83-.74,.61,.25,1.22,.5,1.83,.75,.35,.42,.7,.75,1.05,.82Z"/>
    <polygon class="cls-14" points="247.69 90.65 247.63 90.68 247.69 90.65 247.69 90.65"/>
    <path class="cls-14" d="M250.47,88.52c-.19,.08-.39,.16-.58,.24-.19,.06-.36,.16-.51,.29,.15-.13,.32-.22,.51-.29,.19-.08,.39-.16,.58-.24Z"/>
    <path class="cls-15" d="M255.03,117.55c-2.57,.08-5.15,.43-7.72,.77-2.8,.37-5.54,1.07-8.31,1.38l16.04-2.15"/>
    <path class="cls-15" d="M238.68,119.75c.1-.01,.21-.04,.31-.05l-.4,.05s.06,0,.09,0Z"/>
    <path class="cls-9" d="M237.85,90.71s0,0,0,0c-.34,0-.69,0-1.03,0,.34,0,.69,0,1.03,0,0,0,0,0,0,0Z"/>
    <path class="cls-9" d="M245.37,89.66s0,0,0,0c0,0,0,0,0,0-.65-.15-1.27-.09-1.86,.11,.6-.2,1.21-.27,1.86-.11Z"/>
    <path class="cls-19" d="M244.36,86.71c.1-.16,.18-.35,.27-.55h0c-.08,.2-.17,.39-.27,.55Z"/>
    <path class="cls-19" d="M253.95,84.89s0-.03,0-.02h0c-3.19-1.07-6.02-.35-7.52,1.9,1.81,1.06,3.3-.14,4.88-.69,.53-.19,1.06-.3,1.63-.24,.34-.31,.69-.61,1.03-.92v-.03Z"/>
    <path class="cls-19" d="M269.8,84.03c-.5-.09-15.44,.1-15.87,.84,0,0,0,.01,0,.02v.03c.47,.18,.94,.36,1.41,.54"/>
    <path class="cls-2" d="M254.68,96.77l-2.06,.25c.63,.12,1.36-.13,2.06-.25Z"/>
    <path class="cls-2" d="M240.17,93.36c-.38-1.26-.92-2.28-2.32-2.65,0,0,0,0,0,0,1.4,.38,1.95,1.4,2.32,2.65Z"/>
    <path class="cls-2" d="M247.22,92.56c.27,.29,.52,.59,.7,.94,.68,1.32,1.42,.01,1.5-.72,.14-1.23-.01-2.49-.04-3.74-.26,0-.47,.07-.65,.16-.27,.14-.45,.37-.61,.63-.16,.26-.28,.55-.43,.82h0c.05,.13,.11,.26,.16,.39-.07-.12-.15-.24-.22-.36-.75-.34-1.51-.68-2.26-1.02,.02,1,.58,1.64,1.21,2.26,.21,.21,.44,.42,.64,.64Z"/>
    <path class="cls-2" d="M246.57,91.92c-.62-.62-1.19-1.26-1.21-2.26,0,0,0,0,0,0,.02,1,.58,1.64,1.21,2.26Z"/>
    <path class="cls-2" d="M248.11,89.83c-.16,.26-.28,.55-.43,.82h0c.14-.27,.27-.56,.43-.82Z"/>
    <path class="cls-2" d="M236.81,98.56c.65,.4,1.02-.12,1.29-.73,.37-.85,.96-1.79-.19-2.5-.77-.47-1.37-.22-1.77,.63-.47,1-.39,1.82,.67,2.6Z"/>
    <path class="cls-2" d="M243.89,97.94c1.22-.11,2.45-.32,3.32-1.16,.09-.9-.23-1.58-.89-1.61-1.32-.06-2.24,.85-2.97,1.84-.28,.38,.15,.96,.53,.92Z"/>
    <path class="cls-2" d="M253.35,90.09c.36,.07,.72-.13,1.1-.76-.71-.37-1.41-.8-2.15-.06,.35,.42,.7,.76,1.05,.82Z"/>
    <path class="cls-18" d="M269.8,84.03c-.47-.18-15.38,1.07-15.85,.89h0c-.34,.31-.69,.62-1.03,.92,.28,.04,.56,.17,.84,.31,.28,.14,.56,.29,.84,.39,.25,.08,.5,.11,.75,.04"/>
    <path class="cls-18" d="M252.93,85.84c.28,.04,.56,.17,.84,.31-.28-.14-.56-.27-.84-.31h0Z"/>
    <path class="cls-18" d="M253.96,84.92c-.34,.31-.69,.62-1.03,.92,.34-.31,.69-.61,1.03-.92h0Z"/>
    <path class="cls-12" d="M247.69,90.65s-.06,.03-.06,.03c.07,.12,.15,.24,.22,.36-.05-.13-.11-.26-.16-.39Z"/>
    <path class="cls-2" d="M176.09,125.45h-1.63s-.03-6.26-.03-6.26c0-.51-.42-.93-.93-.92s-.93,.42-.92,.93l.08,15.33c0,.51,.42,.93,.93,.92s.93-.42,.92-.93l-.04-7.2h1.63c.51-.01,.93-.43,.92-.94s-.42-.93-.93-.92Z"/>
    <rect class="cls-2" x="177.48" y="116.61" width="1.86" height="16.72" rx=".93" ry=".93" transform="translate(-.67 .97) rotate(-.31)"/>
    <rect class="cls-2" x="177.54" y="133.8" width="1.86" height="1.86" rx=".93" ry=".93" transform="translate(-.73 .97) rotate(-.31)"/>
    <path class="cls-14" d="M222.79,87.06l-11.27,1.33c.24,0,.47,.03,.68,.08,3.83,.97,7.22-.03,10.59-1.41Z"/>
    <path class="cls-15" d="M198.69,110.57s0,0-.01,0c.28,.23,1.88,2.91,2.49,3.74-.6-.83-2.19-3.48-2.48-3.74Z"/>
    <path class="cls-15" d="M155.05,116.79s0,0,0,0c.06,.02,.11,.04,.17,.06h0c-.06-.02-.12-.04-.17-.06Z"/>
    <path class="cls-14" d="M171.69,107.66c.42-.26,.7-.76,1.04-1.15,.15-.22,.31-.44,.46-.65-.15,.22-.31,.44-.46,.65-.34,.39-.62,.88-1.04,1.15Z"/>
    <path class="cls-14" d="M197.03,99.93c-.14-.33-.29-.66-.43-.99,.14,.33,.29,.66,.43,.99,.24,0,.47-.04,.7-.1-.23,.06-.46,.1-.7,.1Z"/>
    <path class="cls-14" d="M226.89,91.51c.27-.03,.54-.03,.81-.03-.27,0-.55,0-.81,.03Z"/>
    <path class="cls-14" d="M230.14,91.36s.02-.01,.05-.02c-.03,.01-.05,.02-.05,.02-.76,.18-1.6,.12-2.42,.12,.82,0,1.67,.07,2.43-.11Z"/>
    <path class="cls-14" d="M166.27,102.42c-.51-.13-1.01-.27-1.52-.4,.51,.13,1.02,.27,1.52,.4,0,0,0,0,0,0Z"/>
    <path class="cls-14" d="M189.41,111.75c-.32-.04-.64-.05-.96-.1-.11-.29-.25-.54-.41-.78,.16,.23,.29,.49,.41,.78,.32,.05,.64,.06,.96,.1h0Z"/>
    <path class="cls-15" d="M193.65,111.9c-1.39,.12-2.81,.02-4.24-.15h0c1.43,.17,2.84,.26,4.24,.15Z"/>
    <path class="cls-14" d="M199.19,108.72c-.16,.59-.33,1.19-.5,1.78h0c.16-.6,.33-1.19,.49-1.79,.35-1.79,.06-3.18-.8-4.22,.86,1.04,1.15,2.43,.8,4.22Z"/>
    <path class="cls-15" d="M198.68,110.56s0,0,.01,0c0,0,0,0,0,0,0-.02,.01-.04,.01-.05h0s-.01,.04-.01,.06Z"/>
    <path class="cls-14" d="M168.78,97.52s-.02-.05-.04-.09l.04,.09h0Z"/>
    <path class="cls-14" d="M155.76,99.08c-.14-.01-.28-.03-.41-.04,.14,.01,.27,.03,.41,.04,0,0,0,0,0,0Z"/>
    <path class="cls-14" d="M159.37,98.48c-.31,.02-.62-.01-.94-.06,.32,.05,.63,.09,.94,.06h0Z"/>
    <path class="cls-14" d="M180.79,112.29c.19,.06,.39,.09,.59,.11,.16,.07,.32,.12,.48,.17-.16-.05-.32-.1-.48-.17-.2-.01-.39-.05-.59-.11Z"/>
    <path class="cls-15" d="M157.48,117.61h0c.42,.13,.84,.26,1.26,.39-.42-.13-.84-.26-1.26-.39Z"/>
    <path class="cls-14" d="M176.96,111.44s0,0,0,0c.55,.19,1.1,.38,1.65,.56-.55-.19-1.1-.38-1.65-.56,0,0,0,0,0,0Z"/>
    <path class="cls-14" d="M200.74,102.61c-1.73-.11-3.46-.22-5.18-.33,0,0-.04,.22-.04,.22l.04-.21c1.73,.11,3.46,.22,5.18,.33Z"/>
    <path class="cls-15" d="M155.22,116.85c.75,.25,1.51,.51,2.26,.76-.75-.25-1.5-.51-2.26-.76h0Z"/>
    <path class="cls-14" d="M207.29,102.64c-2.17,.26-4.35,.45-6.55-.03-.3-.97-.6-1.93-.9-2.9,.3,.97,.6,1.93,.9,2.9,2.19,.48,4.37,.29,6.55,.03Z"/>
    <path class="cls-14" d="M158.56,102.63c.75,2.57,2.53,4.48,4.08,6.54-1.55-2.06-3.33-3.97-4.08-6.54,0,0,0,0,0,0Z"/>
    <path class="cls-14" d="M168.27,97.06c.13,.07,.26,.13,.39,.21,.26-.15,.07-.2-.39-.21Z"/>
    <path class="cls-14" d="M196.6,98.94s0,0,0,0c0,0,0,0,0,0-1.86-.39-3.68,.11-5.52,.39,1.83-.29,3.66-.78,5.52-.39Z"/>
    <path class="cls-14" d="M175.19,106.43c-.65-.03-1.28-.23-1.95-.55,.67,.32,1.3,.53,1.95,.55Z"/>
    <path class="cls-14" d="M172.48,104.65c-.04-.29-.14-.57-.29-.85,0,0,0,0,0,0,.15,.28,.25,.56,.29,.85Z"/>
    <path class="cls-14" d="M146.84,103.16c-.11,.03-.21,.06-.32,.09,.11-.03,.21-.06,.32-.09,0,0,0,0,0,0Z"/>
    <path class="cls-14" d="M163.21,99.71c.3,.26,.53,.64,.68,1.2,.29,.37,.57,.74,.86,1.11-.29-.37-.57-.74-.86-1.11-.15-.56-.38-.93-.68-1.2Z"/>
    <path class="cls-14" d="M149.75,113.18c-.49,1.2-.97,2.4-1.46,3.6,.49-1.2,.97-2.4,1.46-3.6,0,0,0,0,0,0Z"/>
    <path class="cls-9" d="M228.71,99.89l1.8-.22c-.59-.1-1.21,.07-1.8,.22Z"/>
    <path class="cls-9" d="M269.8,96.31l-15.12,.46c-.69,.11-1.43,.37-2.06,.25l-21.69,2.61c.01,.06,.02,.11,.03,.17-.15-.07-.31-.09-.46-.12l-1.8,.22c-.37,.09-.72,.15-1.04,.13l-6.7,.81c-3.85,.42-7.66,1.16-11.51,1.57-.72,.08-1.44,.17-2.17,.25-2.17,.26-4.35,.45-6.55-.03-1.73-.11-3.46-.22-5.18-.33l-.04,.21-.11,.19s0,0,0,0c.75,.23,1.4,.52,1.94,.88,.41,.27,.76,.58,1.04,.92,.86,1.04,1.15,2.43,.8,4.22-.16,.6-.33,1.19-.49,1.78l71.11-7.6"/>
    <path class="cls-9" d="M269.72,101.99l-71.03,8.52s0,.04-.01,.05c.31,.26,.63,.52,.94,.78,.32,.26,.63,.53,.95,.79,.36,.06,.73,.14,1.09,.21s.73,.13,1.09,.16c-.37-.03-.73-.09-1.09-.16-.36-.07-.73-.14-1.09-.21-.32-.26-.63-.53-.95-.79-.31-.26-.62-.52-.93-.77,.29,.26,1.87,2.9,2.48,3.74,.09,.12,.15,.2,.19,.23l68.45-8.12"/>
    <path class="cls-9" d="M200.57,112.13c.36,.06,.73,.14,1.09,.21-.36-.07-.73-.14-1.09-.21-.32-.26-.63-.52-.95-.79h0c.32,.26,.63,.53,.95,.79Z"/>
    <path class="cls-9" d="M199.62,111.34c-.31-.26-.63-.52-.94-.78,0,0,0,0,0,0,.31,.26,.62,.52,.93,.77h0Z"/>
    <path class="cls-15" d="M154.26,116.47c-.12-.05-.23-.1-.35-.15-.24,.12-.38,.13-.45,.05-.07-.08-.07-.24-.02-.46-1.23-.91-2.46-1.82-3.69-2.74-.49,1.2-.97,2.4-1.46,3.6,.08,.29,.2,.59,.33,.89l3.95-.49-.06-.48,1.76-.24Z"/>
    <path class="cls-15" d="M155.05,116.8h0s0,0,0,0c-.26-.11-.53-.22-.79-.33l-1.76,.24,.06,.48,2.48-.31s0-.05,0-.08Z"/>
    <path class="cls-15" d="M210.01,129.95c.8-.21,1.55-.51,2.25-.89,.7-.38,1.31-.79,1.83-1.24,.52-.45,.9-.88,1.16-1.31,.26-.42,.35-.76,.28-1.04-.15-.55-.6-.83-1.36-.84-.76-.01-1.85,.17-3.28,.56-.46,.12-.89,.28-1.3,.47l.02,4.37c.13-.03,.25-.04,.39-.08Z"/>
    <path class="cls-15" d="M269.8,115.41l-30.82,4.29c-.1,.01-.21,.04-.31,.05-.03,0-.06,0-.09,0l-26.83,3.6c-.23,.12-.42,.22-.66,.34,1.1-.19,2.06-.29,2.86-.29,.8,0,1.48,.15,2.04,.46,.56,.3,.93,.82,1.12,1.53,.21,.78,.08,1.65-.4,2.61-.27,.54-.67,1.06-1.13,1.56,1.02-.19,2.08-.1,3.24,.36,1.03,.41,2.35,.24,3.18-.85,.47-.62,1.02-1.2,1.84-1.02,2.8,.6,5.55-.31,8.11-.9,2.35-.54,5.45,.51,7.16-2.37,.38-.64,1.4-.04,2.06,.23,1.88,.76,3.72,1.74,5.3-.62,.26-.4,1.15-.41,1.76-.54,2.38-.49,19.18-1.25,21.6-1.53"/>
    <path class="cls-15" d="M199,124.47c-1.62,.12-3.08,.69-4.51,1.2l13.24-1.78v-.9c-2.9,.63-5.79,1.25-8.73,1.48Z"/>
    <path class="cls-15" d="M224.04,121.67c-.26,.18-.82-.09-1.24-.15-2.66-.37-5.25-.23-7.81,.12-.82,.47-1.93,1.05-3.24,1.72l26.83-3.6c-4.87,.47-9.99-1.17-14.54,1.91Z"/>
    <path class="cls-15" d="M209.58,122.95c.24-.13,.54-.27,.91-.44,.14-.06,.26-.12,.39-.18-.44,.09-.87,.18-1.31,.28v.35Z"/>
    <path class="cls-15" d="M215.16,119.96c.54-.39,.93-.78,1.15-1.17,.22-.39,.3-.71,.23-.95-.17-.62-2.78-.35-4.32,.06-.75,.2-1.47,.44-2.15,.72-.11,.04-.33,.11-.51,.18l.02,3.82c.44-.09,.87-.19,1.31-.28,.75-.35,1.43-.67,1.99-.96,.66-.33,1.42-.81,2.3-1.41Z"/>
    <path class="cls-15" d="M269.8,111.94c-1.95,.17-18.29-.38-20.3-.68-2.51-.37-5.11-.51-7.49,.61-4.22,2-8.81,.66-13.15,1.65-2.83,.64-5.88,.43-8.64,1.25-1.53,.45-3.07,.56-4.63,.64,.27,.01,.51,.04,.66,.09,.77,.3,1.28,.91,1.53,1.82,.14,.54,.15,1.06,.02,1.54-.13,.48-.43,.98-.89,1.48-.27,.28-.91,.71-1.92,1.29,2.56-.34,5.15-.48,7.81-.12,.42,.06,.98,.32,1.24,.15,4.55-3.09,9.67-1.45,14.54-1.91l.4-.05c2.77-.31,5.51-1.02,8.31-1.38,2.57-.34,19.94-2.22,22.5-2.3"/>
    <path class="cls-15" d="M211.42,115.95c.48-.13,1.17-.26,1.89-.37-1.16,.11-2.32,.3-3.48,.71-.16,.06-.33,.08-.49,.13,.04,.05,.05,.12,.08,.18,.56-.22,1.39-.48,2-.65Z"/>
    <path class="cls-15" d="M155.04,116.87l.18-.02c-.06-.02-.11-.04-.17-.06,0,.03,0,.05,0,.08Z"/>
    <path class="cls-15" d="M155.05,116.8s0,.05,0,.08h0s0-.05,0-.08h0Z"/>
    <path class="cls-9" d="M269.8,84.03c-.25,.06-14.94,2.59-15.19,2.51-.28-.09-.56-.25-.84-.39s-.56-.27-.84-.31h0c-.56-.06-1.1,.05-1.63,.24-1.58,.56-3.07,1.75-4.88,.69-.6-.2-1.19-.41-1.79-.61-.08,.2-.17,.39-.27,.55-.1,.16-.21,.3-.34,.42-.27,.23-.64,.36-1.21,.36-2.85-.03-5.73,.43-8.56,.25-2.67-.18-4.76,1.96-7.39,1.49-2.48-.44-4.78,.71-7.06,.83-3.69,.18-7.33,1.67-11.08,.73-2.82-.28-5.28,1.53-8.08,1.34-.24,1.14,1.21,1.39,1.26,2.37,3.43-.23,6.95-1.03,10.28-.56,4.05,.57,7.85-3.02,11.85-.34,.05,.03,.25-.05,.28-.12,.29-.73,.67-1.19,1.11-1.49,.44-.3,.95-.42,1.48-.48,.27-.03,.54-.03,.81-.03h0c.82,0,1.67,.07,2.42-.12,0,0,.03-.01,.05-.02,.02-.01,.05-.02,.05-.02,0,0,0,0,0,0,1.28-1.13,2.86,.78,4.13-.4l.11-.04s0,0,0,0c.72-.91,1.53-.53,2.34-.17,.34,0,.69,0,1.03,0,0,0,0,0,0,0,1.69-.23,3.38-.46,5.07-.69,.19-.1,.39-.18,.59-.25,.6-.2,1.21-.27,1.86-.11,0,0,0,0,0,0,.75,.34,1.51,.68,2.26,1.02l.06-.03c.14-.27,.27-.56,.43-.82,.16-.26,.34-.48,.61-.63,.18-.1,.39-.15,.65-.16,.15-.13,.32-.22,.51-.29,.19-.08,.39-.16,.58-.24,.61,.25,1.22,.5,1.83,.74,.74-.74,1.44-.31,2.15,.06,.31-.16,15.05-2.11,15.36-2.27"/>
    <path class="cls-9" d="M230.24,91.32s0,0,0,0c0,0-.02,.01-.05,.02,.02-.01,.05-.02,.05-.02,0,0,0,0,0,0Z"/>
    <polygon class="cls-9" points="234.48 90.87 234.48 90.87 234.37 90.92 234.48 90.87 234.48 90.87"/>
    <path class="cls-18" d="M157.72,95.35c3.55,.39,7.26-.17,10.55,1.71,.46,0,.66,.06,.39,.21l.08,.17s.04,.09,.04,.09c1.62,.49,3.56,1.79,4.79,1.3,2.5-.99,4.79-.4,7.14-.2,2.04,.17,4.69-2.36,6.08,1.26,.11,.28,.77-.52,.97-.48,1.12,.21,2.23,.12,3.33-.05,1.83-.29,3.66-.78,5.52-.39,0,0,0,0,0,0,.46-1.21,2.88-1.08,2.13-3.11,.39-.72-.02-1.86,.18-2.69-.02-.02-.03-.06-.05-.07-2.04-1.78-16.66,.6-19.53,.49-1.44-.06-2.93,.25-4.4,0-.65-.11-19.71,1.78-19.71,2.21,0,.25,.11,.45,.27,.63,.17,.05,.35,.1,.53,.14,.35-.72,.86-1.28,1.71-1.18Z"/>
    <path class="cls-19" d="M219.8,90.05c2.28-.11,4.58-1.27,7.06-.83,2.63,.47,4.72-1.67,7.39-1.49,2.84,.19,5.71-.28,8.56-.25,.57,0,.94-.12,1.21-.36,.14-.12,.25-.26,.34-.42,.1-.16,.18-.35,.27-.55h0s0,0,0,0c-1.7-2.04-3.64,.54-5.42-.27-.21-.09-.65,.36-.87,.27-1.03-.41-2.05-.56-3.08-.58l-4.66,.55c-.87,.15-1.74,.26-2.62,.31l-5.18,.61c-3.36,1.38-6.76,2.38-10.59,1.41-.21-.05-.44-.07-.68-.08l-.94,.11c-.9,.26-1.72,.95-1.87,2.28,3.75,.94,7.38-.55,11.08-.73Z"/>
    <path class="cls-19" d="M230.59,86.14l4.66-.55c-1.56-.02-3.11,.29-4.66,.55Z"/>
    <path class="cls-18" d="M159.79,98.81c1.1,.37,2.53,.11,3.42,.9,.3,.26,.53,.64,.68,1.2,.29,.37,.57,.74,.86,1.11,.51,.13,1.01,.27,1.52,.4-.26-.87-.21-1.72,.1-2.56-.33-.47-.48-1.02,0-1.39,.44-.34,.74-.24,1-.02,.19,.17,.38,.38,.57,.55,.07,.06,.13,.13,.2,.16,.21-.55,.43-1.09,.64-1.64l-.04-.09c-.03-.07-.08-.17-.08-.17-.13-.08-.26-.14-.39-.21-1.48-.02-5.96,.5-9.28,.31,.22,.21,.37,.54,.39,1.11h0c.12,.13,.26,.24,.42,.33Z"/>
    <path class="cls-18" d="M168.66,97.27s.04,.09,.08,.17l-.08-.17Z"/>
    <path class="cls-18" d="M168.27,97.06c-3.29-1.88-7-1.32-10.55-1.71-.85-.09-1.36,.46-1.71,1.18,.61,.89,2.16,.15,2.92,.76,.02,.02,.03,.05,.05,.07,3.32,.19,7.81-.33,9.28-.31Z"/>
    <path class="cls-17" d="M151.65,99.7c.07-.13,.15-.23,.23-.29,.12-.09,.25-.11,.38-.07,.14,.03,.28,.12,.42,.23,.12-.02,.25-.05,.37-.1,.04-.23,.11-.4,.19-.53,.06-.1,.13-.17,.21-.22,.24-.14,.57-.06,.97,.22,.31,.03,.62,.06,.93,.09,.14,.01,.28,.03,.41,.04,.05-.07,.1-.1,.15-.16,.11-.13,.22-.27,.34-.35,.16-.11,.32-.17,.49-.22,.02,0,.03-.02,.05-.02,.19-.04,.38-.06,.57-.05,.19,0,.39,.03,.59,.06,.16,.02,.32,.05,.48,.08,.32,.05,.63,.09,.94,.06-.01-.57-.17-.9-.39-1.11-1.64-.1-2.96-.37-3.5-.98-.02,0-.05-.01-.07-.02-.35,.71-.89,.96-1.65,.64-1.15,.05-2.3,.13-3.45,.14-3.18,.03-4.92,2.8-3.8,6.1,.11-.03,.21-.06,.32-.09,0-3.39,3.17-2.36,4.81-3.46Z"/>
    <path class="cls-17" d="M158.93,97.3c-.77-.62-2.32,.13-2.92-.76-.18-.04-.35-.09-.53-.14,.53,.6,1.86,.88,3.5,.98-.02-.02-.03-.05-.05-.07Z"/>
    <path class="cls-10" d="M197.03,99.93c.24,0,.47-.04,.7-.1s.46-.13,.69-.19c.46-.12,.93-.17,1.42,.07,.14-.35,.27-.7,.41-1.05-1.18,.1-3.34-.53-3.66,.28,0,0,0,0,0,0,.14,.33,.29,.66,.43,.99Z"/>
    <path class="cls-10" d="M201.9,94.5c-.06-.98-1.5-1.23-1.26-2.37-1.18,.03-1.59,.45-1.73,1.01,.68,.72,1.1,3.44,1.81,4.36,.39-1,.79-2,1.18-2.99Z"/>
    <path class="cls-10" d="M198.73,95.83c.75,2.03-1.67,1.9-2.13,3.11,.31-.81,2.48-.17,3.66-.28,.15-.39,.31-.78,.46-1.17-.71-.92-1.13-3.64-1.81-4.36-.2,.82,.22,1.96-.18,2.69Z"/>
    <path class="cls-17" d="M148.46,108.84c-.13-.58-.25-1.16-.29-1.74-.04-.59,0-1.18,.18-1.78-.56-.14-.89-.45-1.11-.83-.21-.39-.31-.85-.4-1.33-.11,.03-.21,.06-.32,.09-.32,1.02-.62,2.05-.4,3.14,.25,.3,.78,.77,.71,.88-1.51,2.5-.06,3.55,2.05,4.29,0-.52-.07-1.04-.17-1.56-.08-.39-.17-.77-.25-1.16Z"/>
    <path class="cls-18" d="M155.41,96.37c-.76-.31-1.3-.08-1.65,.64,.76,.32,1.29,.07,1.65-.64Z"/>
    <path class="cls-2" d="M200.94,97.74c-.08-.05-.15-.15-.23-.24-.15,.39-.31,.78-.46,1.17,.57-.05,.93-.26,.69-.93Z"/>
    <path class="cls-2" d="M199.84,99.71c.14-.35,.27-.7,.41-1.05-.14,.35-.28,.7-.41,1.05h0Z"/>
    <path class="cls-13" d="M177.63,109.75c.44-.45,.92-.29,1.4-.08,.56-.49,1.14-.44,1.72-.3,.15,.03,.29,.07,.44,.11,.44,.11,.87,.2,1.3,.07,.39,.08,.79,.15,1.18,.22,.26-.42,.56-.6,.87-.66,.06-.01,.11-.05,.16-.05,.38-.01,.78,.15,1.19,.39,0,0,.12-.03,.12-.03,.17-.37,.38-.74,.74-.83,.12-.03,.25-.03,.41,.02,2.08,.61,4.26-.08,6.4,.66,1.02,.35,2.93,1.27,3.72-.84-.22-2-2.31-.99-3.41-2.15,.68-.26,1.03-.65,1.21-1.1,.31-.75,.16-1.68,.33-2.5,0,0,.11-.19,.11-.19,0,0,.04-.21,.04-.22,.12-.42,.24-.84,.36-1.26-1.5-1.26-3.37,.08-4.04,.53-2.46,1.65-6.53-1.36-7.91,2.83-.06,.18-.72,.38-.84,.28-2.47-2.18-4.07,.38-5.78,1.25-.4,.2-.77,.34-1.12,.43-.36,.09-.7,.12-1.03,.11-.65-.03-1.28-.23-1.95-.55-.02,0-.04-.01-.06-.02,0,0,0,0,0,0-.15,.22-.31,.44-.46,.65-.34,.39-.62,.88-1.04,1.15-3.07,1.93-9.46-.33-10.73-3.73-.33-.88-.84-1.69-1.27-2.53-.37,.41-.75,.81-1.13,1.22,.75,2.57,2.53,4.48,4.08,6.54,.24,.31,.43,.65,.65,.98,1.12,.22,2.65,.5,4.3,.76,3.35-.38,6.7-.77,10.05-1.15Z"/>
    <polygon class="cls-13" points="195.41 102.69 195.52 102.5 195.41 102.69 195.41 102.69 195.41 102.69"/>
    <path class="cls-13" d="M182.47,112.68c-.2-.03-.41-.04-.62-.11-.16-.05-.32-.1-.48-.17-.2-.01-.39-.05-.59-.11-.25,.3-.49,.59-.73,.65-.12,.03-.24,.01-.36-.09-.12-.1-.23-.29-.35-.59-.25-.08-.49-.17-.74-.25-.55-.19-1.1-.38-1.65-.56,0,0,0,0,0,0-3.19,.99-13.42,2.68-12.89-.14-.21,1.14-.57,2.65-1.11,3.99l19.52-2.62Z"/>
    <path class="cls-13" d="M184.98,112.34c-.25-.09-.5-.17-.75-.25,0,0-.08,.02-.08,.02-.19,.19-.38,.31-.57,.41l1.41-.19Z"/>
    <path class="cls-13" d="M189.41,111.75c-.32-.04-.64-.05-.96-.1,0,0-.05,.03-.05,.03-.08,.11-.16,.15-.24,.24l1.25-.17Z"/>
    <path class="cls-13" d="M198.68,110.56c-1.64,.79-3.32,1.2-5.03,1.34-1.4,.12-2.81,.02-4.24-.15l-1.25,.17c-.39,.44-.8,.7-1.24,.76-.17,.03-.35,.03-.53,.01-.46-.04-.94-.19-1.41-.35l-1.41,.19s-.05,.04-.08,.06c-.22,.1-.45,.15-.68,.15-.11,0-.23-.05-.34-.06l-19.52,2.62c-.08,.2-.13,.43-.22,.62-.39,.82-.91,1.46-1.54,1.85-.04,.09-.1,.2-.14,.28l40.3-3.51s-.11-.12-.19-.23c-.61-.84-2.21-3.52-2.49-3.74Z"/>
    <path class="cls-13" d="M167.59,110.9c-1.65-.26-3.18-.54-4.3-.76,.26,.38,.55,.76,.78,1.16,1.17-.13,2.35-.27,3.52-.4Z"/>
    <path class="cls-8" d="M186.02,109.43c.58,.18,1.07,.45,1.48,.82,.2,.18,.39,.39,.55,.62,.16,.23,.29,.49,.41,.78,.32,.05,.64,.06,.96,.1l9.28-1.25c.17-.6,.33-1.19,.5-1.78-.64-.09-1.27-.19-1.9-.28-.8,2.11-2.71,1.19-3.72,.84-2.14-.74-4.32-.05-6.4-.66-.15-.04-.29-.05-.41-.02-.35,.09-.57,.46-.74,.83Z"/>
    <path class="cls-8" d="M193.65,111.9c1.71-.14,3.39-.55,5.03-1.34,0-.02,0-.04,.01-.05l-9.28,1.25c1.43,.17,2.84,.26,4.24,.15Z"/>
    <path class="cls-8" d="M186.75,108.6c-.35,.09-.57,.46-.74,.83,0,0,0,0,0,0,.17-.37,.38-.74,.74-.83Z"/>
    <path class="cls-13" d="M198.39,104.5c-.29-.35-.63-.65-1.04-.92-.54-.36-1.19-.65-1.94-.88-.17,.82-.03,1.75-.33,2.5-.18,.45-.53,.84-1.21,1.1,1.11,1.16,3.2,.15,3.41,2.15,.63,.09,1.27,.19,1.9,.28,.35-1.79,.06-3.19-.8-4.22Z"/>
    <path class="cls-13" d="M195.41,102.69c-.17,.82-.02,1.75-.33,2.5,.31-.75,.16-1.68,.33-2.5,0,0,0,0,0,0Z"/>
    <path class="cls-2" d="M231.44,92.79c-.21-.6-.57-1.1-1.21-1.47,0,0,0,0,0,0,.64,.38,1,.87,1.21,1.47Z"/>
    <path class="cls-2" d="M230.94,99.62l-.43,.05c.15,.03,.31,.05,.46,.12-.01-.06-.02-.11-.03-.17Z"/>
    <path class="cls-11" d="M199.84,99.71h0c-.49-.24-.96-.19-1.42-.07-.23,.06-.46,.13-.69,.19s-.46,.1-.7,.1c-.6,.12-.9,.57-1.12,1.09-.12,.42-.24,.84-.36,1.26,1.73,.11,3.46,.22,5.18,.33-.3-.97-.6-1.93-.9-2.9Z"/>
    <path class="cls-11" d="M199.84,99.71h0c-.49-.24-.96-.19-1.42-.07,.46-.12,.93-.17,1.42,.07Z"/>
    <path class="cls-2" d="M236.25,91.03c.19-.08,.38-.19,.56-.33-.81-.36-1.62-.73-2.34,.17,.61,.31,1.2,.39,1.78,.16Z"/>
    <path class="cls-2" d="M236.25,91.03c-.57,.23-1.16,.16-1.78-.16,0,0,0,0,0,0,.61,.31,1.2,.39,1.78,.16Z"/>
    <path class="cls-15" d="M147.26,117.84l1.36-.17c-.13-.3-.25-.61-.33-.89-.56,.26-.86,.63-1.03,1.06Z"/>
    <path class="cls-15" d="M269.8,120.9c-2.42,.28-19.22,2.47-21.6,2.96-.61,.12-1.49,.14-1.76,.54-1.57,2.36-3.41,1.37-5.3,.62-.67-.27-1.68-.87-2.06-.23-1.71,2.88-4.81,1.83-7.16,2.37-2.56,.59-5.31,1.5-8.11,.9-.82-.18-1.37,.4-1.84,1.02-.83,1.09-2.15,1.26-3.18,.85-1.16-.46-2.22-.55-3.24-.36-.36,.38-.74,.75-1.21,1.11-1.09,.82-2.38,1.44-3.87,1.83-.6,.16-1.12,.23-1.59,.25-.02,0-.03,.02-.05,.02h-.3c-.06,0-.1-.05-.15-.06-.17-.02-.37,0-.53-.04-.68-.17-1.09-.52-1.22-1.03-.05-.2,0-.45,.02-.7-4.87,.62-9.59,2.32-14.51,2.76-5.47,.49-10.82,2.29-16.2,3.79l93.84-9.81"/>
    <path class="cls-15" d="M148.29,116.78c.49-1.2,.97-2.4,1.46-3.6,0,0-.02,0-.02,0-.13-.27-.27-.54-.4-.81,0,0,0,0,0,0-.24-.03-.47-.05-.71-.08-3.02,1.79-6.08,3.5-7.93,6.38l6.57-.82c.17-.43,.47-.8,1.03-1.06Z"/>
    <path class="cls-16" d="M149.72,113.17s.02,0,.02,0c0,0,0,0,0,0h0c1.23,.91,2.46,1.82,3.69,2.74,0,0,0,0,0,0,.19,.09,.35,.23,.48,.4,.12,.05,.23,.1,.35,.15l7.54-1.01c.68-2.38,.5-5.51-.32-5.68-.1-.02,.62,.14,1.81,.37-.22-.32-.41-.66-.65-.98-1.55-2.06-3.34-3.97-4.08-6.54-.36,2.59-1.66,3.34-4.28,2.77-.47-.1-.96-.16-1.45-.19-1.47-.08-3,.1-4.48,.1-.18,.6-.22,1.2-.18,1.78,.04,.59,.16,1.17,.29,1.74,.09,.39,.18,.77,.25,1.16,.1,.52,.17,1.03,.17,1.56,0,0,.08-.01,.08-.01,.12,.27,.24,.54,.36,.81h0c.13,.28,.27,.55,.4,.82Z"/>
    <path class="cls-16" d="M155.23,116.85l6.39-.79c.07-.19,.12-.4,.18-.6l-7.54,1.01c.26,.11,.53,.22,.79,.33,.06,.02,.12,.04,.17,.06Z"/>
    <path class="cls-16" d="M159.47,118.14c1,0,1.71-.88,2.15-2.08l-6.39,.79c.75,.25,1.5,.51,2.26,.76,.42,.13,.84,.26,1.26,.39,.26,.1,.49,.1,.73,.14Z"/>
    <path class="cls-16" d="M153.44,115.92s0,0,0,0c-1.23-.91-2.46-1.82-3.69-2.74h0c1.23,.91,2.46,1.82,3.69,2.74,0,0,0,0,0,0Z"/>
    <path class="cls-16" d="M148.17,107.1c-.04-.59,0-1.18,.18-1.78h0c-.18,.6-.22,1.2-.18,1.78Z"/>
    <path class="cls-16" d="M164.07,111.31c-.23-.41-.51-.78-.78-1.16-1.19-.23-1.91-.39-1.81-.37,.82,.17,1,3.29,.32,5.68l.56-.08c.76-1.57,1.56-3.29,1.7-4.07Z"/>
    <path class="cls-16" d="M162.06,116c.1-.21,.2-.41,.31-.63l-.56,.08c-.06,.2-.11,.41-.18,.6l.44-.05Z"/>
    <path class="cls-16" d="M164.07,111.31c-.15,.78-.94,2.5-1.7,4.07l.59-.08c.54-1.34,.9-2.85,1.11-3.99Z"/>
    <path class="cls-16" d="M162.95,115.3l-.59,.08c-.1,.21-.2,.42-.31,.63l.67-.08c.09-.19,.14-.42,.22-.62Z"/>
    <path class="cls-16" d="M159.47,118.14c.67,.1,1.23-.06,1.72-.37,.23-.46,.53-1.08,.87-1.77l-.44,.05c-.45,1.2-1.15,2.08-2.15,2.08Z"/>
    <path class="cls-16" d="M162.73,115.92l-.67,.08c-.34,.69-.65,1.3-.87,1.77,.64-.39,1.15-1.03,1.54-1.85Z"/>
    <path class="cls-16" d="M149.72,113.17c-.13-.27-.27-.54-.4-.81h0s0,0,0,0c.13,.27,.27,.54,.4,.81Z"/>
    <path class="cls-15" d="M153.91,116.32c-.12-.18-.28-.31-.48-.4-.05,.22-.05,.38,.02,.46,.07,.08,.21,.07,.45-.05Z"/>
    <path class="cls-15" d="M153.46,116.37c-.07-.08-.07-.24-.02-.46,0,0,0,0,0,0-.05,.22-.05,.38,.02,.46Z"/>
    <path class="cls-10" d="M148.62,112.28c.24,.03,.47,.05,.71,.08-.12-.27-.24-.54-.36-.81-.12,.24-.23,.49-.35,.73Z"/>
    <polygon class="cls-8" points="166.27 102.42 166.27 102.42 166.27 102.42 166.27 102.42"/>
    <path class="cls-8" d="M168.78,97.52c-.21,.55-.43,1.09-.64,1.64,0,0,0,0,0,0-.17,1.28-1.05,.78-1.76,.69-.32,.84-.36,1.7-.1,2.57,.9-.12,1.79-.24,2.69-.36,0-.79-.46-2.04,.74-2.02,1.12,.02,2.57-.35,3.39,1.09,.19,.33,.27,.62,.28,.87,0,.19-.04,.36-.1,.52-.21,.48-.68,.85-1.08,1.28,.15,.28,.25,.56,.29,.85,.04,.29,0,.58-.12,.88,.27,.11,.55,.22,.82,.33,.02,0,.04,.01,.06,.02,.67,.32,1.3,.53,1.95,.55,.33,.01,.68-.02,1.03-.11,.36-.09,.73-.23,1.12-.43,1.71-.87,3.3-3.43,5.78-1.25,.12,.1,.78-.1,.84-.28,1.38-4.19,5.45-1.18,7.91-2.83,.67-.45,2.54-1.78,4.04-.53,.22-.52,.51-.96,1.12-1.09-.14-.33-.29-.66-.43-.99-1.86-.39-3.68,.11-5.52,.39-1.1,.17-2.21,.27-3.33,.05-.19-.04-.86,.76-.97,.48-1.39-3.61-4.04-1.09-6.08-1.26-2.35-.19-4.64-.79-7.14,.2-1.23,.49-3.17-.81-4.79-1.3h0s0,0,0,0Z"/>
    <path class="cls-8" d="M173.19,105.86s.04,.01,.06,.02c-.02,0-.04-.01-.06-.02,0,0,0,0,0,0Z"/>
    <path class="cls-8" d="M168.14,99.16c.21-.55,.43-1.09,.64-1.64h0c-.21,.55-.42,1.09-.64,1.64h0s0,0,0,0Z"/>
    <path class="cls-8" d="M166.37,99.86c-.32,.84-.36,1.7-.1,2.56,0,0,0,0,0,0-.26-.87-.21-1.72,.1-2.57Z"/>
    <path class="cls-8" d="M159.69,101.41c.43,.84,.94,1.65,1.27,2.53,1.28,3.4,7.66,5.65,10.73,3.73,.42-.26,.7-.76,1.04-1.15-.12-.33-.24-.65-.36-.98-.4,.05-.86,0-1.2,.18-3.41,1.77-6.37,.08-6.41-3.7-.29-.37-.57-.74-.86-1.11-2.28,1.09-3.5,.11-4.1-2.09-.16-.09-.3-.2-.42-.33-.31,.02-.62-.01-.94-.06-.16-.03-.32-.05-.48-.08-.2-.03-.4-.05-.59-.06-.19,0-.39,0-.57,.05-.02,0-.03,.02-.05,.02-.17,.05-.33,.11-.49,.22-.12,.08-.23,.22-.34,.35-.05,.06-.11,.09-.15,.16h0s0,0,0,0c1.21,.94,3.16,.64,3.92,2.33Z"/>
    <path class="cls-8" d="M155.92,98.92c-.05,.06-.11,.09-.15,.16h0c.05-.07,.1-.1,.15-.16Z"/>
    <path class="cls-8" d="M172.36,105.53c.12-.3,.15-.6,.12-.88-.04-.29-.14-.57-.29-.85-1.44,.1-2.19-1.09-3.23-1.74-.9,.12-1.79,.24-2.69,.36,0,0,0,0,0,0-.51-.13-1.01-.27-1.52-.4,.04,3.78,3,5.47,6.41,3.7,.34-.18,.8-.12,1.2-.18,0,0,0,0,0,0,0,0,0,0,0,0Z"/>
    <path class="cls-17" d="M159.79,98.81c.59,2.21,1.82,3.18,4.1,2.09-.15-.56-.38-.93-.68-1.2-.89-.79-2.32-.53-3.42-.9Z"/>
    <path class="cls-17" d="M168.14,99.16c-.07-.04-.13-.11-.2-.16-.2-.17-.38-.38-.57-.55-.26-.22-.56-.32-1,.02-.48,.37-.33,.92,0,1.39,.71,.08,1.59,.58,1.76-.69Z"/>
    <path class="cls-17" d="M168.14,99.16c-.07-.04-.13-.11-.2-.16,.07,.06,.13,.13,.2,.16h0Z"/>
    <path class="cls-16" d="M158.56,102.63c.38-.41,.75-.81,1.13-1.22-.77-1.69-2.71-1.39-3.92-2.33-.14-.01-.27-.03-.41-.04-.31-.03-.62-.06-.93-.09,0,0,0,0,0,0-.3,.59-.74,.81-1.37,.53-.12,.05-.24,.08-.37,.1,0,0,0,0,0,0-.34,.04-.69,.09-1.03,.13-1.64,1.1-4.82,.07-4.81,3.46,0,0,0,0,0,0,0,0,0,0,0,0,.09,.47,.19,.94,.4,1.33,.21,.39,.55,.69,1.11,.83h0c1.49,0,3.01-.18,4.48-.1,.49,.03,.97,.08,1.45,.19,2.62,.57,3.93-.19,4.28-2.77,0,0,0,0,0,0h0Z"/>
    <path class="cls-16" d="M158.56,102.63c.38-.41,.75-.81,1.13-1.22-.38,.41-.75,.81-1.13,1.22h0Z"/>
    <path class="cls-16" d="M152.68,99.57c.13-.02,.25-.05,.37-.1-.12,.05-.24,.08-.37,.1,0,0,0,0,0,0,0,0,0,0,0,0Z"/>
    <path class="cls-16" d="M154.42,98.95c.31,.03,.62,.06,.93,.09-.31-.03-.62-.06-.93-.09,0,0,0,0,0,0,0,0,0,0,0,0Z"/>
    <path class="cls-16" d="M146.84,103.16c.09,.47,.19,.94,.4,1.33-.21-.39-.31-.85-.4-1.33,0,0,0,0,0,0Z"/>
    <path class="cls-16" d="M148.35,105.32h0c1.49,0,3.01-.18,4.48-.1-1.47-.08-3,.1-4.48,.1h0Z"/>
    <path class="cls-8" d="M154.42,98.95c-.4-.28-.73-.36-.97-.22-.08,.05-.15,.12-.21,.22-.08,.13-.14,.31-.19,.53,.64,.29,1.08,.06,1.37-.53Z"/>
    <path class="cls-8" d="M154.42,98.95s0,0,0,0c-.4-.28-.73-.36-.97-.22,.24-.14,.57-.05,.97,.22Z"/>
    <path class="cls-8" d="M152.26,99.35c-.14-.03-.26-.02-.38,.07-.08,.06-.16,.15-.23,.29,.34-.04,.69-.09,1.03-.13-.14-.11-.29-.19-.42-.23Z"/>
    <path class="cls-8" d="M152.68,99.57c-.15-.11-.29-.19-.42-.23,.13,.03,.28,.12,.42,.23,0,0,0,0,0,0Z"/>
    <path class="cls-2" d="M217.67,95.77c.26-.12,.55-.28,.9-.5,.21-.14,.37-.28,.46-.43,.09-.14,.13-.26,.1-.36-.05-.24-1.05-.18-1.64-.05-.29,.06-.56,.14-.83,.24-.04,.01-.12,.04-.2,.06l-.06,1.58c.1-.04,.2-.09,.35-.15,.36-.15,.67-.28,.92-.39Z"/>
    <path class="cls-2" d="M269.8,87.06c-.31,.16-15.05,2.11-15.36,2.27-.38,.63-.74,.83-1.1,.76-.36-.07-.71-.4-1.05-.82-.61-.25-1.22-.5-1.83-.75-.19,.08-.39,.16-.58,.24-.19,.06-.36,.16-.51,.29,.03,1.25,.18,2.51,.04,3.74-.09,.73-.82,2.04-1.5,.72-.18-.35-.43-.66-.7-.94-.21-.22-.43-.43-.64-.64-.62-.62-1.19-1.26-1.21-2.26-.65-.15-1.27-.09-1.86,.11-.2,.07-.39,.15-.59,.25-1.69,.23-3.38,.46-5.07,.69,1.4,.38,1.94,1.4,2.32,2.65-.38-1.26-.92-2.28-2.32-2.65-.34,0-.69,0-1.03,0-.19,.14-.37,.25-.56,.33-.57,.23-1.16,.16-1.78-.16,0,0-.11,.04-.11,.04-1.27,1.18-2.85-.72-4.13,.4,.64,.38,1,.87,1.21,1.47-.21-.6-.57-1.1-1.21-1.47,0,0-.02,.01-.05,.02-.03,.01-.05,.02-.05,.02-.76,.18-1.6,.11-2.43,.11h0c-.27,0-.55,0-.81,.03-.53,.05-1.03,.18-1.48,.48-.44,.3-.82,.76-1.11,1.49-.03,.07-.23,.15-.28,.12-3.99-2.68-7.8,.92-11.85,.34-3.34-.47-6.85,.33-10.28,.56-.39,1-.79,2-1.18,2.99,.07,.09,.15,.19,.23,.24,.25,.67-.11,.88-.69,.93-.14,.35-.28,.7-.41,1.05,.3,.97,.6,1.93,.9,2.9,2.19,.48,4.37,.29,6.55,.03,.72-.09,1.45-.18,2.17-.25,3.85-.41,7.66-1.15,11.51-1.57l6.7-.81c.33,.02,.68-.03,1.04-.13,.59-.15,1.2-.32,1.8-.22l.43-.05,21.69-2.61,17.18-.7v-.63"/>
    <path class="cls-2" d="M243.36,97.01c.73-.99,1.64-1.9,2.97-1.84,.66,.03,.98,.71,.89,1.61-.87,.84-2.1,1.04-3.32,1.16-.39,.04-.81-.54-.53-.92Z"/>
    <path class="cls-2" d="M236.14,95.96c.4-.85,1.01-1.1,1.77-.63,1.14,.7,.56,1.64,.19,2.5-.27,.61-.64,1.13-1.29,.73-1.06-.78-1.15-1.6-.67-2.6Z"/>
    <path class="cls-2" d="M215.12,94.66c.12-.15,.4-.28,.65-.41v-.21c.02-.19,.18-.35,.37-.34,.13,0,.22,.09,.28,.2,.22-.07,.56-.17,.79-.22,.49-.11,1.56-.21,1.85-.09,.29,.13,.47,.37,.55,.72,.05,.21,.04,.4-.02,.58-.06,.18-.18,.36-.36,.55-.21,.2-.96,.59-2.27,1.17,.42-.05,.79-.08,1.09-.06,.31,.01,.56,.08,.77,.21,.21,.12,.34,.33,.4,.6,.07,.3,0,.63-.2,.98-.2,.36-.51,.68-.93,.98-.43,.29-.93,.51-1.5,.63-.21,.05-.35,0-.52,.01-.05,.03-.1,.06-.17,.06-.05,0-.08-.04-.12-.06-.05,0-.14,.02-.19,0-.25-.08-.4-.21-.45-.41-.02-.11-.01-.24,.03-.39,.05-.14,.11-.27,.19-.39,.08-.11,.16-.18,.23-.19,0,0,0,0,.01,0l.12-3.03c-.14,.03-.24,.07-.44,.11-.1-.03-.18-.08-.23-.13-.05-.05-.09-.15-.12-.29-.04-.2,.02-.4,.19-.6Z"/>
    <path class="cls-2" d="M214.05,94.63c0-.19,.17-.35,.37-.34,.19,0,.35,.17,.34,.37l-.22,5.63c0,.19-.17,.35-.37,.34-.19,0-.35-.17-.34-.37l.22-5.63Z"/>
    <path class="cls-2" d="M214.16,100.8c.19,0,.35,.17,.34,.37,0,.19-.17,.35-.37,.34-.19,0-.35-.17-.34-.37,0-.19,.17-.35,.37-.34Z"/>
    <path class="cls-2" d="M212.18,95.18c0-.19,.17-.35,.37-.34,.19,0,.35,.17,.34,.37l-.09,2.37,.62,.02c.19,0,.35,.17,.34,.37,0,.19-.17,.35-.37,.34l-.62-.02-.11,2.73c0,.19-.17,.35-.37,.34-.19,0-.35-.17-.34-.37l.22-5.8Z"/>
    <path class="cls-2" d="M217.31,98.68c.27-.13,.51-.28,.71-.44,.2-.16,.36-.32,.46-.48,.11-.15,.15-.28,.12-.39-.05-.21-.21-.33-.5-.34s-.71,.04-1.26,.16c-.18,.04-.34,.09-.5,.16l-.06,1.65c.05,0,.09,0,.15-.01,.31-.07,.6-.17,.87-.3Z"/>
    <path class="cls-8" d="M176.96,111.44s0,0,0,0c.22-.56,.44-1.13,.66-1.69-3.35,.38-6.7,.77-10.05,1.15,3.59,.57,7.73,1.05,9.37,.54Z"/>
    <path class="cls-8" d="M176.96,111.44c-1.64,.51-5.78,.03-9.37-.54-1.17,.13-2.35,.27-3.52,.4-.53,2.82,9.7,1.13,12.89,.14Z"/>
    <path class="cls-8" d="M178.61,112.01c.25,.08,.49,.17,.74,.25,.49-.37,.97-.27,1.44,.03,.19,.06,.39,.09,.59,.11,.84-.93,1.79-.77,2.77-.28,0,0,.08-.03,.08-.02,1.25-1.54,2.73-.77,4.17-.42,0,0,.05-.03,.05-.03-.11-.29-.25-.54-.41-.78-.16-.23-.34-.44-.55-.62-.41-.37-.91-.64-1.48-.82l-.12,.03s0,0,0,0c-.6,1.07-1.42,.7-2.23,.32-.39-.07-.79-.15-1.19-.22h0c-1.07,2.16-2.26,1.24-3.45,.12-.48-.21-.96-.37-1.4,.08-.22,.56-.44,1.13-.66,1.69,.55,.19,1.1,.38,1.65,.56Z"/>
    <path class="cls-8" d="M182.48,109.56c.4,.07,.79,.15,1.19,.22-.39-.07-.79-.15-1.18-.22t0,0h0Z"/>
    <polygon class="cls-8" points="185.9 109.46 186.02 109.43 186.02 109.43 185.9 109.46 185.9 109.46 185.9 109.46"/>
    <path class="cls-8" d="M178.61,112.01c.25,.08,.49,.17,.74,.25h0c-.25-.08-.49-.17-.74-.25Z"/>
    <path class="cls-8" d="M182.48,109.56c-.43,.13-.86,.04-1.3-.07-.15-.04-.29-.08-.44-.11-.58-.14-1.16-.19-1.72,.3,1.19,1.13,2.37,2.04,3.45-.12Z"/>
    <path class="cls-8" d="M182.48,109.56s0,0,0,0c-.43,.13-.86,.04-1.3-.07,.44,.11,.87,.2,1.3,.07Z"/>
    <path class="cls-8" d="M185.9,109.46c-.41-.24-.82-.41-1.19-.39-.06,0-.11,.04-.16,.05-.31,.06-.61,.24-.87,.66,.81,.38,1.63,.75,2.23-.32Z"/>
    <path class="cls-8" d="M185.9,109.46c-.41-.24-.82-.41-1.19-.39,.38-.01,.78,.15,1.19,.39,0,0,0,0,0,0Z"/>
    <path class="cls-8" d="M184.54,109.12c-.31,.06-.61,.24-.87,.66,.26-.42,.56-.6,.87-.66Z"/>
    <path class="cls-8" d="M172.36,105.54s0,0,0,0c.12,.32,.24,.65,.36,.98,.15-.22,.31-.43,.46-.65-.27-.11-.55-.22-.82-.33,0,0,0,0,0,0Z"/>
    <polygon class="cls-17" points="172.36 105.54 172.36 105.53 172.36 105.53 172.36 105.54"/>
    <polygon class="cls-17" points="172.36 105.53 172.36 105.54 172.36 105.54 172.36 105.53"/>
    <path class="cls-13" d="M184.98,112.34l3.18-.43c.08-.09,.16-.13,.24-.24-1.44-.35-2.92-1.12-4.17,.42h0c.25,.07,.5,.16,.75,.25Z"/>
    <path class="cls-13" d="M186.4,112.7c.18,.01,.35,.01,.53-.01,.43-.06,.84-.32,1.24-.76l-3.18,.43c.48,.16,.95,.32,1.41,.35Z"/>
    <path class="cls-13" d="M184.98,112.34c-.25-.09-.5-.17-.75-.25h0c.25,.07,.5,.16,.75,.25h0Z"/>
    <path class="cls-13" d="M184.98,112.34c.48,.16,.95,.31,1.41,.35-.46-.04-.94-.19-1.41-.35h0Z"/>
    <path class="cls-13" d="M184.15,112.12c-.98-.49-1.93-.66-2.77,.28,.16,.07,.32,.12,.48,.17,.21,.07,.41,.08,.62,.11l1.1-.15c.2-.1,.39-.22,.57-.41Z"/>
    <path class="cls-13" d="M183.5,112.59s.05-.04,.08-.06l-1.1,.15c.11,.02,.23,.07,.34,.06,.23,0,.46-.05,.68-.15Z"/>
    <path class="cls-13" d="M179.35,112.26c.11,.3,.23,.48,.35,.59,.12,.1,.24,.13,.36,.09,.24-.07,.49-.35,.73-.65-.47-.3-.95-.4-1.44-.03Z"/>
    <path class="cls-13" d="M179.35,112.26c.11,.29,.23,.48,.35,.59-.12-.1-.23-.29-.35-.59h0Z"/>
    <path class="cls-8" d="M172.19,103.8s0,0,0,0c.39-.42,.87-.79,1.08-1.28,.07-.16,.11-.33,.1-.52,0-.25-.09-.54-.28-.87-.83-1.44-2.27-1.06-3.39-1.09-1.2-.03-.74,1.23-.74,2.02,1.04,.65,1.79,1.84,3.23,1.74,0,0,0,0,0,0Z"/>
    <path class="cls-8" d="M172.19,103.8c.39-.42,.87-.8,1.08-1.28-.21,.48-.69,.85-1.08,1.28,0,0,0,0,0,0Z"/>
    <path class="cls-9" d="M214.13,101.5c.19,0,.36-.14,.37-.34,0-.19-.14-.36-.34-.37-.19,0-.36,.14-.37,.34,0,.19,.14,.36,.34,.37Z"/>
    <path class="cls-9" d="M215.9,100.03c.06,0,.11-.03,.17-.06-.09,0-.2,.02-.29,0,.04,.02,.07,.05,.12,.06Z"/>
    <path class="cls-9" d="M215.84,94.81c0,.09-.04,.2,.01,.26-.02,.02-.1,.04-.1,.06,0,.04,.03,.07,.07,.09,.04,.02,.07,.03,.11,.03,.03,0,.09,.01,.17,.02,.02,0,.04,.01,.06,.03,.02,.02,.04,.04,.04,.06,.01,.06-.19,.13-.5,.21l-.12,3.03s.05,0,.06,.03c0,.02,0,.07-.02,.13-.02,.04-.03,.07-.02,.11,.02,.07,.1,.12,.26,.14,.11,.02,.27,0,.42-.03l.06-1.65s-.02,0-.03,0c-.17,.07-.25,.11-.24,.1-.05,.01-.08-.02-.09-.1-.03-.12-.03-.28,0-.48,.02-.2,.08-.34,.15-.42,.03-.03,.12-.08,.25-.14l.06-1.58s-.08,.02-.09,.03v-.84s.05-.01,.06-.01c-.06-.11-.15-.2-.28-.2-.19,0-.36,.14-.37,.34v.21s.06-.03,.09-.05l-.02,.62Z"/>
    <path class="cls-9" d="M215.28,95.68c.2-.04,.31-.07,.44-.11l.05-1.33c-.24,.13-.53,.26-.65,.41-.17,.2-.23,.41-.19,.6,.03,.14,.07,.24,.12,.29,.05,.05,.13,.1,.23,.13Z"/>
    <path class="cls-9" d="M216.21,95.36s-.02-.04-.04-.06c-.02-.02-.04-.02-.06-.03-.08,0-.14-.02-.17-.02-.04,0-.07-.02-.11-.03-.04-.02-.06-.05-.07-.09,0-.02,.08-.04,.1-.06-.06-.07-.02-.17-.01-.26l.02-.62s-.06,.03-.09,.05l-.05,1.33c.31-.08,.51-.15,.5-.21Z"/>
    <path class="cls-9" d="M215.56,99.66l.04-1.06s0,0-.01,0c-.07,.02-.15,.08-.23,.19-.08,.11-.14,.24-.19,.39-.05,.14-.06,.27-.03,.39,.04,.2,.19,.33,.45,.41,.05,.01,.14-.01,.19,0-.12-.06-.22-.16-.22-.31Z"/>
    <path class="cls-9" d="M216.45,94.73c.07-.02,.16-.04,.2-.06,.26-.1,.54-.17,.83-.24,.59-.13,1.59-.19,1.64,.05,.02,.1-.01,.21-.1,.36-.09,.14-.24,.29-.46,.43-.34,.22-.64,.38-.9,.5-.26,.12-.56,.25-.92,.39-.15,.06-.26,.11-.35,.15l-.04,1.03c.16-.06,.32-.12,.5-.16,.55-.12,.97-.17,1.26-.16s.46,.13,.5,.34c.02,.1-.02,.23-.12,.39-.11,.16-.26,.31-.46,.48-.2,.16-.44,.31-.71,.44-.27,.13-.56,.23-.87,.3-.06,.01-.1,0-.15,.01l-.03,.7c0,.13-.09,.22-.2,.28,.17,0,.31,.04,.52-.01,.57-.13,1.07-.34,1.5-.63,.43-.29,.74-.62,.93-.98,.2-.35,.26-.68,.2-.98-.06-.28-.19-.48-.4-.6-.21-.13-.46-.19-.77-.21-.3-.01-.67,0-1.09,.06,1.3-.58,2.06-.97,2.27-1.17,.18-.18,.31-.36,.36-.55,.06-.18,.06-.38,.02-.58-.08-.35-.26-.59-.55-.72-.29-.13-1.36-.02-1.85,.09-.23,.05-.57,.15-.79,.22,.03,.05,.06,.1,.06,.16l-.03,.67Z"/>
    <path class="cls-9" d="M216.36,94.76s.06-.02,.09-.03l.03-.67c0-.06-.03-.11-.06-.16-.01,0-.04,.01-.05,.01v.84Z"/>
    <path class="cls-9" d="M216.26,99.69l.03-.7c-.15,.02-.3,.05-.42,.03-.15-.02-.24-.07-.26-.14,0-.04,0-.07,.02-.11,.02-.07,.02-.11,.02-.13,0-.02-.03-.03-.06-.03l-.04,1.06c0,.15,.09,.25,.22,.31,.08,.01,.19,0,.29,0,.11-.06,.19-.15,.2-.28Z"/>
    <path class="cls-9" d="M216.14,96.45c-.08,.08-.13,.22-.15,.42-.02,.2-.02,.36,0,.48,.02,.08,.05,.11,.09,.1,0,0,.07-.03,.24-.1,0,0,.02,0,.03,0l.04-1.03c-.13,.06-.23,.11-.25,.14Z"/>
    <path class="cls-9" d="M214.17,100.62c.19,0,.36-.14,.37-.34l.22-5.63c0-.19-.14-.36-.34-.37-.19,0-.36,.14-.37,.34l-.22,5.63c0,.19,.14,.36,.34,.37Z"/>
    <path class="cls-9" d="M212.29,101.34c.19,0,.36-.14,.37-.34l.11-2.73,.62,.02c.19,0,.36-.14,.37-.34,0-.19-.14-.36-.34-.37l-.62-.02,.09-2.37c0-.19-.14-.36-.34-.37-.19,0-.36,.14-.37,.34l-.22,5.8c0,.19,.14,.36,.34,.37Z"/>
    <path class="cls-2" d="M208.76,116.11h-.3c-.34,0-.58,.26-.68,.57,.54-.04,1.06-.13,1.57-.27-.14-.18-.34-.3-.58-.3Z"/>
    <path class="cls-2" d="M208.9,125.99c-.12,.03-.21-.05-.26-.25-.08-.31-.1-.73-.06-1.27,.02-.28,.07-.51,.13-.71l-.98,.13,.03,5.18c.08,0,.14,0,.16,.06,.01,.06,0,.17-.03,.36-.06,.1-.08,.2-.05,.3,.05,.19,.28,.31,.69,.34,.31,.03,.68-.02,1.09-.1l-.02-4.37s-.05,.02-.07,.03c-.43,.2-.63,.3-.62,.3Z"/>
    <path class="cls-2" d="M208.93,123.35c.07-.08,.3-.22,.65-.4v-.35c-.62,.13-1.24,.26-1.85,.4v.9s.98-.13,.98-.13c.06-.17,.13-.31,.22-.41Z"/>
    <path class="cls-2" d="M209.34,118.86l-.02-2.23s.07-.02,.1-.04c-.03-.06-.03-.13-.08-.18-.51,.14-1.03,.23-1.57,.27-.02,.08-.09,.13-.09,.21v.68c.07-.04,.14-.08,.2-.12l.02,1.62c0,.24,0,.43,0,.68-.05,.06-.19,.13-.18,.17,.03,.1,.09,.18,.19,.22,.1,.04,.2,.07,.29,.08,.09,0,.24,.02,.45,.03,.05,0,.11,.02,.17,.06,.06,.04,.1,.09,.12,.15,.03,.12-.61,.41-1.24,.64v1.88c.63-.13,1.24-.26,1.86-.4l-.02-3.82c-.08,.03-.17,.06-.21,.07Z"/>
    <path class="cls-2" d="M208.55,132.78h.3s.03-.02,.05-.02c-.18,0-.34-.02-.5-.04,.05,.01,.09,.06,.15,.06Z"/>
    <path class="cls-2" d="M205.99,118.75c-.42,.56-.51,1.08-.43,1.6,.06,.37,.08,.87,.96,1.06,.12,.04,.65-.11,1.19-.3l-.02-3.55c-.64,.38-1.39,.77-1.7,1.19Z"/>
    <path class="cls-2" d="M208.95,120.47c-.02-.06-.06-.11-.12-.15-.06-.04-.12-.06-.17-.06-.21-.01-.36-.02-.45-.03-.09,0-.19-.03-.29-.08-.1-.04-.17-.11-.19-.22-.01-.05,.13-.11,.18-.17,0-.25,0-.44,0-.68l-.02-1.62c-.06,.04-.13,.08-.2,.12l.02,3.55c.63-.23,1.27-.52,1.24-.64Z"/>
    <path class="cls-2" d="M213.31,115.58c.77-.07,1.54-.12,2.3-.17-.62-.03-1.47,.05-2.3,.17Z"/>
    <path class="cls-2" d="M207.76,129.07s-.02-.02-.04-.01c-.18,.05-.37,.23-.57,.54s-.35,.66-.45,1.04c-.03,.12,0,.21-.01,.32,.36-.05,.72-.09,1.09-.12v-1.76Z"/>
    <path class="cls-2" d="M216.71,128c.48-.96,.61-1.83,.4-2.61-.19-.72-.57-1.23-1.12-1.53-.56-.3-1.24-.46-2.04-.46-.8,0-1.76,.1-2.86,.29,.25-.12,.43-.22,.66-.34l-2.18,.29v2.01c.42-.19,.85-.35,1.31-.47,1.43-.38,2.52-.57,3.28-.56,.76,.01,1.21,.29,1.36,.84,.07,.27-.02,.62-.28,1.04-.26,.42-.65,.86-1.16,1.31-.52,.45-1.13,.86-1.83,1.24-.7,.38-1.45,.68-2.25,.89-.14,.04-.26,.05-.39,.08v.7c.98-.02,1.95,0,2.94,.13,.19,.02,.42-.09,.58-.21,.79-.58,1.6-.93,2.43-1.09,.47-.5,.86-1.02,1.13-1.56Z"/>
    <path class="cls-2" d="M210.88,122.33c-.13,.06-.25,.12-.39,.18-.38,.17-.67,.32-.91,.44v.69s2.18-.29,2.18-.29c1.31-.66,2.42-1.25,3.24-1.72-1.38,.18-2.75,.41-4.12,.69Z"/>
    <path class="cls-2" d="M211.42,115.95c-.61,.16-1.43,.43-2,.65,.04,.1,.12,.18,.12,.29v1.9c.19-.06,.41-.13,.52-.18,.69-.28,1.4-.52,2.15-.72,1.54-.41,4.16-.68,4.32-.06,.07,.25-.01,.57-.23,.95-.22,.39-.6,.78-1.15,1.17-.87,.61-1.64,1.08-2.3,1.41-.56,.28-1.23,.61-1.99,.96,1.37-.28,2.74-.51,4.12-.69,1.01-.58,1.66-1.01,1.92-1.29,.46-.5,.76-.99,.89-1.48,.13-.48,.13-1-.02-1.54-.24-.92-.75-1.53-1.53-1.82-.15-.06-.39-.08-.66-.09-.76,.04-1.53,.09-2.3,.17-.72,.1-1.41,.24-1.89,.37Z"/>
    <path class="cls-2" d="M207.77,132.01v-1.17c-.37,.03-.73,.08-1.1,.12-.03,.24-.08,.49-.02,.7,.14,.51,.54,.85,1.22,1.03,.15,.04,.35,.02,.53,.04-.35-.08-.63-.34-.63-.71Z"/>
    <path class="cls-2" d="M212.56,130.86c-.99-.12-1.97-.15-2.94-.13v1.27c0,.41-.31,.72-.71,.76,.47-.02,1-.09,1.59-.25,1.49-.4,2.78-1.01,3.87-1.83,.47-.36,.86-.73,1.21-1.11-.83,.16-1.64,.5-2.43,1.09-.16,.12-.4,.23-.58,.21Z"/>
    <path class="cls-2" d="M207.83,129.78c-.03-.1,0-.19,.05-.3,.04-.18,.05-.3,.03-.36-.02-.06-.08-.07-.16-.06v1.76c.62-.06,1.24-.09,1.86-.11v-.7c-.41,.08-.79,.13-1.1,.1-.41-.04-.64-.15-.69-.34Z"/>
    <path class="cls-2" d="M208.58,124.47c-.04,.53-.02,.95,.06,1.27,.05,.2,.14,.28,.26,.25-.02,0,.19-.1,.62-.3,.02-.01,.05-.02,.07-.03v-2.01s-.88,.12-.88,.12c-.06,.19-.11,.42-.13,.71Z"/>
    <path class="cls-2" d="M208.93,123.35c-.09,.1-.16,.24-.22,.41l.87-.12v-.69c-.36,.18-.58,.32-.65,.4Z"/>
    <path class="cls-2" d="M209.34,118.86s.13-.05,.21-.07v-1.9c-.01-.11-.09-.19-.13-.29-.03,.01-.07,.02-.1,.04l.02,2.23Z"/>
    <path class="cls-2" d="M209.62,132v-1.27c-.63,.01-1.24,.05-1.86,.11v1.17c0,.37,.29,.63,.64,.71,.17,.02,.32,.04,.5,.04,.4-.03,.72-.35,.72-.76Z"/>
    <text class="cls-3" transform="translate(179.16 134.53) rotate(-7.12)"><tspan x="0" y="0">u</tspan></text>
    <text class="cls-3" transform="translate(186.79 133.57) rotate(-7.12)"><tspan x="0" y="0">g</tspan></text>
    <text class="cls-3" transform="translate(194.39 132.62) rotate(-7.12)"><tspan x="0" y="0">o</tspan></text>
    <text class="cls-3" transform="translate(200.57 131.85) rotate(-7.12)"><tspan x="0" y="0"> </tspan></text>
    <text class="cls-3" transform="translate(206.15 131.16) rotate(-7.12)"><tspan x="0" y="0"> </tspan></text>
    <text class="cls-3" transform="translate(211.69 130.46) rotate(-7.12)"><tspan x="0" y="0"> </tspan></text>
    <text class="cls-3" transform="translate(217.27 129.77) rotate(-7.12)"><tspan x="0" y="0">l</tspan></text>
    <text class="cls-3" transform="translate(221.79 129.2) rotate(-7.12)"><tspan x="0" y="0">i</tspan></text>
    <text class="cls-3" transform="translate(226.34 128.63) rotate(-7.12)"><tspan x="0" y="0">n</tspan></text>
  </g>
</svg>